<svg width="16" height="17" viewBox="0 0 16 17" fill="none" xmlns="http://www.w3.org/2000/svg">
<path fill-rule="evenodd" clip-rule="evenodd" d="M8 16C11.866 16 15 12.866 15 9C15 5.13401 11.866 2 8 2C4.13401 2 1 5.13401 1 9C1 12.866 4.13401 16 8 16ZM8.8535 4.37C8.6935 4.186 8.4855 4.094 8.2295 4.094C7.9815 4.094 7.7575 4.198 7.5575 4.406C7.3655 4.614 7.2695 4.858 7.2695 5.138C7.2695 5.402 7.3495 5.622 7.5095 5.798C7.6775 5.974 7.8935 6.062 8.1575 6.062C8.4215 6.062 8.6415 5.966 8.8175 5.774C9.0015 5.574 9.0935 5.33 9.0935 5.042C9.0935 4.77 9.0135 4.546 8.8535 4.37ZM8.6615 7.478C8.4935 7.238 8.2095 7.118 7.8095 7.118C7.4735 7.118 7.1735 7.222 6.9095 7.43C6.6535 7.63 6.4415 7.878 6.2735 8.174C6.1135 8.462 6.0095 8.734 5.9615 8.99L6.6095 9.182C6.7855 8.55 6.9775 8.234 7.1855 8.234C7.3135 8.234 7.3775 8.338 7.3775 8.546C7.3775 8.81 7.3175 9.334 7.1975 10.118C7.0535 11.03 6.9815 11.666 6.9815 12.026C6.9815 12.482 7.0655 12.822 7.2335 13.046C7.4095 13.27 7.7095 13.382 8.1335 13.382C8.4695 13.382 8.7655 13.282 9.0215 13.082C9.2775 12.874 9.4855 12.626 9.6455 12.338C9.8055 12.05 9.9095 11.774 9.9575 11.51L9.3095 11.318C9.1335 11.95 8.9375 12.266 8.7215 12.266C8.6015 12.266 8.5415 12.162 8.5415 11.954C8.5415 11.818 8.5655 11.574 8.6135 11.222C8.6615 10.862 8.6935 10.63 8.7095 10.526C8.7255 10.39 8.7655 10.082 8.8295 9.602C8.8935 9.114 8.9255 8.75 8.9255 8.51C8.9255 8.062 8.8375 7.718 8.6615 7.478Z" fill="#292929"/>
</svg>
