<svg width="20" height="21" viewBox="0 0 20 21" fill="none" xmlns="http://www.w3.org/2000/svg">
<path d="M16.6522 8.38511V6.7112C16.6522 3.01329 13.6544 0.0155449 9.95652 0.0155449C6.25862 0.0155449 3.26087 3.01329 3.26087 6.7112V8.38511C3.21932 9.41711 2.75024 10.3853 1.9661 11.0575C1.26908 11.6514 0.83251 12.4948 0.75 13.4069C0.75 15.4992 4.19157 16.7547 9.95652 16.7547C15.7215 16.7547 19.163 15.4992 19.163 13.4069C19.0805 12.4948 18.644 11.6514 17.9469 11.0575C17.1628 10.3853 16.6937 9.41711 16.6522 8.38511Z" fill="white"/>
<path d="M7.56702 18.7547C7.89441 19.7995 8.86207 20.5105 9.95653 20.5105C11.051 20.5105 12.0187 19.7995 12.346 18.7547C11.5978 18.8099 10.8027 18.8384 9.95653 18.8384C9.11036 18.8384 8.31526 18.8116 7.56702 18.7547Z" fill="white"/>
</svg>
