<svg width="17" height="16" viewBox="0 0 17 16" fill="none" xmlns="http://www.w3.org/2000/svg">
<path d="M15.3647 3.98352H13.1208L11.8255 2.56782H6.8706V4.69135H4.74707V6.81488H2.62354V13.8933C2.62354 14.6719 3.26059 15.309 4.03923 15.309H15.3647C16.1434 15.309 16.7804 14.6719 16.7804 13.8933V5.39918C16.7804 4.62058 16.1434 3.98352 15.3647 3.98352ZM9.70196 13.1855C7.74831 13.1855 6.16273 11.5999 6.16273 9.64624C6.16273 7.6926 7.74831 6.10705 9.70196 6.10705C11.6556 6.10705 13.2412 7.69263 13.2412 9.64628C13.2412 11.5999 11.6556 13.1855 9.70196 13.1855Z" fill="white"/>
<path d="M2.62353 6.10714H4.03923V3.9836H6.16276V2.56791H4.03923V0.444374H2.62353V2.56791H0.5V3.9836H2.62353V6.10714Z" fill="white"/>
<path d="M9.70212 7.38147C8.44924 7.38147 7.43701 8.3937 7.43701 9.64658C7.43701 10.8995 8.44924 11.9117 9.70212 11.9117C10.955 11.9117 11.9672 10.8995 11.9672 9.64658C11.9672 8.3937 10.955 7.38147 9.70212 7.38147Z" fill="white"/>
</svg>
