<svg width="95" height="83" viewBox="0 0 95 83" fill="none" xmlns="http://www.w3.org/2000/svg">
<circle r="40.5" transform="matrix(1 0 0 -1 41.5 41.5)" stroke="#D2302E" stroke-width="2"/>
<circle cx="78" cy="66" r="17" fill="#D2302E"/>
<path d="M84.3647 61.9835H82.1208L80.8255 60.5678H75.8706V62.6913H73.7471V64.8149H71.6235V71.8933C71.6235 72.6719 72.2606 73.309 73.0392 73.309H84.3647C85.1434 73.309 85.7804 72.6719 85.7804 71.8933V63.3992C85.7804 62.6206 85.1434 61.9835 84.3647 61.9835ZM78.702 71.1855C76.7483 71.1855 75.1627 69.5999 75.1627 67.6462C75.1627 65.6926 76.7483 64.107 78.702 64.107C80.6556 64.107 82.2412 65.6926 82.2412 67.6463C82.2412 69.5999 80.6556 71.1855 78.702 71.1855Z" fill="white"/>
<path d="M71.6235 64.1071H73.0392V61.9836H75.1628V60.5679H73.0392V58.4444H71.6235V60.5679H69.5V61.9836H71.6235V64.1071Z" fill="white"/>
<path d="M78.7021 65.3815C77.4492 65.3815 76.437 66.3937 76.437 67.6466C76.437 68.8995 77.4492 69.9117 78.7021 69.9117C79.955 69.9117 80.9672 68.8995 80.9672 67.6466C80.9672 66.3937 79.955 65.3815 78.7021 65.3815Z" fill="white"/>
</svg>
