<svg width="24" height="24" viewBox="0 0 24 24" fill="none" xmlns="http://www.w3.org/2000/svg">
<path fill-rule="evenodd" clip-rule="evenodd" d="M14.3687 11.1746C14.3687 12.9369 12.9639 14.35 11.2118 14.35C9.4597 14.35 8.05481 12.9369 8.05481 11.1746C8.05481 9.4117 9.4597 8 11.2118 8C12.9639 8 14.3687 9.4117 14.3687 11.1746ZM11.2118 20C8.63842 20 6.4411 19.592 6.4411 17.9601C6.4411 16.3275 8.62432 15.9047 11.2118 15.9047C13.7852 15.9047 15.9825 16.3127 15.9825 17.9453C15.9825 19.5772 13.7993 20 11.2118 20ZM15.7179 11.2319C15.7179 12.1303 15.4499 12.9671 14.9798 13.6629C14.9315 13.7345 14.9745 13.8311 15.0597 13.8459C15.1773 13.8662 15.2988 13.8777 15.4224 13.881C16.6547 13.9135 17.7607 13.1157 18.0663 11.9148C18.5189 10.1309 17.1899 8.5294 15.4976 8.5294C15.3136 8.5294 15.1376 8.54899 14.9664 8.58412C14.9429 8.58952 14.918 8.60033 14.9046 8.62127C14.8885 8.64693 14.9006 8.68138 14.9167 8.70367C15.4251 9.42033 15.7179 10.2944 15.7179 11.2319ZM17.7587 15.1344C18.5867 15.2972 19.1313 15.6295 19.357 16.1125C19.5477 16.509 19.5477 16.9689 19.357 17.3648C19.0118 18.1138 17.899 18.3543 17.4665 18.4164C17.3772 18.43 17.3054 18.3523 17.3148 18.2624C17.5357 16.1868 15.7783 15.2026 15.3236 14.9763C15.3041 14.9662 15.3001 14.9507 15.3021 14.9412C15.3035 14.9345 15.3115 14.9237 15.3263 14.9216C16.3101 14.9034 17.3678 15.0385 17.7587 15.1344ZM7.0778 13.881C7.20137 13.8776 7.32225 13.8668 7.44044 13.8459C7.52573 13.831 7.56871 13.7344 7.52035 13.6628C7.05027 12.9671 6.78232 12.1302 6.78232 11.2319C6.78232 10.2943 7.07511 9.42028 7.58348 8.70363C7.5996 8.68134 7.61101 8.64689 7.59557 8.62122C7.58214 8.60096 7.55662 8.58947 7.53378 8.58407C7.36187 8.54895 7.18592 8.52936 7.00192 8.52936C5.3096 8.52936 3.9806 10.1309 4.4339 11.9147C4.73946 13.1157 5.8455 13.9134 7.0778 13.881ZM7.1977 14.9408C7.19972 14.951 7.19569 14.9658 7.17689 14.9766C6.72157 15.2029 4.96412 16.187 5.18506 18.262C5.19446 18.3525 5.12328 18.4296 5.03396 18.4167C4.60148 18.3546 3.48872 18.1141 3.14354 17.365C2.95215 16.9685 2.95215 16.5092 3.14354 16.1127C3.36919 15.6298 3.91314 15.2975 4.74117 15.134C5.13268 15.0388 6.1897 14.9037 7.1742 14.9219C7.18897 14.9239 7.19636 14.9347 7.1977 14.9408Z" fill="black"/>
<path d="M20.4007 5.39191H19.5986V4.60774C19.5986 4.27296 19.3301 4 18.9993 4C18.6692 4 18.4 4.27296 18.4 4.60774V5.39191H17.5993C17.2685 5.39191 17 5.66487 17 5.99965C17 6.33443 17.2685 6.6074 17.5993 6.6074H18.4V7.39226C18.4 7.72704 18.6692 8 18.9993 8C19.3301 8 19.5986 7.72704 19.5986 7.39226V6.6074H20.4007C20.7308 6.6074 21 6.33443 21 5.99965C21 5.66487 20.7308 5.39191 20.4007 5.39191Z" fill="black"/>
</svg>
