<svg width="16" height="16" viewBox="0 0 16 16" fill="none" xmlns="http://www.w3.org/2000/svg">
<path d="M7.92188 6.46094C7.51042 6.46094 7.1875 6.61979 6.95312 6.9375C6.71875 7.25 6.60156 7.6849 6.60156 8.24219C6.60156 8.79948 6.71615 9.23698 6.94531 9.55469C7.17969 9.86719 7.5026 10.0234 7.91406 10.0234C8.33073 10.0234 8.66146 9.86458 8.90625 9.54688C9.15104 9.22917 9.27344 8.79427 9.27344 8.24219C9.27344 7.6901 9.15104 7.25521 8.90625 6.9375C8.66667 6.61979 8.33854 6.46094 7.92188 6.46094ZM8.17188 1.67188C9.40625 1.67188 10.5 1.91667 11.4531 2.40625C12.4115 2.89062 13.1536 3.57292 13.6797 4.45312C14.2109 5.33333 14.4766 6.34115 14.4766 7.47656C14.4766 8.72135 14.2005 9.70573 13.6484 10.4297C13.0964 11.1536 12.349 11.5156 11.4062 11.5156C10.9167 11.5156 10.5052 11.4062 10.1719 11.1875C9.84375 10.9688 9.63542 10.6719 9.54688 10.2969H9.40625C9.07292 11.0938 8.44792 11.4922 7.53125 11.4922C6.71875 11.4922 6.0651 11.1901 5.57031 10.5859C5.07552 9.98177 4.82812 9.1849 4.82812 8.19531C4.82812 7.2474 5.07031 6.47917 5.55469 5.89062C6.03906 5.30208 6.67188 5.00781 7.45312 5.00781C7.86979 5.00781 8.23958 5.10417 8.5625 5.29688C8.88542 5.48958 9.125 5.76042 9.28125 6.10938H9.42188V5.17969H11V9.32031C11 9.59635 11.0651 9.8125 11.1953 9.96875C11.3255 10.1198 11.5104 10.1953 11.75 10.1953C12.1458 10.1953 12.4609 9.96354 12.6953 9.5C12.9297 9.03125 13.0469 8.40104 13.0469 7.60938C13.0469 6.19792 12.5964 5.06771 11.6953 4.21875C10.7995 3.36458 9.60938 2.9375 8.125 2.9375C6.61458 2.9375 5.38281 3.42969 4.42969 4.41406C3.47656 5.39844 3 6.66927 3 8.22656C3 9.8099 3.48698 11.0677 4.46094 12C5.4401 12.9323 6.76042 13.3984 8.42188 13.3984C9.35938 13.3984 10.0677 13.3125 10.5469 13.1406V14.4141C9.91146 14.6016 9.16406 14.6953 8.30469 14.6953C6.96094 14.6953 5.77865 14.4271 4.75781 13.8906C3.74219 13.3542 2.95573 12.5938 2.39844 11.6094C1.84635 10.625 1.57031 9.48438 1.57031 8.1875C1.57031 6.91667 1.84635 5.78646 2.39844 4.79688C2.95573 3.80729 3.73438 3.03906 4.73438 2.49219C5.73958 1.94531 6.88542 1.67188 8.17188 1.67188Z" fill="#292929"/>
</svg>
