<svg width="16" height="16" viewBox="0 0 16 16" fill="none" xmlns="http://www.w3.org/2000/svg">
<path fill-rule="evenodd" clip-rule="evenodd" d="M4.8666 0.766663H4.8312C4.30133 0.766648 3.85015 0.766635 3.47972 0.7969C3.09056 0.828696 2.71196 0.89833 2.35003 1.08274C1.80436 1.36078 1.36072 1.80442 1.08268 2.35009C0.898269 2.71202 0.828635 3.09062 0.796839 3.47978C0.766574 3.85021 0.766586 4.30139 0.766602 4.83126V4.86667V11.1333V11.1687C0.766586 11.6986 0.766574 12.1498 0.796839 12.5202C0.828635 12.9094 0.898269 13.288 1.08268 13.6499C1.36072 14.1956 1.80436 14.6392 2.35003 14.9172C2.71196 15.1017 3.09056 15.1713 3.47972 15.2031C3.85015 15.2334 4.30133 15.2333 4.8312 15.2333H4.8666H11.1333H11.1687C11.6985 15.2333 12.1497 15.2334 12.5202 15.2031C12.9093 15.1713 13.2879 15.1017 13.6498 14.9172C14.1955 14.6392 14.6392 14.1956 14.9172 13.6499C15.1016 13.288 15.1712 12.9094 15.203 12.5202C15.2333 12.1498 15.2333 11.6986 15.2333 11.1687V11.1333V4.86666V4.83126C15.2333 4.30139 15.2333 3.85021 15.203 3.47978C15.1712 3.09062 15.1016 2.71202 14.9172 2.35009C14.6392 1.80442 14.1955 1.36078 13.6498 1.08274C13.2879 0.89833 12.9093 0.828696 12.5202 0.7969C12.1497 0.766635 11.6985 0.766648 11.1687 0.766663H11.1333H4.8666ZM3.16721 2.68656C3.2331 2.65298 3.34845 2.61362 3.62629 2.59092C3.91465 2.56736 4.2917 2.56666 4.8666 2.56666H11.1333C11.7082 2.56666 12.0852 2.56736 12.3736 2.59092C12.6514 2.61362 12.7668 2.65298 12.8327 2.68656C13.0396 2.79202 13.2079 2.9603 13.3134 3.16727C13.3469 3.23316 13.3863 3.34851 13.409 3.62636C13.4326 3.91471 13.4333 4.29176 13.4333 4.86666V9.20702L12.948 8.54303C12.1491 7.44974 10.5174 7.44974 9.71848 8.54303L8.66461 9.98517C8.06494 10.8058 6.85591 10.8502 6.19767 10.0758C5.56994 9.33726 4.42992 9.33726 3.80219 10.0758L2.56708 11.5288C2.56665 11.4082 2.5666 11.2769 2.5666 11.1333V4.86667C2.5666 4.29176 2.5673 3.91471 2.59086 3.62636C2.61356 3.34851 2.65292 3.23316 2.68649 3.16727C2.79196 2.9603 2.96023 2.79202 3.16721 2.68656ZM6.99993 5.33333C6.99993 6.2538 6.25374 6.99999 5.33327 6.99999C4.41279 6.99999 3.6666 6.2538 3.6666 5.33333C3.6666 4.41285 4.41279 3.66666 5.33327 3.66666C6.25374 3.66666 6.99993 4.41285 6.99993 5.33333Z" fill="#D2302E"/>
</svg>
