<svg width="18" height="18" viewBox="0 0 18 18" fill="none" xmlns="http://www.w3.org/2000/svg">
<path d="M5.54692 8.56967L5.55595 8.57H5.56498H5.68861C5.8084 8.78962 5.94942 8.9965 6.1094 9.18775C5.43924 9.49518 4.82926 9.92453 4.31169 10.4562L4.30115 10.4671L4.29128 10.4785L4.16859 10.6208L3.89594 10.9282L3.76998 11.0702V11.26V13.11H2.72998V9.65749C3.09676 9.29957 3.53166 9.01869 4.00905 8.83159C4.49832 8.63984 5.02177 8.55069 5.54692 8.56967Z" fill="black" stroke="black"/>
<path d="M12.4563 8.555L12.4647 8.55497L12.473 8.55467C12.9981 8.53569 13.5216 8.62484 14.0108 8.81659C14.4817 9.00114 14.9113 9.27694 15.2749 9.62793V13.115H14.3049V11.26V11.0728L14.182 10.9316L13.912 10.6216L13.912 10.6216L13.9079 10.617L13.7829 10.477L13.7777 10.4712L13.7724 10.4656C13.2235 9.88791 12.5663 9.42841 11.8414 9.11139C11.9849 8.93999 12.1133 8.75595 12.2248 8.56132C12.3019 8.55732 12.3791 8.55522 12.4563 8.555Z" fill="black" stroke="black"/>
<path d="M6.51694 3.86587C6.12252 4.19611 5.79906 4.60594 5.56914 5.07094C5.33682 5.54081 5.20726 6.05239 5.18631 6.57185C5.04685 6.53818 4.91219 6.48511 4.78638 6.41372C4.55367 6.28166 4.35924 6.09143 4.22214 5.86165C4.08504 5.63188 4.00996 5.37043 4.00426 5.10292C3.99856 4.83541 4.06243 4.57101 4.18961 4.3356C4.3168 4.10019 4.50295 3.90185 4.72982 3.75999C4.9567 3.61814 5.21652 3.53764 5.48386 3.52637C5.75119 3.51511 6.01687 3.57346 6.25487 3.69572C6.34812 3.74363 6.43588 3.8007 6.51694 3.86587Z" fill="black" stroke="black"/>
<path d="M11.4433 3.91263C11.5292 3.8333 11.6242 3.76367 11.7267 3.70532C11.9585 3.57331 12.2206 3.50358 12.4873 3.5029C12.7541 3.50223 13.0165 3.57065 13.249 3.70149C13.4815 3.83234 13.6761 4.02115 13.814 4.24954C13.9518 4.47794 14.0282 4.73814 14.0356 5.00481C14.0431 5.27148 13.9813 5.53553 13.8564 5.77126C13.7315 6.00699 13.5477 6.20636 13.3229 6.34996C13.1372 6.46854 12.9288 6.54575 12.7119 6.57706C12.6879 6.00259 12.5327 5.44055 12.2573 4.93441C12.0469 4.54776 11.771 4.20227 11.4433 3.91263Z" fill="black" stroke="black"/>
<path d="M10.67 6.725C10.67 7.68321 9.89317 8.46 8.93495 8.46C7.97674 8.46 7.19995 7.68321 7.19995 6.725C7.19995 5.76678 7.97674 4.99 8.93495 4.99C9.89317 4.99 10.67 5.76678 10.67 6.725Z" fill="black" stroke="black"/>
<path d="M9.03483 10.6496L9.05573 10.6504L9.07662 10.6495C9.66027 10.6243 10.2429 10.7185 10.7889 10.9264C11.3212 11.1291 11.8077 11.4357 12.22 11.8282V14.7991C12.2189 14.8353 12.2108 14.871 12.1963 14.9042C12.1813 14.9385 12.1598 14.9695 12.1328 14.9955C12.1058 15.0214 12.074 15.0418 12.0391 15.0555C12.0043 15.0692 11.9671 15.0758 11.9296 15.0751L11.9296 15.075H11.92H6.175V15.0749L6.16536 15.0751C6.12793 15.0758 6.09072 15.0692 6.05587 15.0555C6.02102 15.0418 5.98919 15.0214 5.96222 14.9955C5.93525 14.9695 5.91366 14.9385 5.89867 14.9042C5.88417 14.871 5.87614 14.8353 5.875 14.7991V11.8333C6.29127 11.4398 6.78132 11.1325 7.31702 10.9291C7.86492 10.721 8.44924 10.6259 9.03483 10.6496Z" fill="black" stroke="black"/>
</svg>
