<svg width="18" height="18" viewBox="0 0 18 18" fill="none" xmlns="http://www.w3.org/2000/svg">
<g opacity="0.4">
<path d="M10.5418 10.5418C10.3421 10.7561 10.1012 10.9281 9.83357 11.0473C9.56593 11.1666 9.27702 11.2307 8.98407 11.2359C8.69111 11.241 8.40012 11.1871 8.12844 11.0774C7.85677 10.9677 7.60998 10.8043 7.4028 10.5972C7.19562 10.39 7.03229 10.1432 6.92255 9.87152C6.81282 9.59984 6.75893 9.30885 6.7641 9.0159C6.76927 8.72294 6.83339 8.43403 6.95264 8.1664C7.07189 7.89876 7.24382 7.65789 7.45818 7.45814M13.32 13.32C12.0768 14.2676 10.563 14.7926 9 14.8181C3.90909 14.8181 1 8.99996 1 8.99996C1.90465 7.31407 3.15937 5.84113 4.68 4.67996L13.32 13.32ZM7.47273 3.35633C7.97333 3.23915 8.48586 3.18057 9 3.18178C14.0909 3.18178 17 8.99996 17 8.99996C16.5585 9.82586 16.032 10.6034 15.4291 11.32L7.47273 3.35633Z" stroke="black" stroke-linecap="round" stroke-linejoin="round"/>
<path d="M1 1L17 17" stroke="black" stroke-linecap="round" stroke-linejoin="round"/>
</g>
</svg>
