<svg width="248" height="40" viewBox="0 0 248 40" fill="none" xmlns="http://www.w3.org/2000/svg">
<rect x="0.5" y="0.5" width="247" height="39" rx="4.5" stroke="#C8C8C8"/>
<rect width="124" height="40" rx="5" fill="#D2302E"/>
<path d="M35.1572 18.1477C34.7594 15.6591 32.8106 14.2045 30.3503 14.2045C27.339 14.2045 25.1174 16.4602 25.1174 20.1818C25.1174 23.9034 27.3276 26.1591 30.3503 26.1591C32.9072 26.1591 34.7765 24.5568 35.1572 22.2557L33.3844 22.25C33.0833 23.7386 31.8333 24.5568 30.3617 24.5568C28.3674 24.5568 26.8617 23.0284 26.8617 20.1818C26.8617 17.358 28.3617 15.8068 30.3674 15.8068C31.8503 15.8068 33.0947 16.642 33.3844 18.1477H35.1572ZM42.5845 22.3807C42.5901 23.8636 41.4879 24.5682 40.5333 24.5682C39.4822 24.5682 38.7549 23.8068 38.7549 22.6193V17.2727H37.056V22.8239C37.056 24.9886 38.2435 26.1136 39.9197 26.1136C41.2322 26.1136 42.1242 25.4205 42.5276 24.4886H42.6185V26H44.289V17.2727H42.5845V22.3807ZM53.0458 19.4034C52.6936 18.0455 51.6311 17.1591 49.7447 17.1591C47.7731 17.1591 46.3754 18.1989 46.3754 19.7443C46.3754 20.983 47.1254 21.8068 48.7618 22.1705L50.239 22.4943C51.0799 22.6818 51.472 23.0568 51.472 23.6023C51.472 24.2784 50.7504 24.8068 49.6368 24.8068C48.6197 24.8068 47.9663 24.3693 47.7618 23.5114L46.1197 23.7614C46.4038 25.3068 47.6879 26.1761 49.6481 26.1761C51.7561 26.1761 53.2163 25.0568 53.2163 23.4773C53.2163 22.2443 52.4322 21.483 50.8299 21.1136L49.4436 20.7955C48.4833 20.5682 48.0686 20.2443 48.0743 19.6534C48.0686 18.983 48.7958 18.5057 49.7618 18.5057C50.8186 18.5057 51.3072 19.0909 51.5061 19.6761L53.0458 19.4034ZM59.0925 17.2727H57.3027V15.1818H55.6038V17.2727H54.3254V18.6364H55.6038V23.7898C55.5981 25.375 56.8084 26.142 58.1493 26.1136C58.689 26.108 59.0527 26.0057 59.2515 25.9318L58.9447 24.5284C58.8311 24.5511 58.6209 24.6023 58.3481 24.6023C57.797 24.6023 57.3027 24.4205 57.3027 23.4375V18.6364H59.0925V17.2727ZM64.4885 26.1761C66.9487 26.1761 68.5567 24.375 68.5567 21.6761C68.5567 18.9602 66.9487 17.1591 64.4885 17.1591C62.0283 17.1591 60.4203 18.9602 60.4203 21.6761C60.4203 24.375 62.0283 26.1761 64.4885 26.1761ZM64.4942 24.75C62.8862 24.75 62.1362 23.3466 62.1362 21.6705C62.1362 20 62.8862 18.5795 64.4942 18.5795C66.0908 18.5795 66.8408 20 66.8408 21.6705C66.8408 23.3466 66.0908 24.75 64.4942 24.75ZM70.3874 26H72.0863V20.6193C72.0863 19.4432 72.9101 18.625 73.876 18.625C74.8192 18.625 75.4726 19.25 75.4726 20.1989V26H77.1658V20.4375C77.1658 19.3864 77.8078 18.625 78.9158 18.625C79.8135 18.625 80.5522 19.125 80.5522 20.3068V26H82.251V20.1477C82.251 18.1534 81.1374 17.1591 79.5578 17.1591C78.3022 17.1591 77.359 17.7614 76.9385 18.6932H76.8476C76.4669 17.7386 75.6658 17.1591 74.501 17.1591C73.3476 17.1591 72.4897 17.733 72.126 18.6932H72.0181V17.2727H70.3874V26ZM88.2238 26.1761C90.1272 26.1761 91.4738 25.2386 91.8601 23.8182L90.2522 23.5284C89.9454 24.3523 89.2067 24.7727 88.2408 24.7727C86.7863 24.7727 85.809 23.8295 85.7636 22.1477H91.9681V21.5455C91.9681 18.392 90.0817 17.1591 88.1045 17.1591C85.6726 17.1591 84.0704 19.0114 84.0704 21.6932C84.0704 24.4034 85.6499 26.1761 88.2238 26.1761ZM85.7692 20.875C85.8374 19.6364 86.7351 18.5625 88.1158 18.5625C89.434 18.5625 90.2976 19.5398 90.3033 20.875H85.7692ZM93.7874 26H95.4863V20.6705C95.4863 19.5284 96.367 18.7045 97.5715 18.7045C97.9238 18.7045 98.3215 18.767 98.4579 18.8068V17.1818C98.2874 17.1591 97.9522 17.142 97.7363 17.142C96.7136 17.142 95.8386 17.7216 95.5204 18.6591H95.4295V17.2727H93.7874V26Z" fill="white"/>
<path d="M172.695 17.4205H174.388C174.337 15.5568 172.69 14.2045 170.326 14.2045C167.991 14.2045 166.201 15.5398 166.201 17.5455C166.201 19.1648 167.36 20.1136 169.229 20.6193L170.604 20.9943C171.849 21.3239 172.809 21.733 172.809 22.767C172.809 23.9034 171.724 24.6534 170.229 24.6534C168.877 24.6534 167.752 24.0511 167.65 22.7841H165.888C166.002 24.892 167.633 26.1932 170.241 26.1932C172.974 26.1932 174.548 24.7557 174.548 22.7841C174.548 20.6875 172.678 19.875 171.201 19.5114L170.065 19.2159C169.155 18.983 167.945 18.5568 167.951 17.4432C167.951 16.4545 168.854 15.7216 170.286 15.7216C171.621 15.7216 172.57 16.3466 172.695 17.4205ZM180.205 26.1761C182.108 26.1761 183.455 25.2386 183.841 23.8182L182.233 23.5284C181.927 24.3523 181.188 24.7727 180.222 24.7727C178.767 24.7727 177.79 23.8295 177.745 22.1477H183.949V21.5455C183.949 18.392 182.063 17.1591 180.086 17.1591C177.654 17.1591 176.052 19.0114 176.052 21.6932C176.052 24.4034 177.631 26.1761 180.205 26.1761ZM177.75 20.875C177.819 19.6364 178.716 18.5625 180.097 18.5625C181.415 18.5625 182.279 19.5398 182.284 20.875H177.75ZM187.467 14.3636L185.769 14.3636V26H187.467V14.3636ZM191.386 14.3636H189.687V26H191.386V14.3636ZM197.368 26.1761C199.271 26.1761 200.618 25.2386 201.004 23.8182L199.396 23.5284C199.089 24.3523 198.35 24.7727 197.385 24.7727C195.93 24.7727 194.953 23.8295 194.907 22.1477H201.112V21.5455C201.112 18.392 199.225 17.1591 197.248 17.1591C194.816 17.1591 193.214 19.0114 193.214 21.6932C193.214 24.4034 194.794 26.1761 197.368 26.1761ZM194.913 20.875C194.981 19.6364 195.879 18.5625 197.26 18.5625C198.578 18.5625 199.441 19.5398 199.447 20.875H194.913ZM202.931 26H204.63V20.6705C204.63 19.5284 205.511 18.7045 206.715 18.7045C207.068 18.7045 207.465 18.767 207.602 18.8068V17.1818C207.431 17.1591 207.096 17.142 206.88 17.142C205.857 17.142 204.982 17.7216 204.664 18.6591H204.573V17.2727H202.931V26Z" fill="#C8C8C8"/>
</svg>
