<svg width="16" height="15" viewBox="0 0 16 15" fill="none" xmlns="http://www.w3.org/2000/svg">
<path d="M8.53846 4.25V3.4C8.53846 2.55992 8.53846 2.13988 8.37497 1.81901C8.23116 1.53677 8.00169 1.3073 7.71945 1.16349C7.39858 1 6.97854 1 6.13846 1H3.4C2.55992 1 2.13988 1 1.81901 1.16349C1.53677 1.3073 1.3073 1.53677 1.16349 1.81901C0.999999 2.13988 0.999999 2.55992 0.999999 3.4V11.6C0.999999 12.4401 0.999999 12.8601 1.16349 13.181C1.3073 13.4632 1.53677 13.6927 1.81901 13.8365C2.13988 14 2.55992 14 3.4 14H6.13846C6.97854 14 7.39858 14 7.71945 13.8365C8.00169 13.6927 8.23116 13.4632 8.37497 13.181C8.53846 12.8601 8.53846 12.4401 8.53846 11.6V10.75M5.30769 7.5H15M15 7.5L11.7692 10.75M15 7.5L11.7692 4.25" stroke="#D2302E" stroke-width="1.8" stroke-linecap="round" stroke-linejoin="round"/>
</svg>
