<svg width="24" height="24" viewBox="0 0 24 24" fill="none" xmlns="http://www.w3.org/2000/svg">
<path d="M9.90831 3.72142C10.3565 1.42408 13.6434 1.42408 14.0916 3.72142C14.3643 5.11939 15.9053 5.86148 17.1683 5.20309C19.2439 4.12112 21.2932 6.69092 19.7765 8.47369C18.8536 9.55854 19.2342 11.226 20.5364 11.803C22.6764 12.7511 21.945 15.9556 19.6055 15.8813C18.1819 15.8362 17.1155 17.1734 17.4764 18.5512C18.0694 20.8155 15.108 22.2416 13.7074 20.3663C12.8551 19.2251 11.1448 19.2251 10.2925 20.3663C8.89191 22.2416 5.93053 20.8155 6.52351 18.5512C6.88434 17.1734 5.81796 15.8362 4.39436 15.8813C2.05488 15.9556 1.32348 12.7511 3.4635 11.803C4.76572 11.226 5.14631 9.55854 4.22338 8.47369C2.70668 6.69092 4.75602 4.12112 6.8316 5.20309C8.09462 5.86148 9.63558 5.11939 9.90831 3.72142Z" stroke="#C5C5C5" stroke-width="1.8"/>
<path d="M14.9999 12C14.9999 13.6569 13.6568 15 11.9999 15C10.3431 15 8.99994 13.6569 8.99994 12C8.99994 10.3431 10.3431 9 11.9999 9C13.6568 9 14.9999 10.3431 14.9999 12Z" stroke="#C5C5C5" stroke-width="1.8"/>
</svg>
