<svg width="24" height="24" viewBox="0 0 24 24" fill="none" xmlns="http://www.w3.org/2000/svg">
<path d="M20.0424 7.69865C19.4601 8.30816 19.1861 9.14539 19.2792 9.99097L15.6239 13.5718L15.274 9.57436C15.3194 9.53543 15.363 9.49429 15.4045 9.4509C15.7242 9.11618 15.9226 8.65396 15.9231 8.1441C15.9236 7.64967 15.7403 7.1846 15.407 6.83468C15.0737 6.48477 14.6304 6.29196 14.1587 6.29169L12.8309 6.29106C12.7719 6.22424 12.7116 6.15801 12.6508 6.09416C9.99296 3.30384 5.66388 3.30166 3.00051 6.08933C0.337131 8.87699 0.332576 13.415 2.9904 16.2054C3.89537 17.1555 5.02111 17.8123 6.25935 18.1151L6.16701 19.1461C6.12462 19.6193 6.27528 20.0922 6.58034 20.4435C6.8854 20.7949 7.32036 20.9966 7.77367 20.9968L14.5025 21C14.9309 21.0002 15.3432 20.8205 15.6452 20.5044C15.6627 20.4861 15.6798 20.4674 15.6965 20.4481C16.0021 20.0972 16.1537 19.6246 16.1123 19.1516L16.0737 18.7104C16.0894 18.6964 16.1046 18.6816 16.1189 18.6655L21.6561 12.4821C22.4612 12.5793 23.2586 12.2932 23.8395 11.6851C24.0533 11.4615 24.0535 11.0985 23.8401 10.8745L20.8158 7.69924C20.6024 7.47524 20.2561 7.47496 20.0424 7.69865ZM14.6331 7.64479C14.7599 7.7779 14.8296 7.95482 14.8294 8.14292C14.8291 8.53088 14.5277 8.84629 14.1576 8.8461L8.35089 8.8433C8.17147 8.84321 8.00281 8.76987 7.876 8.63674C7.74919 8.5036 7.67949 8.32674 7.67968 8.13861C7.67987 7.94464 7.7553 7.76881 7.87693 7.6415C7.9986 7.51416 8.16647 7.43533 8.35148 7.43546L14.1582 7.43826C14.3377 7.43835 14.5063 7.51169 14.6331 7.64479ZM3.76434 15.3954C1.53263 13.0524 1.53663 9.24162 3.77326 6.90062C5.79352 4.78609 8.95479 4.58315 11.1922 6.29034L8.35203 6.28897C7.37935 6.28849 6.58707 7.11769 6.58601 8.13741C6.58554 8.60119 6.74672 9.03906 7.04176 9.38035L6.36279 16.9602C5.3811 16.6914 4.48856 16.1557 3.76434 15.3954ZM14.8888 19.6752C14.7886 19.7905 14.6516 19.8536 14.503 19.8535L7.77415 19.8503C7.62577 19.8502 7.48901 19.7868 7.3892 19.6718C7.28935 19.5568 7.24202 19.4082 7.2559 19.2532L8.08751 9.96936C8.17378 9.98281 8.2616 9.98971 8.35044 9.98978L14.1571 9.99259C14.1756 9.9926 14.1939 9.99172 14.2122 9.99114L15.0231 19.2563C15.0367 19.4113 14.989 19.5601 14.8888 19.6752ZM22.6106 11.2063C22.2963 11.3567 21.9382 11.3952 21.5862 11.307C21.3954 11.2592 21.1945 11.3225 21.0604 11.4722L15.9405 17.1896L15.7504 15.0171L20.2419 10.6171C20.3856 10.4758 20.4462 10.2654 20.4004 10.0647C20.3157 9.69448 20.3528 9.31781 20.4973 8.98758L22.6106 11.2063Z" fill="#858585"/>
<path fill-rule="evenodd" clip-rule="evenodd" d="M14.1429 6.26141C14.64 6.26169 15.1073 6.46439 15.4578 6.83103C15.8082 7.19758 16.0008 7.68483 16.0003 8.20178C15.9997 8.73522 15.7913 9.21926 15.4551 9.56984C15.4251 9.6012 15.394 9.63141 15.362 9.66045L15.6831 13.3155L19.0997 9.9809C19.0217 9.13253 19.3045 8.29604 19.8919 7.68345C20.1467 7.41776 20.5605 7.41811 20.8149 7.68415L20.7363 7.76268C20.525 7.54164 20.182 7.54137 19.9704 7.7621C19.3936 8.36355 19.1222 9.18972 19.2145 10.0241L15.594 13.5576L15.2475 9.61303C15.2925 9.57461 15.3356 9.53401 15.3767 9.49119C15.6934 9.1609 15.8899 8.70478 15.8904 8.20166C15.8909 7.71376 15.7094 7.25484 15.3793 6.90955C15.0492 6.56426 14.6101 6.374 14.1429 6.37373L12.8278 6.37311C12.7693 6.30717 12.7096 6.24182 12.6494 6.17881C10.0169 3.42537 5.72917 3.42322 3.09124 6.17404C0.453301 8.92487 0.44879 13.4029 3.08123 16.1565C3.97756 17.094 5.09255 17.7421 6.31896 18.0409L6.2275 19.0583C6.18551 19.5252 6.33474 19.9918 6.63688 20.3386C6.93903 20.6853 7.36983 20.8843 7.81881 20.8845L14.4834 20.8877C14.9077 20.8879 15.316 20.7106 15.6151 20.3987C15.6325 20.3806 15.6494 20.3621 15.666 20.3431C15.9687 19.9968 16.1188 19.5305 16.0778 19.0637L16.0396 18.6284C16.0551 18.6146 16.0702 18.6 16.0844 18.584L21.5687 12.4823C22.366 12.5783 23.1558 12.2959 23.7312 11.6959C23.9429 11.4752 23.9432 11.117 23.7318 10.8959L20.7363 7.76268L20.8149 7.68415L23.8104 10.8174C24.0635 11.0822 24.0632 11.5102 23.8097 11.7746C23.2241 12.3852 22.4242 12.6805 21.6121 12.6L16.1655 18.6597L16.1515 18.6471L16.1537 18.6726M16.1537 18.6726L16.1872 19.0536C16.2309 19.5511 16.0711 20.0483 15.7479 20.418C15.7302 20.4381 15.7121 20.458 15.6936 20.4773C15.3741 20.8104 14.9376 21.0002 14.4833 21L7.81876 20.9968C7.33807 20.9966 6.87758 20.7836 6.55488 20.4133C6.23227 20.0431 6.07338 19.5455 6.11812 19.048L6.20092 18.1269C4.99054 17.8135 3.89072 17.1639 3.00269 16.235C0.328435 13.4377 0.333073 8.88982 3.01281 6.0954C5.69382 3.29966 10.0524 3.30178 12.7279 6.10029C12.778 6.15268 12.8276 6.20653 12.8763 6.26081L14.1429 6.26141M16.1515 18.6471L16.149 18.6183L16.1236 18.6206M8.39103 7.61471C8.23897 7.61461 8.10052 7.67901 7.99951 7.78435C7.89849 7.88969 7.83572 8.03526 7.83555 8.19636C7.8354 8.35296 7.89343 8.49915 7.9987 8.60927C8.10389 8.71929 8.24276 8.77922 8.39057 8.7793L14.1418 8.78206C14.4456 8.78222 14.697 8.52344 14.6973 8.2004C14.6975 8.04381 14.6394 7.89756 14.5342 7.78748C14.429 7.67748 14.2902 7.61755 14.1423 7.61747L8.39103 7.61471ZM14.7841 19.5055C14.8629 19.4154 14.9004 19.2994 14.8896 19.1771L14.0956 10.138L8.39002 10.1353C8.33588 10.1352 8.28205 10.1328 8.2287 10.128L7.41537 19.1743C7.40437 19.2965 7.4416 19.4123 7.52002 19.5023C7.5983 19.5922 7.70407 19.6408 7.81934 19.6408L14.4839 19.644C14.5995 19.6441 14.7055 19.5956 14.7841 19.5055ZM7.30599 19.164C7.29224 19.3169 7.33911 19.4636 7.43802 19.5771C7.53687 19.6905 7.67232 19.7531 7.81929 19.7531L14.4839 19.7563C14.631 19.7564 14.7667 19.6941 14.866 19.5803C14.9652 19.4668 15.0125 19.32 14.999 19.167L14.1959 10.0243C14.1913 10.0244 14.1868 10.0246 14.1823 10.0248C14.1686 10.0252 14.155 10.0257 14.1413 10.0257L8.39007 10.023C8.33927 10.0229 8.28879 10.0206 8.23876 10.0161C8.20215 10.0129 8.16576 10.0084 8.12966 10.0028L7.30599 19.164ZM20.168 10.642L15.7193 14.9838L15.9077 17.1277L20.9786 11.4858C21.1114 11.3381 21.3104 11.2756 21.4994 11.3228C21.808 11.3998 22.1214 11.3789 22.4051 11.2701C22.442 11.256 22.4783 11.2404 22.514 11.2234L20.4209 9.03399C20.4045 9.0713 20.3895 9.10921 20.3759 9.14764C20.2709 9.44489 20.2507 9.77338 20.3249 10.0969C20.3703 10.2949 20.3103 10.5026 20.168 10.642ZM20.462 9.23763C20.3795 9.50046 20.3667 9.78754 20.4318 10.0712C20.4861 10.3076 20.4145 10.556 20.244 10.7231L15.8335 15.0277L15.9948 16.8647L20.8978 11.4098C21.0572 11.2324 21.297 11.1566 21.5255 11.2137C21.796 11.2812 22.0698 11.2678 22.3206 11.1817L20.462 9.23763ZM8.3911 7.50238C8.20786 7.50226 8.04159 7.58005 7.92109 7.7057C7.80061 7.83133 7.72591 8.00484 7.72572 8.19624C7.72553 8.38189 7.79457 8.55642 7.92016 8.68779C8.04576 8.81916 8.21281 8.89153 8.39052 8.89162L14.1418 8.89439C14.5083 8.89458 14.8068 8.58333 14.8072 8.2005C14.8073 8.01488 14.7383 7.8403 14.6127 7.70895C14.4872 7.57761 14.3201 7.50524 14.1423 7.50515L8.3911 7.50238ZM3.93503 7.05327C1.76157 9.31974 1.75775 13.0103 3.92632 15.2786C4.59894 15.9822 5.42055 16.4866 6.3241 16.7568L6.98024 9.45889C6.69001 9.10695 6.53219 8.66312 6.53266 8.19494C6.53377 7.12892 7.3655 6.25821 8.3917 6.25872L10.8543 6.2599C8.70495 4.83129 5.81282 5.09511 3.93503 7.05327ZM11.0516 6.26C8.84632 4.69789 5.8119 4.93565 3.85661 6.97462C1.64134 9.28468 1.63739 13.0451 3.84778 15.3571C4.53854 16.0797 5.38391 16.5966 6.31385 16.8707C6.34958 16.8812 6.38544 16.8914 6.42141 16.9012L7.0939 9.42158C6.80168 9.0848 6.64204 8.65272 6.6425 8.19506C6.64354 7.18881 7.42825 6.37057 8.39165 6.37105L11.2047 6.37239C11.1541 6.33395 11.1031 6.29648 11.0516 6.26Z" fill="#858585"/>
</svg>
