<svg width="24" height="24" viewBox="0 0 24 24" fill="none" xmlns="http://www.w3.org/2000/svg">
<g clip-path="url(#clip0)">
<path d="M16.0492 12.7196C14.9692 11.0349 13.1299 10.0289 11.1289 10.0289C9.12814 10.0289 7.28866 11.0349 6.20889 12.7196L3.6066 16.7793C3.17483 17.4529 2.97561 18.2309 3.03036 19.0291C3.08511 19.8274 3.38888 20.5708 3.90872 21.1793C4.42892 21.7876 5.1163 22.2032 5.89651 22.3815C6.67672 22.5597 7.47653 22.4837 8.20932 22.1616L8.25711 22.1404C10.1012 21.3455 12.2089 21.3527 14.0484 22.1616C14.5228 22.3702 15.0254 22.4757 15.5326 22.4757C15.8084 22.4757 16.0858 22.4444 16.3606 22.3817C17.1408 22.2036 17.8282 21.7879 18.3486 21.1796C18.8686 20.5714 19.1726 19.8278 19.2275 19.0294C19.2824 18.2309 19.0832 17.4529 18.6515 16.7791L16.0492 12.7196ZM17.2794 20.2652C16.6175 21.039 15.5467 21.2836 14.6147 20.8739C13.5069 20.3866 12.3178 20.1431 11.1284 20.1431C9.94003 20.1431 8.75113 20.3864 7.64407 20.8731L7.61258 20.887C6.68771 21.2782 5.63266 21.0304 4.97806 20.2652C4.31686 19.4912 4.24161 18.3955 4.79092 17.5384L7.3934 13.4788C8.21335 12.1996 9.60971 11.4359 11.1289 11.4359C12.6482 11.4359 14.0447 12.1996 14.8648 13.4788L17.4669 17.5382C18.0164 18.3957 17.941 19.4916 17.2794 20.2652Z" fill="#C5C5C5"/>
<path d="M4.30758 12.7143C5.08175 12.417 5.66988 11.7931 5.96376 10.9576C6.24318 10.1626 6.2203 9.265 5.89895 8.43004C5.57741 7.59563 4.99257 6.91448 4.25228 6.51183C3.47426 6.08904 2.61971 6.02019 1.84682 6.3181C0.29189 6.91594 -0.421672 8.83745 0.256367 10.6024C0.797993 12.0072 2.06124 12.894 3.3384 12.894C3.66451 12.894 3.99154 12.8361 4.30758 12.7143ZM1.56923 10.097C1.1697 9.05699 1.52071 7.95067 2.35219 7.63097C2.50234 7.57311 2.66109 7.54436 2.82314 7.54436C3.07326 7.54436 3.33162 7.61266 3.58028 7.74797C4.02742 7.99095 4.38466 8.41283 4.58608 8.93559C4.78731 9.45873 4.80526 10.011 4.63643 10.4909C4.48171 10.9307 4.18563 11.2541 3.80294 11.4011L3.8022 11.4015C2.97182 11.7215 1.97005 11.1362 1.56923 10.097Z" fill="#C5C5C5"/>
<path d="M9.35687 9.53375C11.3007 9.53375 12.8822 7.73199 12.8822 5.51733C12.8822 3.30212 11.3007 1.5 9.35687 1.5C7.41321 1.5 5.83191 3.30212 5.83191 5.51733C5.83191 7.73199 7.41321 9.53375 9.35687 9.53375ZM9.35687 2.9068C10.5249 2.9068 11.4754 4.07794 11.4754 5.51733C11.4754 6.95618 10.5249 8.12695 9.35687 8.12695C8.18884 8.12695 7.23871 6.95618 7.23871 5.51733C7.23871 4.07794 8.18884 2.9068 9.35687 2.9068Z" fill="#C5C5C5"/>
<path d="M15.4452 10.5205H15.4454C15.7444 10.6198 16.0494 10.6672 16.3532 10.6672C17.7708 10.6672 19.1523 9.63539 19.6795 8.0497C19.9831 7.13692 19.9631 6.17177 19.6233 5.33223C19.2677 4.45351 18.6087 3.81557 17.7675 3.53578C16.9263 3.25636 16.0161 3.37282 15.2051 3.86391C14.4304 4.3332 13.8368 5.09419 13.5337 6.00697C12.8938 7.93251 13.7513 9.95729 15.4452 10.5205ZM14.8688 6.45064C15.0667 5.85463 15.445 5.36354 15.9341 5.06727C16.3865 4.79317 16.8802 4.7234 17.3238 4.8708C17.7673 5.01839 18.1207 5.36958 18.3192 5.85994C18.5336 6.38985 18.5428 7.00984 18.3445 7.60585C17.9491 8.7953 16.8476 9.50392 15.889 9.1855C14.9312 8.8669 14.4734 7.64009 14.8688 6.45064Z" fill="#C5C5C5"/>
<path d="M22.8691 10.0518L22.8685 10.0512C21.528 9.06098 19.5232 9.49018 18.3991 11.0085C17.2761 12.5275 17.4517 14.5697 18.7902 15.5607C19.2784 15.9223 19.8552 16.0952 20.4455 16.0952C21.4744 16.0952 22.5448 15.57 23.2602 14.6043C24.3832 13.0853 24.2078 11.0431 22.8691 10.0518ZM22.1295 13.7673C21.4658 14.6633 20.3435 14.9605 19.6274 14.43C18.9118 13.9003 18.8682 12.7405 19.5302 11.8451C19.9702 11.2507 20.6129 10.9201 21.2052 10.9201C21.5048 10.9201 21.7915 11.0046 22.0325 11.1828C22.7475 11.7131 22.7909 12.8725 22.1295 13.7673Z" fill="#C5C5C5"/>
</g>
<defs>
<clipPath id="clip0">
<rect width="24" height="24" fill="white"/>
</clipPath>
</defs>
</svg>
