<svg width="28" height="24" viewBox="0 0 28 24" fill="none" xmlns="http://www.w3.org/2000/svg">
<path d="M27.0832 7.79152L22.003 0.369255C21.8444 0.137746 21.5856 0 21.309 0H6.20921C5.94024 0 5.6874 0.130245 5.52793 0.351412L0.165368 7.77368C0.0580904 7.92245 0 8.10225 0 8.28705C0 9.99887 1.22268 11.4217 2.82206 11.701V21.3099C2.82206 22.7931 4.00378 24 5.45615 24H21.9908C23.4431 24 24.6246 22.7931 24.6246 21.3099V11.6431C25.98 11.2879 27.0121 10.1007 27.1591 8.64653C27.2836 8.36888 27.2556 8.04349 27.0832 7.79152ZM20.0392 22.2708H16.5112V14.8845H20.0392V22.2708ZM22.9311 21.3101C22.9314 21.8399 22.5092 22.2708 21.9911 22.2708H21.7326V14.0199C21.7326 13.5423 21.3535 13.1551 20.8858 13.1551H15.6645C15.1969 13.1551 14.8177 13.5422 14.8177 14.0199V22.2708H5.45615C4.93735 22.2708 4.51547 21.8398 4.51547 21.3101V11.5585C5.07122 11.3593 5.56199 11.0181 5.94358 10.5757C6.56621 11.298 7.47808 11.7542 8.49188 11.7542C9.50567 11.7542 10.4175 11.2979 11.0402 10.5757C11.6628 11.298 12.5747 11.7542 13.5885 11.7542C14.6026 11.7542 15.5145 11.2979 16.1371 10.5757C16.7597 11.298 17.6716 11.7542 18.6854 11.7542C19.6992 11.7542 20.6111 11.2979 21.2337 10.5757C21.6754 11.0881 22.2647 11.4628 22.9311 11.6396V21.3101ZM23.7824 10.0249C22.8443 10.0249 22.0808 9.24525 22.0808 8.28705C22.0808 7.80948 21.7018 7.42227 21.234 7.42227C20.7664 7.42227 20.3873 7.80937 20.3873 8.28705C20.3873 9.24547 19.6239 10.0249 18.6856 10.0249C17.7474 10.0249 16.984 9.24525 16.984 8.28705C16.984 7.80948 16.6049 7.42227 16.1372 7.42227C15.6696 7.42227 15.2905 7.80937 15.2905 8.28705C15.2905 9.24547 14.527 10.0249 13.5886 10.0249C12.6501 10.0249 11.8869 9.24525 11.8869 8.28705C11.8869 7.80948 11.5079 7.42227 11.0402 7.42227C10.5724 7.42227 10.1934 7.80937 10.1934 8.28705C10.1934 9.24547 9.43 10.0249 8.49176 10.0249C7.55353 10.0249 6.79012 9.24525 6.79012 8.28705C6.79012 7.80948 6.41108 7.42227 5.94336 7.42227C5.47563 7.42227 5.09659 7.80937 5.09659 8.28705C5.09659 9.24547 4.33318 10.0249 3.39495 10.0249C2.54262 10.0249 1.83474 9.38186 1.712 8.5456L6.63643 1.72956H20.868L25.4758 8.4615C25.3897 9.33833 24.663 10.0249 23.7824 10.0249Z" fill="#C5C5C5"/>
<path d="M12.4783 13.1552H6.70308C6.23547 13.1552 5.85632 13.5423 5.85632 14.02V19.4248C5.85632 19.9024 6.23536 20.2896 6.70308 20.2896H12.4782C12.9458 20.2896 13.3249 19.9025 13.3249 19.4248V14.02C13.3249 13.5423 12.9459 13.1552 12.4783 13.1552ZM11.6315 18.56H7.54985V14.8846H11.6315V18.56Z" fill="#C5C5C5"/>
</svg>
