<svg width="24" height="24" viewBox="0 0 24 24" fill="none" xmlns="http://www.w3.org/2000/svg">
<path d="M9.47101 16.7816L9.47083 16.7814C9.24806 16.56 9.24642 16.1997 9.46754 15.9767C9.68908 15.7533 10.0494 15.7518 10.2728 15.9733C10.4958 16.1945 10.4972 16.5547 10.2763 16.778L10.2761 16.7782C10.0546 17.001 9.6944 17.0026 9.47101 16.7816Z" fill="#858585" stroke="#858585" stroke-width="0.2"/>
<path d="M22.2677 7.90524C21.604 7.64934 20.783 7.45655 19.9236 7.34864C20.5885 6.58908 21.113 5.79403 21.429 5.05697C21.8857 3.9915 21.8622 3.12975 21.3631 2.63058C20.8639 2.13108 20.002 2.10745 18.9365 2.56411C18.1993 2.88005 17.4041 3.40453 16.6443 4.06959C16.5364 3.21094 16.3435 2.39105 16.0877 1.72866C15.5358 0.299906 14.8634 0 14.3963 0C13.8973 0 13.1852 0.332203 12.627 1.91489C12.1682 3.21544 11.9365 5.05059 12.1068 6.78595C10.7595 6.57998 9.52716 7.04878 8.58239 8.14453C5.33245 11.9141 2.84812 15.3507 1.39809 18.0828C-0.0579395 20.8263 -0.378612 22.6607 0.445076 23.535C0.451451 23.5419 0.458061 23.5485 0.464857 23.5549C1.67034 24.6904 4.44431 23.3836 5.91727 22.6019C8.64961 21.1517 12.0861 18.6675 15.8554 15.4176C16.9532 14.4713 17.4216 13.2366 17.2131 11.8868C18.9529 12.0571 20.7875 11.8221 22.0815 11.3665C23.6671 10.8083 24 10.0961 24 9.597C24 9.12994 23.6994 8.45724 22.2677 7.90524ZM19.306 3.42652C19.955 3.14836 20.5019 3.09633 20.6994 3.294C20.8969 3.49144 20.8447 4.03833 20.5665 4.68731C19.7929 6.49209 17.6304 8.56992 15.9386 9.20588C15.7717 9.00113 15.5901 8.80017 15.3955 8.60597C15.1983 8.40844 14.9945 8.22431 14.787 8.05542C15.4225 6.36497 17.4983 4.20127 19.306 3.42652ZM13.475 2.34572C13.7592 1.48102 14.1157 0.938297 14.3963 0.938297C14.5278 0.938297 14.8676 1.17408 15.2123 2.06667C15.5114 2.84105 15.716 3.86536 15.7813 4.90374C14.9788 5.75897 14.3551 6.67041 13.9999 7.49827C13.6978 7.31555 13.391 7.1648 13.0818 7.04681C12.8414 5.25548 13.0928 3.5092 13.475 2.34572ZM15.2427 14.7069C11.5256 17.9118 8.14884 20.3552 5.47739 21.773C3.68976 22.7218 2.48962 23.0633 1.7819 23.0633C1.4648 23.0633 1.2464 22.9947 1.11858 22.8814C0.752389 22.4683 0.853076 21.1113 2.22694 18.5228C3.64467 15.8515 6.08808 12.4746 9.29306 8.75728C10.8402 6.96291 13.0634 7.59806 14.7321 9.26949C16.4174 10.9518 17.0243 13.1712 15.2427 14.7069ZM21.7699 10.4815C20.508 10.9258 18.6589 11.1399 16.9508 10.9117C16.8322 10.6022 16.6805 10.295 16.4969 9.99244C17.3247 9.63708 18.2357 9.01345 19.0898 8.21166C20.1287 8.27695 21.1542 8.48161 21.9302 8.78081C22.8253 9.12586 23.0618 9.4657 23.0618 9.59709C23.0617 9.74559 22.7917 10.1217 21.7699 10.4815Z" fill="#858585"/>
<path d="M3.07029 18.2155L3.07027 18.2155C2.84723 17.9942 2.84564 17.6338 3.0669 17.4107L3.06691 17.4107C3.2882 17.1875 3.64861 17.1859 3.87184 17.4073L5.2042 18.7285L5.20421 18.7285C5.4273 18.9498 5.4289 19.3102 5.20758 19.5334C4.98628 19.7565 4.62588 19.7581 4.40265 19.5367L3.07029 18.2155Z" fill="#858585" stroke="#858585" stroke-width="0.2"/>
<path d="M8.44887 18.1222L7.11651 16.801L8.44887 18.1222ZM8.44887 18.1222C8.63283 18.3047 8.63408 18.6017 8.45166 18.7857L8.44887 18.1222ZM7.71775 18.8595L7.71774 18.8595L6.38537 17.5383L6.38536 17.5383C6.16224 17.317 6.16074 16.9566 6.38197 16.7334L6.38199 16.7334C6.6033 16.5102 6.9637 16.5087 7.18691 16.73L7.18692 16.73L8.51929 18.0512L8.51929 18.0512C8.74246 18.2726 8.74397 18.6329 8.52268 18.8561L8.52267 18.8561C8.30135 19.0793 7.941 19.0808 7.71775 18.8595Z" fill="#858585" stroke="#858585" stroke-width="0.2"/>
<path d="M8.36679 15.5392L8.36678 15.5392L7.03442 14.218L7.03441 14.218C6.81129 13.9967 6.80979 13.6363 7.03102 13.4131L7.03104 13.4131C7.25235 13.1899 7.61275 13.1884 7.83596 13.4097L7.83597 13.4097L9.16833 14.7309L9.16834 14.7309C9.3915 14.9523 9.39302 15.3126 9.17173 15.5358L9.17172 15.5358C8.95041 15.759 8.59001 15.7605 8.36679 15.5392Z" fill="#858585" stroke="#858585" stroke-width="0.2"/>
<path d="M11.6815 14.8619L11.6814 14.8618L10.3491 13.5402C10.3491 13.5402 10.3491 13.5402 10.3491 13.5402C10.1259 13.3189 10.1245 12.9585 10.3458 12.7353L10.3458 12.7353C10.5672 12.5121 10.9276 12.5107 11.1507 12.732L11.1507 12.732L12.4831 14.0537C12.4831 14.0537 12.4831 14.0537 12.4831 14.0537C12.7062 14.275 12.7077 14.6354 12.4864 14.8586C12.265 15.0818 11.9046 15.0831 11.6815 14.8619Z" fill="#858585" stroke="#858585" stroke-width="0.2"/>
<path d="M12.9974 12.2023L12.9974 12.2023L11.6645 10.8806L11.6645 10.8806C11.4414 10.6593 11.4399 10.2989 11.6611 10.0757L11.6612 10.0757C11.8825 9.8525 12.2429 9.851 12.4661 10.0723L12.4661 10.0723L13.7989 11.394L13.7989 11.394C14.0221 11.6153 14.0236 11.9757 13.8023 12.1989L13.8023 12.1989C13.581 12.4221 13.2206 12.4236 12.9974 12.2023Z" fill="#858585" stroke="#858585" stroke-width="0.2"/>
</svg>
