<svg width="326" height="19" viewBox="0 0 326 19" fill="none" xmlns="http://www.w3.org/2000/svg">
<g filter="url(#filter0_d)">
<rect x="8.25" y="9.25" width="91.5" height="0.5" rx="0.25" stroke="#CBCBCB" stroke-width="0.5"/>
</g>
<g filter="url(#filter1_d)">
<rect x="226.25" y="9.25" width="91.5" height="0.5" rx="0.25" stroke="#CBCBCB" stroke-width="0.5"/>
</g>
<path d="M120.289 8.974C120.289 9.72533 120.167 10.416 119.925 11.046C119.687 11.6713 119.348 12.2127 118.91 12.67C118.471 13.1227 117.946 13.475 117.335 13.727C116.723 13.979 116.044 14.105 115.298 14.105C114.556 14.105 113.877 13.979 113.261 13.727C112.649 13.475 112.124 13.1227 111.686 12.67C111.252 12.2127 110.913 11.6713 110.671 11.046C110.428 10.416 110.307 9.72533 110.307 8.974C110.307 8.22733 110.428 7.539 110.671 6.909C110.913 6.279 111.252 5.73767 111.686 5.285C112.124 4.82767 112.649 4.473 113.261 4.221C113.877 3.96433 114.556 3.836 115.298 3.836C116.044 3.836 116.723 3.96433 117.335 4.221C117.946 4.473 118.471 4.82767 118.91 5.285C119.348 5.73767 119.687 6.279 119.925 6.909C120.167 7.539 120.289 8.22733 120.289 8.974ZM118.763 8.974C118.763 8.37667 118.681 7.84 118.518 7.364C118.354 6.888 118.121 6.48433 117.818 6.153C117.519 5.82167 117.155 5.56733 116.726 5.39C116.301 5.21267 115.825 5.124 115.298 5.124C114.77 5.124 114.292 5.21267 113.863 5.39C113.438 5.56733 113.074 5.82167 112.771 6.153C112.467 6.48433 112.234 6.888 112.071 7.364C111.907 7.84 111.826 8.37667 111.826 8.974C111.826 9.576 111.907 10.115 112.071 10.591C112.234 11.0623 112.467 11.4637 112.771 11.795C113.074 12.1263 113.438 12.3807 113.863 12.558C114.292 12.7307 114.77 12.817 115.298 12.817C115.825 12.817 116.301 12.7307 116.726 12.558C117.155 12.3807 117.519 12.1263 117.818 11.795C118.121 11.4637 118.354 11.0623 118.518 10.591C118.681 10.115 118.763 9.576 118.763 8.974ZM123.352 8.253C123.581 7.78633 123.856 7.42 124.178 7.154C124.5 6.888 124.888 6.755 125.34 6.755C125.494 6.755 125.639 6.77367 125.774 6.811C125.914 6.84367 126.036 6.895 126.138 6.965L126.047 7.994C126.015 8.12 125.938 8.183 125.816 8.183C125.751 8.183 125.653 8.17133 125.522 8.148C125.392 8.12 125.252 8.106 125.102 8.106C124.883 8.106 124.689 8.13867 124.521 8.204C124.353 8.26467 124.202 8.358 124.066 8.484C123.936 8.60533 123.819 8.757 123.716 8.939C123.614 9.11633 123.518 9.31933 123.429 9.548V14H122.064V6.888H122.848C122.998 6.888 123.098 6.916 123.149 6.972C123.205 7.02333 123.245 7.11667 123.268 7.252L123.352 8.253ZM136.056 8.218C136.014 8.26933 135.972 8.31133 135.93 8.344C135.892 8.372 135.836 8.386 135.762 8.386C135.687 8.386 135.608 8.358 135.524 8.302C135.444 8.24133 135.342 8.17833 135.216 8.113C135.094 8.043 134.945 7.98 134.768 7.924C134.595 7.86333 134.38 7.833 134.124 7.833C133.788 7.833 133.491 7.89367 133.235 8.015C132.978 8.13633 132.763 8.309 132.591 8.533C132.423 8.757 132.294 9.03 132.206 9.352C132.117 9.674 132.073 10.0357 132.073 10.437C132.073 10.8523 132.119 11.2233 132.213 11.55C132.306 11.872 132.439 12.145 132.612 12.369C132.784 12.5883 132.994 12.7563 133.242 12.873C133.489 12.985 133.764 13.041 134.068 13.041C134.362 13.041 134.604 13.006 134.796 12.936C134.987 12.8613 135.146 12.782 135.272 12.698C135.398 12.614 135.503 12.537 135.587 12.467C135.671 12.3923 135.757 12.355 135.846 12.355C135.958 12.355 136.044 12.397 136.105 12.481L136.497 12.985C136.333 13.1857 136.149 13.356 135.944 13.496C135.743 13.636 135.528 13.7503 135.3 13.839C135.071 13.9277 134.831 13.993 134.579 14.035C134.331 14.077 134.079 14.098 133.823 14.098C133.379 14.098 132.964 14.0163 132.577 13.853C132.194 13.6897 131.86 13.4517 131.576 13.139C131.296 12.8263 131.074 12.4437 130.911 11.991C130.747 11.5337 130.666 11.0157 130.666 10.437C130.666 9.90967 130.738 9.422 130.883 8.974C131.032 8.526 131.249 8.141 131.534 7.819C131.823 7.49233 132.178 7.238 132.598 7.056C133.018 6.86933 133.498 6.776 134.04 6.776C134.548 6.776 134.996 6.85767 135.384 7.021C135.771 7.18433 136.116 7.41533 136.42 7.714L136.056 8.218ZM140.999 6.776C141.521 6.776 141.993 6.86233 142.413 7.035C142.837 7.203 143.197 7.448 143.491 7.77C143.789 8.08733 144.018 8.47233 144.177 8.925C144.335 9.373 144.415 9.877 144.415 10.437C144.415 10.997 144.335 11.5033 144.177 11.956C144.018 12.4087 143.789 12.7937 143.491 13.111C143.197 13.4283 142.837 13.6733 142.413 13.846C141.993 14.014 141.521 14.098 140.999 14.098C140.471 14.098 139.995 14.014 139.571 13.846C139.151 13.6733 138.791 13.4283 138.493 13.111C138.194 12.7937 137.963 12.4087 137.8 11.956C137.641 11.5033 137.562 10.997 137.562 10.437C137.562 9.877 137.641 9.373 137.8 8.925C137.963 8.47233 138.194 8.08733 138.493 7.77C138.791 7.448 139.151 7.203 139.571 7.035C139.995 6.86233 140.471 6.776 140.999 6.776ZM140.999 13.034C141.671 13.034 142.172 12.8077 142.504 12.355C142.835 11.9023 143.001 11.2653 143.001 10.444C143.001 9.62267 142.835 8.98567 142.504 8.533C142.172 8.07567 141.671 7.847 140.999 7.847C140.317 7.847 139.809 8.07567 139.473 8.533C139.141 8.98567 138.976 9.62267 138.976 10.444C138.976 11.2653 139.141 11.9023 139.473 12.355C139.809 12.8077 140.317 13.034 140.999 13.034ZM147.539 7.875C147.693 7.71167 147.854 7.56233 148.022 7.427C148.19 7.29167 148.368 7.17733 148.554 7.084C148.746 6.986 148.949 6.91133 149.163 6.86C149.383 6.804 149.616 6.776 149.863 6.776C150.255 6.776 150.598 6.84133 150.892 6.972C151.191 7.10267 151.441 7.287 151.641 7.525C151.842 7.75833 151.994 8.04067 152.096 8.372C152.199 8.70333 152.25 9.06967 152.25 9.471V14H150.878V9.471C150.878 8.96233 150.762 8.568 150.528 8.288C150.295 8.00333 149.938 7.861 149.457 7.861C149.107 7.861 148.778 7.945 148.47 8.113C148.167 8.27633 147.885 8.50033 147.623 8.785V14H146.258V6.888H147.077C147.269 6.888 147.388 6.979 147.434 7.161L147.539 7.875ZM161.058 14H159.686V7.994H156.116V12.159C156.116 12.439 156.183 12.649 156.319 12.789C156.459 12.9243 156.636 12.992 156.851 12.992C156.977 12.992 157.084 12.9757 157.173 12.943C157.266 12.9103 157.345 12.8753 157.411 12.838C157.476 12.796 157.532 12.7587 157.579 12.726C157.625 12.6933 157.667 12.677 157.705 12.677C157.751 12.677 157.786 12.6887 157.81 12.712C157.838 12.7307 157.866 12.7633 157.894 12.81L158.3 13.468C158.076 13.6733 157.81 13.832 157.502 13.944C157.194 14.056 156.874 14.112 156.543 14.112C155.969 14.112 155.525 13.951 155.213 13.629C154.905 13.307 154.751 12.8473 154.751 12.25V7.994H153.925C153.845 7.994 153.778 7.97067 153.722 7.924C153.67 7.87267 153.645 7.798 153.645 7.7V7.147L154.807 6.986L155.108 4.865C155.126 4.78567 155.161 4.725 155.213 4.683C155.269 4.63633 155.339 4.613 155.423 4.613H156.116V7H161.058V14ZM161.366 4.648C161.366 4.774 161.34 4.89533 161.289 5.012C161.237 5.124 161.167 5.22433 161.079 5.313C160.995 5.397 160.894 5.46467 160.778 5.516C160.661 5.56267 160.54 5.586 160.414 5.586C160.288 5.586 160.169 5.56267 160.057 5.516C159.945 5.46467 159.844 5.397 159.756 5.313C159.672 5.22433 159.604 5.124 159.553 5.012C159.506 4.89533 159.483 4.774 159.483 4.648C159.483 4.51733 159.506 4.39367 159.553 4.277C159.604 4.16033 159.672 4.06 159.756 3.976C159.844 3.88733 159.945 3.81967 160.057 3.773C160.169 3.72167 160.288 3.696 160.414 3.696C160.54 3.696 160.661 3.72167 160.778 3.773C160.894 3.81967 160.995 3.88733 161.079 3.976C161.167 4.06 161.237 4.16033 161.289 4.277C161.34 4.39367 161.366 4.51733 161.366 4.648ZM164.64 7.875C164.794 7.71167 164.955 7.56233 165.123 7.427C165.291 7.29167 165.469 7.17733 165.655 7.084C165.847 6.986 166.05 6.91133 166.264 6.86C166.484 6.804 166.717 6.776 166.964 6.776C167.356 6.776 167.699 6.84133 167.993 6.972C168.292 7.10267 168.542 7.287 168.742 7.525C168.943 7.75833 169.095 8.04067 169.197 8.372C169.3 8.70333 169.351 9.06967 169.351 9.471V14H167.979V9.471C167.979 8.96233 167.863 8.568 167.629 8.288C167.396 8.00333 167.039 7.861 166.558 7.861C166.208 7.861 165.879 7.945 165.571 8.113C165.268 8.27633 164.986 8.50033 164.724 8.785V14H163.359V6.888H164.178C164.37 6.888 164.489 6.979 164.535 7.161L164.64 7.875ZM177.428 6.888V14H176.609C176.423 14 176.301 13.909 176.245 13.727L176.147 13.013C175.993 13.1763 175.832 13.3257 175.664 13.461C175.496 13.5963 175.317 13.713 175.125 13.811C174.934 13.9043 174.731 13.9767 174.516 14.028C174.302 14.084 174.071 14.112 173.823 14.112C173.431 14.112 173.086 14.0467 172.787 13.916C172.493 13.7853 172.246 13.6033 172.045 13.37C171.845 13.132 171.693 12.8473 171.59 12.516C171.488 12.1847 171.436 11.8183 171.436 11.417V6.888H172.808V11.417C172.808 11.9257 172.925 12.3223 173.158 12.607C173.392 12.887 173.749 13.027 174.229 13.027C174.579 13.027 174.906 12.9453 175.209 12.782C175.513 12.614 175.797 12.3853 176.063 12.096V6.888H177.428ZM184.365 9.653C184.365 9.38233 184.325 9.13267 184.246 8.904C184.171 8.67533 184.059 8.477 183.91 8.309C183.76 8.141 183.578 8.01033 183.364 7.917C183.149 7.82367 182.902 7.777 182.622 7.777C182.048 7.777 181.595 7.94267 181.264 8.274C180.937 8.60533 180.729 9.065 180.641 9.653H184.365ZM185.492 12.985C185.324 13.181 185.13 13.3513 184.911 13.496C184.691 13.636 184.458 13.7503 184.211 13.839C183.963 13.9277 183.707 13.993 183.441 14.035C183.179 14.077 182.92 14.098 182.664 14.098C182.174 14.098 181.719 14.0163 181.299 13.853C180.883 13.685 180.522 13.4423 180.214 13.125C179.91 12.803 179.672 12.4063 179.5 11.935C179.332 11.459 179.248 10.913 179.248 10.297C179.248 9.80233 179.325 9.34267 179.479 8.918C179.633 8.48867 179.852 8.11533 180.137 7.798C180.426 7.48067 180.778 7.231 181.194 7.049C181.609 6.867 182.076 6.776 182.594 6.776C183.028 6.776 183.427 6.84833 183.791 6.993C184.159 7.133 184.477 7.33833 184.743 7.609C185.009 7.87967 185.216 8.21333 185.366 8.61C185.52 9.00667 185.597 9.45933 185.597 9.968C185.597 10.178 185.573 10.3203 185.527 10.395C185.48 10.465 185.394 10.5 185.268 10.5H180.606C180.62 10.9247 180.68 11.2957 180.788 11.613C180.895 11.9257 181.042 12.187 181.229 12.397C181.42 12.607 181.646 12.7633 181.908 12.866C182.169 12.9687 182.461 13.02 182.783 13.02C183.086 13.02 183.347 12.985 183.567 12.915C183.791 12.845 183.982 12.7703 184.141 12.691C184.304 12.607 184.439 12.53 184.547 12.46C184.659 12.39 184.757 12.355 184.841 12.355C184.953 12.355 185.039 12.397 185.1 12.481L185.492 12.985ZM200.849 6.888L198.56 14H197.468C197.337 14 197.248 13.9137 197.202 13.741L195.704 9.107C195.666 8.99033 195.634 8.876 195.606 8.764C195.578 8.64733 195.552 8.53067 195.529 8.414C195.487 8.65667 195.428 8.89233 195.354 9.121L193.835 13.741C193.788 13.9137 193.688 14 193.534 14H192.498L190.202 6.888H191.28C191.387 6.888 191.476 6.91367 191.546 6.965C191.62 7.01633 191.669 7.08167 191.693 7.161L192.974 11.529C193.016 11.7063 193.053 11.879 193.086 12.047C193.118 12.215 193.149 12.383 193.177 12.551C193.219 12.383 193.263 12.215 193.31 12.047C193.361 11.879 193.412 11.7063 193.464 11.529L194.885 7.133C194.908 7.05367 194.952 6.99067 195.018 6.944C195.083 6.89267 195.162 6.867 195.256 6.867H195.851C195.953 6.867 196.037 6.89267 196.103 6.944C196.173 6.99067 196.219 7.05367 196.243 7.133L197.629 11.529C197.68 11.7063 197.729 11.8813 197.776 12.054C197.822 12.222 197.864 12.3923 197.902 12.565C197.93 12.397 197.962 12.229 198 12.061C198.037 11.8883 198.079 11.711 198.126 11.529L199.428 7.161C199.451 7.08167 199.498 7.01633 199.568 6.965C199.642 6.91367 199.726 6.888 199.82 6.888H200.849ZM203.753 6.888V14H202.388V6.888H203.753ZM204.012 4.69C204.012 4.816 203.986 4.93733 203.935 5.054C203.883 5.166 203.813 5.26633 203.725 5.355C203.641 5.439 203.54 5.50667 203.424 5.558C203.307 5.60467 203.186 5.628 203.06 5.628C202.934 5.628 202.815 5.60467 202.703 5.558C202.591 5.50667 202.49 5.439 202.402 5.355C202.318 5.26633 202.25 5.166 202.199 5.054C202.152 4.93733 202.129 4.816 202.129 4.69C202.129 4.55933 202.152 4.438 202.199 4.326C202.25 4.20933 202.318 4.109 202.402 4.025C202.49 3.93633 202.591 3.86867 202.703 3.822C202.815 3.77067 202.934 3.745 203.06 3.745C203.186 3.745 203.307 3.77067 203.424 3.822C203.54 3.86867 203.641 3.93633 203.725 4.025C203.813 4.109 203.883 4.20933 203.935 4.326C203.986 4.438 204.012 4.55933 204.012 4.69ZM208.275 14.112C207.701 14.112 207.258 13.951 206.945 13.629C206.637 13.307 206.483 12.8473 206.483 12.25V7.994H205.657C205.578 7.994 205.51 7.97067 205.454 7.924C205.403 7.87267 205.377 7.798 205.377 7.7V7.147L206.532 6.986L206.84 4.865C206.859 4.78567 206.894 4.725 206.945 4.683C207.001 4.63633 207.071 4.613 207.155 4.613H207.848V7H209.864V7.994H207.848V12.159C207.848 12.439 207.916 12.649 208.051 12.789C208.191 12.9243 208.368 12.992 208.583 12.992C208.709 12.992 208.816 12.9757 208.905 12.943C208.998 12.9103 209.078 12.8753 209.143 12.838C209.208 12.796 209.264 12.7587 209.311 12.726C209.358 12.6933 209.4 12.677 209.437 12.677C209.484 12.677 209.519 12.6887 209.542 12.712C209.57 12.7307 209.598 12.7633 209.626 12.81L210.032 13.468C209.808 13.6733 209.542 13.832 209.234 13.944C208.926 14.056 208.606 14.112 208.275 14.112ZM212.806 7.791C213.105 7.48767 213.434 7.24267 213.793 7.056C214.157 6.86933 214.575 6.776 215.046 6.776C215.438 6.776 215.781 6.84133 216.075 6.972C216.374 7.10267 216.624 7.287 216.824 7.525C217.025 7.75833 217.177 8.04067 217.279 8.372C217.382 8.70333 217.433 9.06967 217.433 9.471V14H216.061V9.471C216.061 8.96233 215.945 8.568 215.711 8.288C215.478 8.00333 215.121 7.861 214.64 7.861C214.29 7.861 213.961 7.945 213.653 8.113C213.35 8.27633 213.068 8.50033 212.806 8.785V14H211.441V3.668H212.806V7.791Z" fill="#AFAFAF"/>
<defs>
<filter id="filter0_d" x="0" y="2" width="108" height="17" filterUnits="userSpaceOnUse" color-interpolation-filters="sRGB">
<feFlood flood-opacity="0" result="BackgroundImageFix"/>
<feColorMatrix in="SourceAlpha" type="matrix" values="0 0 0 0 0 0 0 0 0 0 0 0 0 0 0 0 0 0 127 0"/>
<feOffset dy="1"/>
<feGaussianBlur stdDeviation="4"/>
<feColorMatrix type="matrix" values="0 0 0 0 0 0 0 0 0 0 0 0 0 0 0 0 0 0 0.05 0"/>
<feBlend mode="normal" in2="BackgroundImageFix" result="effect1_dropShadow"/>
<feBlend mode="normal" in="SourceGraphic" in2="effect1_dropShadow" result="shape"/>
</filter>
<filter id="filter1_d" x="218" y="2" width="108" height="17" filterUnits="userSpaceOnUse" color-interpolation-filters="sRGB">
<feFlood flood-opacity="0" result="BackgroundImageFix"/>
<feColorMatrix in="SourceAlpha" type="matrix" values="0 0 0 0 0 0 0 0 0 0 0 0 0 0 0 0 0 0 127 0"/>
<feOffset dy="1"/>
<feGaussianBlur stdDeviation="4"/>
<feColorMatrix type="matrix" values="0 0 0 0 0 0 0 0 0 0 0 0 0 0 0 0 0 0 0.05 0"/>
<feBlend mode="normal" in2="BackgroundImageFix" result="effect1_dropShadow"/>
<feBlend mode="normal" in="SourceGraphic" in2="effect1_dropShadow" result="shape"/>
</filter>
</defs>
</svg>
