<svg width="36" height="36" viewBox="0 0 36 36" fill="none" xmlns="http://www.w3.org/2000/svg">
<g id="16 / pencil">
<path id="icon" fill-rule="evenodd" clip-rule="evenodd" d="M22.4983 7.5C23.2914 7.5 23.9786 7.8142 24.5298 8.36977L27.6303 11.4703C28.1863 12.0263 28.4977 12.7085 28.4977 13.4993C28.4977 14.285 28.1887 15.1001 27.6303 15.6585L16.3343 26.9491C15.549 27.855 14.4358 28.4116 13.134 28.5H8.99983H7.5V27.0002L7.50487 22.7453C7.60046 21.5622 8.15052 20.462 8.97278 19.7385L20.34 8.37141C20.8978 7.81074 21.7115 7.5 22.4983 7.5ZM11.027 21.9225C10.7187 22.1952 10.5279 22.5767 10.4997 22.8661V25.5017L13.0281 25.5041C13.4299 25.4756 13.8039 25.2886 14.1405 24.9061L20.7126 18.3341L17.6652 15.2867L11.027 21.9225ZM19.7867 13.166L22.8337 16.213L25.4822 13.5644L22.4357 10.5179L19.7867 13.166Z" fill="white"/>
</g>
</svg>
