<svg width="16" height="17" viewBox="0 0 16 17" fill="none" xmlns="http://www.w3.org/2000/svg">
<path d="M11.3168 11.0181L10.8935 11.653C10.8091 11.7797 10.6973 11.8878 10.5501 11.9267C10.0678 12.0542 8.78728 12.1117 6.83778 10.1622C4.88828 8.21273 4.94582 6.93223 5.07326 6.44991C5.11217 6.30267 5.2203 6.19094 5.34702 6.10645L5.9819 5.6832C6.45458 5.36808 6.58231 4.72944 6.26719 4.25676L5.06811 2.45815C4.79306 2.04558 4.26282 1.88795 3.80705 2.08328L3.26615 2.31509C2.85525 2.4912 2.52006 2.80724 2.32013 3.2071C2.1531 3.54116 2.02364 3.89295 2.0061 4.26603C1.95082 5.44177 2.20863 8.33841 5.43511 11.5649C8.6616 14.7914 11.5582 15.0492 12.734 14.9939C13.107 14.9764 13.4588 14.8469 13.7929 14.6799C14.1928 14.4799 14.5088 14.1448 14.6849 13.7338L14.9167 13.1929C15.112 12.7372 14.9544 12.2069 14.5418 11.9319L12.7432 10.7328C12.2706 10.4177 11.6319 10.5454 11.3168 11.0181Z" fill="#292929"/>
</svg>
