<svg width="13" height="13" viewBox="0 0 13 13" fill="none" xmlns="http://www.w3.org/2000/svg">
<path d="M9.3168 9.0181L8.89354 9.65298C8.80906 9.7797 8.69733 9.88783 8.55009 9.92674C8.06777 10.0542 6.78728 10.1117 4.83778 8.16224C2.88828 6.21273 2.94582 4.93223 3.07326 4.44991C3.11217 4.30267 3.2203 4.19094 3.34702 4.10645L3.9819 3.6832C4.45458 3.36808 4.58231 2.72944 4.26719 2.25676L3.06811 0.458154C2.79306 0.045577 2.26282 -0.11205 1.80705 0.0832777L1.26615 0.315094C0.855245 0.491196 0.520061 0.807243 0.320134 1.2071C0.153102 1.54116 0.0236397 1.89295 0.00609885 2.26603C-0.0491792 3.44177 0.208628 6.33841 3.43511 9.5649C6.6616 12.7914 9.55823 13.0492 10.734 12.9939C11.107 12.9764 11.4588 12.8469 11.7929 12.6799C12.1928 12.4799 12.5088 12.1448 12.6849 11.7338L12.9167 11.1929C13.112 10.7372 12.9544 10.2069 12.5418 9.93188L10.7432 8.73281C10.2706 8.41769 9.63192 8.54542 9.3168 9.0181Z" fill="#D2302E"/>
</svg>
