<svg width="234" height="243" viewBox="0 0 234 243" fill="none" xmlns="http://www.w3.org/2000/svg">
<path d="M212.762 61.5174H165.655C165.655 61.5174 170.327 48.7556 177.515 48.7556C184.702 48.7556 186.958 57.5606 186.958 57.5606C186.958 57.5606 191.806 52.7784 195.79 52.7784C199.775 52.7784 203.236 59.129 203.236 59.129C203.236 59.129 208.866 55.7006 212.762 61.5174Z" fill="#EBEBEB"/>
<path d="M171.637 28.7075H149.625C149.625 28.7075 154.544 21.5535 158.43 21.5535C162.315 21.5535 163.454 26.3027 163.454 26.3027C163.454 26.3027 166.205 24.1014 168.72 24.4866C171.235 24.8719 171.637 28.7075 171.637 28.7075Z" fill="#EBEBEB"/>
<path d="M53.6389 67.6367H10.7639C10.7639 67.6367 16.6358 54.5282 22.9149 53.7082C29.1939 52.8883 32.2042 63.4488 32.2042 63.4488C32.2042 63.4488 36.2545 59.7177 39.4408 59.7177C42.6271 59.7177 45.065 64.632 45.065 64.632C45.065 64.632 51.4541 61.264 53.6389 67.6367Z" fill="#EBEBEB"/>
<path d="M98.1207 12.5615H69.1522C69.1522 12.5615 74.105 3.06308 79.5311 2.9255C84.9572 2.78792 87.7858 10.1126 87.7858 10.1126C87.7858 10.1126 96.1616 3.37676 98.1207 12.5615Z" fill="#EBEBEB"/>
<path d="M129.445 38.8392H109.897C109.897 38.8392 113.254 32.4281 116.897 32.34C120.54 32.252 122.456 37.1883 122.456 37.1883C122.456 37.1883 128.124 32.6427 129.445 38.8392Z" fill="#EBEBEB"/>
<path d="M179.809 69.5962H159.783V174.585H179.809V69.5962Z" fill="#DBDBDB"/>
<path d="M166.784 73.0081H162.893V77.0143H166.784V73.0081Z" fill="#EBEBEB"/>
<path d="M171.764 73.0081H167.873V77.0143H171.764V73.0081Z" fill="#EBEBEB"/>
<path d="M166.784 79.8154H162.893V83.8217H166.784V79.8154Z" fill="#EBEBEB"/>
<path d="M171.764 79.8154H167.873V83.8217H171.764V79.8154Z" fill="#EBEBEB"/>
<path d="M166.784 86.6228H162.893V90.6291H166.784V86.6228Z" fill="#EBEBEB"/>
<path d="M171.764 86.6228H167.873V90.6291H171.764V86.6228Z" fill="#EBEBEB"/>
<path d="M166.784 93.4248H162.893V97.4311H166.784V93.4248Z" fill="#EBEBEB"/>
<path d="M171.764 93.4248H167.873V97.4311H171.764V93.4248Z" fill="#EBEBEB"/>
<path d="M166.784 100.232H162.893V104.238H166.784V100.232Z" fill="#EBEBEB"/>
<path d="M171.764 100.232H167.873V104.238H171.764V100.232Z" fill="#EBEBEB"/>
<path d="M166.784 107.039H162.893V111.046H166.784V107.039Z" fill="#EBEBEB"/>
<path d="M171.764 107.039H167.873V111.046H171.764V107.039Z" fill="#EBEBEB"/>
<path d="M166.784 113.847H162.893V117.853H166.784V113.847Z" fill="#EBEBEB"/>
<path d="M171.764 113.847H167.873V117.853H171.764V113.847Z" fill="#EBEBEB"/>
<path d="M166.784 120.649H162.893V124.655H166.784V120.649Z" fill="#EBEBEB"/>
<path d="M171.764 120.649H167.873V124.655H171.764V120.649Z" fill="#EBEBEB"/>
<path d="M166.784 127.456H162.893V131.462H166.784V127.456Z" fill="#EBEBEB"/>
<path d="M171.764 127.456H167.873V131.462H171.764V127.456Z" fill="#EBEBEB"/>
<path d="M166.784 134.263H162.893V138.27H166.784V134.263Z" fill="#EBEBEB"/>
<path d="M171.764 134.263H167.873V138.27H171.764V134.263Z" fill="#EBEBEB"/>
<path d="M166.784 141.065H162.893V145.071H166.784V141.065Z" fill="#EBEBEB"/>
<path d="M171.764 141.065H167.873V145.071H171.764V141.065Z" fill="#EBEBEB"/>
<path d="M166.784 147.873H162.893V151.879H166.784V147.873Z" fill="#EBEBEB"/>
<path d="M171.764 147.873H167.873V151.879H171.764V147.873Z" fill="#EBEBEB"/>
<path d="M166.784 154.68H162.893V158.686H166.784V154.68Z" fill="#EBEBEB"/>
<path d="M171.764 154.68H167.873V158.686H171.764V154.68Z" fill="#EBEBEB"/>
<path d="M166.784 161.487H162.893V165.494H166.784V161.487Z" fill="#EBEBEB"/>
<path d="M172.809 165.494H176.7V161.487H172.809V165.494Z" fill="#EBEBEB"/>
<path d="M172.809 158.686H176.7V154.68H172.809V158.686Z" fill="#EBEBEB"/>
<path d="M172.809 151.885H176.7V147.878H172.809V151.885Z" fill="#EBEBEB"/>
<path d="M172.809 145.077H176.7V141.071H172.809V145.077Z" fill="#EBEBEB"/>
<path d="M172.809 138.27H176.7V134.263H172.809V138.27Z" fill="#EBEBEB"/>
<path d="M172.809 131.462H176.7V127.456H172.809V131.462Z" fill="#EBEBEB"/>
<path d="M172.809 124.661H176.7V120.654H172.809V124.661Z" fill="#EBEBEB"/>
<path d="M172.809 117.847H176.7V113.841H172.809V117.847Z" fill="#EBEBEB"/>
<path d="M172.809 111.045H176.7V107.039H172.809V111.045Z" fill="#EBEBEB"/>
<path d="M172.809 104.244H176.7V100.238H172.809V104.244Z" fill="#EBEBEB"/>
<path d="M172.809 97.4363H176.7V93.43H172.809V97.4363Z" fill="#EBEBEB"/>
<path d="M172.809 90.6289H176.7V86.6226H172.809V90.6289Z" fill="#EBEBEB"/>
<path d="M172.809 83.8215H176.7V79.8153H172.809V83.8215Z" fill="#EBEBEB"/>
<path d="M172.809 77.0195H176.7V73.0132H172.809V77.0195Z" fill="#EBEBEB"/>
<path d="M171.764 161.487H167.873V165.494H171.764V161.487Z" fill="#EBEBEB"/>
<path d="M195.598 69.5962H179.809V174.585H195.598V69.5962Z" fill="#A6A6A6"/>
<path d="M190.755 165.494H193.969V161.487H190.755V165.494Z" fill="#C7C7C7"/>
<path d="M186.65 165.494H189.863V161.487H186.65V165.494Z" fill="#C7C7C7"/>
<path d="M190.755 158.686H193.969V154.68H190.755V158.686Z" fill="#C7C7C7"/>
<path d="M186.65 158.686H189.863V154.68H186.65V158.686Z" fill="#C7C7C7"/>
<path d="M190.755 151.885H193.969V147.878H190.755V151.885Z" fill="#C7C7C7"/>
<path d="M186.65 151.885H189.863V147.878H186.65V151.885Z" fill="#C7C7C7"/>
<path d="M190.755 145.077H193.969V141.071H190.755V145.077Z" fill="#C7C7C7"/>
<path d="M186.65 145.077H189.863V141.071H186.65V145.077Z" fill="#C7C7C7"/>
<path d="M190.755 138.27H193.969V134.263H190.755V138.27Z" fill="#C7C7C7"/>
<path d="M186.65 138.27H189.863V134.263H186.65V138.27Z" fill="#C7C7C7"/>
<path d="M190.755 131.462H193.969V127.456H190.755V131.462Z" fill="#C7C7C7"/>
<path d="M186.65 131.462H189.863V127.456H186.65V131.462Z" fill="#C7C7C7"/>
<path d="M190.755 124.661H193.969V120.654H190.755V124.661Z" fill="#C7C7C7"/>
<path d="M186.65 124.661H189.863V120.654H186.65V124.661Z" fill="#C7C7C7"/>
<path d="M190.755 117.847H193.969V113.841H190.755V117.847Z" fill="#C7C7C7"/>
<path d="M186.65 117.847H189.863V113.841H186.65V117.847Z" fill="#C7C7C7"/>
<path d="M190.755 111.045H193.969V107.039H190.755V111.045Z" fill="#C7C7C7"/>
<path d="M186.65 111.045H189.863V107.039H186.65V111.045Z" fill="#C7C7C7"/>
<path d="M190.755 104.244H193.969V100.238H190.755V104.244Z" fill="#C7C7C7"/>
<path d="M186.65 104.244H189.863V100.238H186.65V104.244Z" fill="#C7C7C7"/>
<path d="M190.755 97.4363H193.969V93.43H190.755V97.4363Z" fill="#C7C7C7"/>
<path d="M186.65 97.4363H189.863V93.43H186.65V97.4363Z" fill="#C7C7C7"/>
<path d="M190.755 90.6289H193.969V86.6226H190.755V90.6289Z" fill="#C7C7C7"/>
<path d="M186.65 90.6289H189.863V86.6226H186.65V90.6289Z" fill="#C7C7C7"/>
<path d="M190.755 83.8215H193.969V79.8153H190.755V83.8215Z" fill="#C7C7C7"/>
<path d="M186.65 83.8215H189.863V79.8153H186.65V83.8215Z" fill="#C7C7C7"/>
<path d="M190.755 77.0195H193.969V73.0132H190.755V77.0195Z" fill="#C7C7C7"/>
<path d="M185.78 73.0081H182.566V77.0143H185.78V73.0081Z" fill="#C7C7C7"/>
<path d="M185.78 79.8154H182.566V83.8217H185.78V79.8154Z" fill="#C7C7C7"/>
<path d="M185.78 86.6228H182.566V90.6291H185.78V86.6228Z" fill="#C7C7C7"/>
<path d="M185.78 93.4248H182.566V97.4311H185.78V93.4248Z" fill="#C7C7C7"/>
<path d="M185.78 100.232H182.566V104.238H185.78V100.232Z" fill="#C7C7C7"/>
<path d="M185.78 107.039H182.566V111.046H185.78V107.039Z" fill="#C7C7C7"/>
<path d="M185.78 113.847H182.566V117.853H185.78V113.847Z" fill="#C7C7C7"/>
<path d="M185.78 120.649H182.566V124.655H185.78V120.649Z" fill="#C7C7C7"/>
<path d="M185.78 127.456H182.566V131.462H185.78V127.456Z" fill="#C7C7C7"/>
<path d="M185.78 134.263H182.566V138.27H185.78V134.263Z" fill="#C7C7C7"/>
<path d="M185.78 141.065H182.566V145.071H185.78V141.065Z" fill="#C7C7C7"/>
<path d="M185.78 147.873H182.566V151.879H185.78V147.873Z" fill="#C7C7C7"/>
<path d="M185.78 154.68H182.566V158.686H185.78V154.68Z" fill="#C7C7C7"/>
<path d="M185.78 161.487H182.566V165.494H185.78V161.487Z" fill="#C7C7C7"/>
<path d="M186.65 77.0195H189.863V73.0132H186.65V77.0195Z" fill="#C7C7C7"/>
<path d="M56.5225 63.9387H32.8315V174.585H56.5225V63.9387Z" fill="#EBEBEB"/>
<path d="M56.5225 61.5176H32.2592V63.939H56.5225V61.5176Z" fill="#C7C7C7"/>
<path d="M37.3717 67.5103H34.9724V174.59H37.3717V67.5103Z" fill="white"/>
<path d="M41.6202 67.5103H39.2209V174.59H41.6202V67.5103Z" fill="white"/>
<path d="M45.8742 67.5103H43.4748V174.59H45.8742V67.5103Z" fill="white"/>
<path d="M50.1278 67.5103H47.7285V174.59H50.1278V67.5103Z" fill="white"/>
<path d="M54.3762 67.5103H51.9769V174.59H54.3762V67.5103Z" fill="white"/>
<path d="M37.3717 70.5703H34.9724V75.3525H37.3717V70.5703Z" fill="#EBEBEB"/>
<path d="M41.6202 70.5703H39.2209V75.3525H41.6202V70.5703Z" fill="#EBEBEB"/>
<path d="M45.8742 70.5703H43.4748V75.3525H45.8742V70.5703Z" fill="#EBEBEB"/>
<path d="M50.1278 70.5703H47.7285V75.3525H50.1278V70.5703Z" fill="#EBEBEB"/>
<path d="M54.3762 70.5703H51.9769V75.3525H54.3762V70.5703Z" fill="#EBEBEB"/>
<path d="M37.3717 78.3406H34.9724V83.1228H37.3717V78.3406Z" fill="#EBEBEB"/>
<path d="M41.6202 78.3406H39.2209V83.1228H41.6202V78.3406Z" fill="#EBEBEB"/>
<path d="M45.8742 78.3406H43.4748V83.1228H45.8742V78.3406Z" fill="#EBEBEB"/>
<path d="M50.1278 78.3406H47.7285V83.1228H50.1278V78.3406Z" fill="#EBEBEB"/>
<path d="M54.3762 78.3406H51.9769V83.1228H54.3762V78.3406Z" fill="#EBEBEB"/>
<path d="M37.3717 86.1108H34.9724V90.8931H37.3717V86.1108Z" fill="#EBEBEB"/>
<path d="M41.6202 86.1108H39.2209V90.8931H41.6202V86.1108Z" fill="#EBEBEB"/>
<path d="M45.8742 86.1108H43.4748V90.8931H45.8742V86.1108Z" fill="#EBEBEB"/>
<path d="M50.1278 86.1108H47.7285V90.8931H50.1278V86.1108Z" fill="#EBEBEB"/>
<path d="M54.3762 86.1108H51.9769V90.8931H54.3762V86.1108Z" fill="#EBEBEB"/>
<path d="M37.3717 93.8867H34.9724V98.6689H37.3717V93.8867Z" fill="#EBEBEB"/>
<path d="M41.6202 93.8867H39.2209V98.6689H41.6202V93.8867Z" fill="#EBEBEB"/>
<path d="M45.8742 93.8867H43.4748V98.6689H45.8742V93.8867Z" fill="#EBEBEB"/>
<path d="M50.1278 93.8867H47.7285V98.6689H50.1278V93.8867Z" fill="#EBEBEB"/>
<path d="M54.3762 93.8867H51.9769V98.6689H54.3762V93.8867Z" fill="#EBEBEB"/>
<path d="M37.3717 101.657H34.9724V106.44H37.3717V101.657Z" fill="#EBEBEB"/>
<path d="M41.6202 101.657H39.2209V106.44H41.6202V101.657Z" fill="#EBEBEB"/>
<path d="M45.8742 101.657H43.4748V106.44H45.8742V101.657Z" fill="#EBEBEB"/>
<path d="M50.1278 101.657H47.7285V106.44H50.1278V101.657Z" fill="#EBEBEB"/>
<path d="M54.3762 101.657H51.9769V106.44H54.3762V101.657Z" fill="#EBEBEB"/>
<path d="M37.3717 109.428H34.9724V114.21H37.3717V109.428Z" fill="#EBEBEB"/>
<path d="M41.6202 109.428H39.2209V114.21H41.6202V109.428Z" fill="#EBEBEB"/>
<path d="M45.8742 109.428H43.4748V114.21H45.8742V109.428Z" fill="#EBEBEB"/>
<path d="M50.1278 109.428H47.7285V114.21H50.1278V109.428Z" fill="#EBEBEB"/>
<path d="M54.3762 109.428H51.9769V114.21H54.3762V109.428Z" fill="#EBEBEB"/>
<path d="M37.3717 117.198H34.9724V121.98H37.3717V117.198Z" fill="#EBEBEB"/>
<path d="M41.6202 117.198H39.2209V121.98H41.6202V117.198Z" fill="#EBEBEB"/>
<path d="M45.8742 117.198H43.4748V121.98H45.8742V117.198Z" fill="#EBEBEB"/>
<path d="M50.1278 117.198H47.7285V121.98H50.1278V117.198Z" fill="#EBEBEB"/>
<path d="M54.3762 117.198H51.9769V121.98H54.3762V117.198Z" fill="#EBEBEB"/>
<path d="M37.3717 124.974H34.9724V129.756H37.3717V124.974Z" fill="#EBEBEB"/>
<path d="M41.6202 124.974H39.2209V129.756H41.6202V124.974Z" fill="#EBEBEB"/>
<path d="M45.8742 124.974H43.4748V129.756H45.8742V124.974Z" fill="#EBEBEB"/>
<path d="M50.1278 124.974H47.7285V129.756H50.1278V124.974Z" fill="#EBEBEB"/>
<path d="M54.3762 124.974H51.9769V129.756H54.3762V124.974Z" fill="#EBEBEB"/>
<path d="M37.3717 132.744H34.9724V137.527H37.3717V132.744Z" fill="#EBEBEB"/>
<path d="M41.6202 132.744H39.2209V137.527H41.6202V132.744Z" fill="#EBEBEB"/>
<path d="M45.8742 132.744H43.4748V137.527H45.8742V132.744Z" fill="#EBEBEB"/>
<path d="M50.1278 132.744H47.7285V137.527H50.1278V132.744Z" fill="#EBEBEB"/>
<path d="M54.3762 132.744H51.9769V137.527H54.3762V132.744Z" fill="#EBEBEB"/>
<path d="M37.3717 140.515H34.9724V145.297H37.3717V140.515Z" fill="#EBEBEB"/>
<path d="M41.6202 140.515H39.2209V145.297H41.6202V140.515Z" fill="#EBEBEB"/>
<path d="M45.8742 140.515H43.4748V145.297H45.8742V140.515Z" fill="#EBEBEB"/>
<path d="M50.1278 140.515H47.7285V145.297H50.1278V140.515Z" fill="#EBEBEB"/>
<path d="M54.3762 140.515H51.9769V145.297H54.3762V140.515Z" fill="#EBEBEB"/>
<path d="M37.3717 148.291H34.9724V153.073H37.3717V148.291Z" fill="#EBEBEB"/>
<path d="M41.6202 148.291H39.2209V153.073H41.6202V148.291Z" fill="#EBEBEB"/>
<path d="M45.8742 148.291H43.4748V153.073H45.8742V148.291Z" fill="#EBEBEB"/>
<path d="M50.1278 148.291H47.7285V153.073H50.1278V148.291Z" fill="#EBEBEB"/>
<path d="M54.3762 148.291H51.9769V153.073H54.3762V148.291Z" fill="#EBEBEB"/>
<path d="M37.3717 156.061H34.9724V160.844H37.3717V156.061Z" fill="#EBEBEB"/>
<path d="M41.6202 156.061H39.2209V160.844H41.6202V156.061Z" fill="#EBEBEB"/>
<path d="M45.8742 156.061H43.4748V160.844H45.8742V156.061Z" fill="#EBEBEB"/>
<path d="M50.1278 156.061H47.7285V160.844H50.1278V156.061Z" fill="#EBEBEB"/>
<path d="M54.3762 156.061H51.9769V160.844H54.3762V156.061Z" fill="#EBEBEB"/>
<path d="M37.3717 163.832H34.9724V168.614H37.3717V163.832Z" fill="#EBEBEB"/>
<path d="M41.6202 163.832H39.2209V168.614H41.6202V163.832Z" fill="#EBEBEB"/>
<path d="M45.8742 163.832H43.4748V168.614H45.8742V163.832Z" fill="#EBEBEB"/>
<path d="M50.1278 163.832H47.7285V168.614H50.1278V163.832Z" fill="#EBEBEB"/>
<path d="M54.3762 163.832H51.9769V168.614H54.3762V163.832Z" fill="#EBEBEB"/>
<path d="M37.3717 171.602H34.9724V174.585H37.3717V171.602Z" fill="#EBEBEB"/>
<path d="M41.6202 171.602H39.2209V174.585H41.6202V171.602Z" fill="#EBEBEB"/>
<path d="M45.8742 171.602H43.4748V174.585H45.8742V171.602Z" fill="#EBEBEB"/>
<path d="M50.1278 171.602H47.7285V174.585H50.1278V171.602Z" fill="#EBEBEB"/>
<path d="M54.3762 171.602H51.9769V174.585H54.3762V171.602Z" fill="#EBEBEB"/>
<path d="M71.7332 63.9387H56.5225V174.585H71.7332V63.9387Z" fill="#DBDBDB"/>
<path d="M72.3936 61.5176H56.5225V63.939H72.3936V61.5176Z" fill="#C7C7C7"/>
<path d="M61.0627 67.5103H58.6634V174.59H61.0627V67.5103Z" fill="#C7C7C7"/>
<path d="M65.3165 67.5103H62.9171V174.59H65.3165V67.5103Z" fill="#C7C7C7"/>
<path d="M69.5704 67.5103H67.1711V174.59H69.5704V67.5103Z" fill="#C7C7C7"/>
<path d="M61.0627 70.5703H58.6634V75.3525H61.0627V70.5703Z" fill="#DBDBDB"/>
<path d="M65.3165 70.5703H62.9171V75.3525H65.3165V70.5703Z" fill="#DBDBDB"/>
<path d="M69.5704 70.5703H67.1711V75.3525H69.5704V70.5703Z" fill="#DBDBDB"/>
<path d="M61.0627 78.3406H58.6634V83.1228H61.0627V78.3406Z" fill="#DBDBDB"/>
<path d="M65.3165 78.3406H62.9171V83.1228H65.3165V78.3406Z" fill="#DBDBDB"/>
<path d="M69.5704 78.3406H67.1711V83.1228H69.5704V78.3406Z" fill="#DBDBDB"/>
<path d="M61.0627 86.1108H58.6634V90.8931H61.0627V86.1108Z" fill="#DBDBDB"/>
<path d="M65.3165 86.1108H62.9171V90.8931H65.3165V86.1108Z" fill="#DBDBDB"/>
<path d="M69.5704 86.1108H67.1711V90.8931H69.5704V86.1108Z" fill="#DBDBDB"/>
<path d="M61.0627 93.8867H58.6634V98.6689H61.0627V93.8867Z" fill="#DBDBDB"/>
<path d="M65.3165 93.8867H62.9171V98.6689H65.3165V93.8867Z" fill="#DBDBDB"/>
<path d="M69.5704 93.8867H67.1711V98.6689H69.5704V93.8867Z" fill="#DBDBDB"/>
<path d="M61.0627 101.657H58.6634V106.44H61.0627V101.657Z" fill="#DBDBDB"/>
<path d="M65.3165 101.657H62.9171V106.44H65.3165V101.657Z" fill="#DBDBDB"/>
<path d="M69.5704 101.657H67.1711V106.44H69.5704V101.657Z" fill="#DBDBDB"/>
<path d="M61.0627 109.428H58.6634V114.21H61.0627V109.428Z" fill="#DBDBDB"/>
<path d="M65.3165 109.428H62.9171V114.21H65.3165V109.428Z" fill="#DBDBDB"/>
<path d="M69.5704 109.428H67.1711V114.21H69.5704V109.428Z" fill="#DBDBDB"/>
<path d="M61.0627 117.198H58.6634V121.98H61.0627V117.198Z" fill="#DBDBDB"/>
<path d="M65.3165 117.198H62.9171V121.98H65.3165V117.198Z" fill="#DBDBDB"/>
<path d="M69.5704 117.198H67.1711V121.98H69.5704V117.198Z" fill="#DBDBDB"/>
<path d="M61.0627 124.974H58.6634V129.756H61.0627V124.974Z" fill="#DBDBDB"/>
<path d="M65.3165 124.974H62.9171V129.756H65.3165V124.974Z" fill="#DBDBDB"/>
<path d="M69.5704 124.974H67.1711V129.756H69.5704V124.974Z" fill="#DBDBDB"/>
<path d="M61.0627 132.744H58.6634V137.527H61.0627V132.744Z" fill="#DBDBDB"/>
<path d="M65.3165 132.744H62.9171V137.527H65.3165V132.744Z" fill="#DBDBDB"/>
<path d="M69.5704 132.744H67.1711V137.527H69.5704V132.744Z" fill="#DBDBDB"/>
<path d="M61.0627 140.515H58.6634V145.297H61.0627V140.515Z" fill="#DBDBDB"/>
<path d="M65.3165 140.515H62.9171V145.297H65.3165V140.515Z" fill="#DBDBDB"/>
<path d="M69.5704 140.515H67.1711V145.297H69.5704V140.515Z" fill="#DBDBDB"/>
<path d="M61.0627 148.291H58.6634V153.073H61.0627V148.291Z" fill="#DBDBDB"/>
<path d="M65.3165 148.291H62.9171V153.073H65.3165V148.291Z" fill="#DBDBDB"/>
<path d="M69.5704 148.291H67.1711V153.073H69.5704V148.291Z" fill="#DBDBDB"/>
<path d="M61.0627 156.061H58.6634V160.844H61.0627V156.061Z" fill="#DBDBDB"/>
<path d="M65.3165 156.061H62.9171V160.844H65.3165V156.061Z" fill="#DBDBDB"/>
<path d="M69.5704 156.061H67.1711V160.844H69.5704V156.061Z" fill="#DBDBDB"/>
<path d="M61.0627 163.832H58.6634V168.614H61.0627V163.832Z" fill="#DBDBDB"/>
<path d="M65.3165 163.832H62.9171V168.614H65.3165V163.832Z" fill="#DBDBDB"/>
<path d="M69.5704 163.832H67.1711V168.614H69.5704V163.832Z" fill="#DBDBDB"/>
<path d="M61.0627 171.602H58.6634V174.585H61.0627V171.602Z" fill="#DBDBDB"/>
<path d="M65.3165 171.602H62.9171V174.585H65.3165V171.602Z" fill="#DBDBDB"/>
<path d="M69.5704 171.602H67.1711V174.585H69.5704V171.602Z" fill="#DBDBDB"/>
<path d="M26.6792 104.602H3.08722V174.585H26.6792V104.602Z" fill="#EBEBEB"/>
<path d="M26.6737 98.6692H6.43869V104.602H26.6737V98.6692Z" fill="#C7C7C7"/>
<path d="M24.0925 107.7H5.67352V174.585H24.0925V107.7Z" fill="#DBDBDB"/>
<path d="M24.0925 114.083H5.67352V115.663H24.0925V114.083Z" fill="white"/>
<path d="M24.0925 120.627H5.67352V122.206H24.0925V120.627Z" fill="white"/>
<path d="M24.0925 127.175H5.67352V128.755H24.0925V127.175Z" fill="white"/>
<path d="M24.0925 133.724H5.67352V135.303H24.0925V133.724Z" fill="white"/>
<path d="M24.0925 140.267H5.67352V141.847H24.0925V140.267Z" fill="white"/>
<path d="M24.0925 146.816H5.67352V148.396H24.0925V146.816Z" fill="white"/>
<path d="M24.0925 153.365H5.67352V154.944H24.0925V153.365Z" fill="white"/>
<path d="M24.0925 159.908H5.67352V161.487H24.0925V159.908Z" fill="white"/>
<path d="M24.0925 166.457H5.67352V168.036H24.0925V166.457Z" fill="white"/>
<path d="M24.0925 173.005H5.67352V174.585H24.0925V173.005Z" fill="white"/>
<path d="M41.4549 104.602H26.679V174.585H41.4549V104.602Z" fill="#DBDBDB"/>
<path d="M39.2372 98.6692H26.679V104.602H39.2372V98.6692Z" fill="#A6A6A6"/>
<path d="M40.0793 107.7H28.7153V174.585H40.0793V107.7Z" fill="#C7C7C7"/>
<path d="M40.0793 114.083H28.7153V115.663H40.0793V114.083Z" fill="white"/>
<path d="M40.0793 120.627H28.7153V122.206H40.0793V120.627Z" fill="white"/>
<path d="M40.0793 127.175H28.7153V128.755H40.0793V127.175Z" fill="white"/>
<path d="M40.0793 133.724H28.7153V135.303H40.0793V133.724Z" fill="white"/>
<path d="M40.0793 140.267H28.7153V141.847H40.0793V140.267Z" fill="white"/>
<path d="M40.0793 146.816H28.7153V148.396H40.0793V146.816Z" fill="white"/>
<path d="M40.0793 153.365H28.7153V154.944H40.0793V153.365Z" fill="white"/>
<path d="M40.0793 159.908H28.7153V161.487H40.0793V159.908Z" fill="white"/>
<path d="M40.0793 166.457H28.7153V168.036H40.0793V166.457Z" fill="white"/>
<path d="M40.0793 173.005H28.7153V174.585H40.0793V173.005Z" fill="white"/>
<path d="M86.4928 133.614H68.2554V174.585H86.4928V133.614Z" fill="#DBDBDB"/>
<path d="M74.3473 137.163H71.1224V139.673H74.3473V137.163Z" fill="#C7C7C7"/>
<path d="M74.3473 142.524H71.1224V145.033H74.3473V142.524Z" fill="#C7C7C7"/>
<path d="M74.3473 147.884H71.1224V150.393H74.3473V147.884Z" fill="#C7C7C7"/>
<path d="M74.3473 153.244H71.1224V155.753H74.3473V153.244Z" fill="#C7C7C7"/>
<path d="M74.3473 158.609H71.1224V161.119H74.3473V158.609Z" fill="#C7C7C7"/>
<path d="M74.3473 163.969H71.1224V166.479H74.3473V163.969Z" fill="#C7C7C7"/>
<path d="M74.3473 169.329H71.1224V171.839H74.3473V169.329Z" fill="#C7C7C7"/>
<path d="M78.9974 137.163H75.7671V139.673H78.9974V137.163Z" fill="#C7C7C7"/>
<path d="M78.9974 142.524H75.7671V145.033H78.9974V142.524Z" fill="#C7C7C7"/>
<path d="M78.9974 147.884H75.7671V150.393H78.9974V147.884Z" fill="#C7C7C7"/>
<path d="M78.9974 153.244H75.7671V155.753H78.9974V153.244Z" fill="#C7C7C7"/>
<path d="M78.9974 158.609H75.7671V161.119H78.9974V158.609Z" fill="#C7C7C7"/>
<path d="M78.9974 163.969H75.7671V166.479H78.9974V163.969Z" fill="#C7C7C7"/>
<path d="M78.9974 169.329H75.7671V171.839H78.9974V169.329Z" fill="#C7C7C7"/>
<path d="M83.631 137.163H80.4007V139.673H83.631V137.163Z" fill="#C7C7C7"/>
<path d="M83.631 142.524H80.4007V145.033H83.631V142.524Z" fill="#C7C7C7"/>
<path d="M83.631 147.884H80.4007V150.393H83.631V147.884Z" fill="#C7C7C7"/>
<path d="M83.631 153.244H80.4007V155.753H83.631V153.244Z" fill="#C7C7C7"/>
<path d="M83.631 158.609H80.4007V161.119H83.631V158.609Z" fill="#C7C7C7"/>
<path d="M83.631 163.969H80.4007V166.479H83.631V163.969Z" fill="#C7C7C7"/>
<path d="M83.631 169.329H80.4007V171.839H83.631V169.329Z" fill="#C7C7C7"/>
<path d="M99.2873 133.614H86.4926V174.585H99.2873V133.614Z" fill="#A6A6A6"/>
<path d="M95.3583 171.443H97.9833V168.933H95.3583V171.443Z" fill="#C7C7C7"/>
<path d="M95.3583 166.077H97.9833V163.567H95.3583V166.077Z" fill="#C7C7C7"/>
<path d="M95.3583 160.717H97.9833V158.208H95.3583V160.717Z" fill="#C7C7C7"/>
<path d="M95.3583 155.351H97.9833V152.842H95.3583V155.351Z" fill="#C7C7C7"/>
<path d="M95.3583 149.997H97.9833V147.487H95.3583V149.997Z" fill="#C7C7C7"/>
<path d="M95.3583 144.631H97.9833V142.122H95.3583V144.631Z" fill="#C7C7C7"/>
<path d="M95.3583 139.271H97.9833V136.762H95.3583V139.271Z" fill="#C7C7C7"/>
<path d="M91.5776 171.443H94.2026V168.933H91.5776V171.443Z" fill="#C7C7C7"/>
<path d="M91.5776 166.077H94.2026V163.567H91.5776V166.077Z" fill="#C7C7C7"/>
<path d="M91.5776 160.717H94.2026V158.208H91.5776V160.717Z" fill="#C7C7C7"/>
<path d="M91.5776 155.351H94.2026V152.842H91.5776V155.351Z" fill="#C7C7C7"/>
<path d="M91.5776 149.997H94.2026V147.487H91.5776V149.997Z" fill="#C7C7C7"/>
<path d="M91.5776 144.631H94.2026V142.122H91.5776V144.631Z" fill="#C7C7C7"/>
<path d="M91.5776 139.271H94.2026V136.762H91.5776V139.271Z" fill="#C7C7C7"/>
<path d="M87.808 171.443H90.433V168.933H87.808V171.443Z" fill="#C7C7C7"/>
<path d="M87.808 166.077H90.433V163.567H87.808V166.077Z" fill="#C7C7C7"/>
<path d="M87.808 160.717H90.433V158.208H87.808V160.717Z" fill="#C7C7C7"/>
<path d="M87.808 155.351H90.433V152.842H87.808V155.351Z" fill="#C7C7C7"/>
<path d="M87.808 149.997H90.433V147.487H87.808V149.997Z" fill="#C7C7C7"/>
<path d="M87.808 144.631H90.433V142.122H87.808V144.631Z" fill="#C7C7C7"/>
<path d="M87.808 139.271H90.433V136.762H87.808V139.271Z" fill="#C7C7C7"/>
<path d="M209.576 86.6228H196.974V101.509H209.576V86.6228Z" fill="#DBDBDB"/>
<path d="M217.566 86.6228H209.576V102.054H217.566V86.6228Z" fill="#C7C7C7"/>
<path d="M218.095 93.1934H210.165V102.053H218.095V93.1934Z" fill="#DBDBDB"/>
<path d="M223.042 93.1934H218.095V102.053H223.042V93.1934Z" fill="#C7C7C7"/>
<path d="M212.514 100.535H192.142V174.585H212.514V100.535Z" fill="#EBEBEB"/>
<path d="M200.876 103.721H194.47V106.34H200.876V103.721Z" fill="white"/>
<path d="M209.069 103.721H202.664V106.34H209.069V103.721Z" fill="white"/>
<path d="M200.876 108.167H194.47V110.787H200.876V108.167Z" fill="white"/>
<path d="M209.069 108.167H202.664V110.787H209.069V108.167Z" fill="white"/>
<path d="M200.876 112.609H194.47V115.228H200.876V112.609Z" fill="white"/>
<path d="M209.069 112.609H202.664V115.228H209.069V112.609Z" fill="white"/>
<path d="M200.876 117.055H194.47V119.675H200.876V117.055Z" fill="white"/>
<path d="M209.069 117.055H202.664V119.675H209.069V117.055Z" fill="white"/>
<path d="M200.876 121.496H194.47V124.115H200.876V121.496Z" fill="white"/>
<path d="M209.069 121.496H202.664V124.115H209.069V121.496Z" fill="white"/>
<path d="M200.876 125.943H194.47V128.562H200.876V125.943Z" fill="white"/>
<path d="M209.069 125.943H202.664V128.562H209.069V125.943Z" fill="white"/>
<path d="M200.876 130.389H194.47V133.009H200.876V130.389Z" fill="white"/>
<path d="M209.069 130.389H202.664V133.009H209.069V130.389Z" fill="white"/>
<path d="M200.876 134.83H194.47V137.45H200.876V134.83Z" fill="white"/>
<path d="M209.069 134.83H202.664V137.45H209.069V134.83Z" fill="white"/>
<path d="M200.876 139.277H194.47V141.896H200.876V139.277Z" fill="white"/>
<path d="M209.069 139.277H202.664V141.896H209.069V139.277Z" fill="white"/>
<path d="M200.876 143.723H194.47V146.343H200.876V143.723Z" fill="white"/>
<path d="M209.069 143.723H202.664V146.343H209.069V143.723Z" fill="white"/>
<path d="M200.876 148.164H194.47V150.784H200.876V148.164Z" fill="white"/>
<path d="M209.069 148.164H202.664V150.784H209.069V148.164Z" fill="white"/>
<path d="M200.876 152.611H194.47V155.23H200.876V152.611Z" fill="white"/>
<path d="M209.069 152.611H202.664V155.23H209.069V152.611Z" fill="white"/>
<path d="M200.876 157.057H194.47V159.677H200.876V157.057Z" fill="white"/>
<path d="M209.069 157.057H202.664V159.677H209.069V157.057Z" fill="white"/>
<path d="M200.876 161.498H194.47V164.118H200.876V161.498Z" fill="white"/>
<path d="M209.069 161.498H202.664V164.118H209.069V161.498Z" fill="white"/>
<path d="M229.024 100.535H212.515V174.585H229.024V100.535Z" fill="#C7C7C7"/>
<path d="M222.106 164.118H227.367V161.499H222.106V164.118Z" fill="#EBEBEB"/>
<path d="M215.382 164.118H220.643V161.499H215.382V164.118Z" fill="#EBEBEB"/>
<path d="M222.106 159.671H227.367V157.052H222.106V159.671Z" fill="#EBEBEB"/>
<path d="M215.382 159.671H220.643V157.052H215.382V159.671Z" fill="#EBEBEB"/>
<path d="M222.106 155.23H227.367V152.611H222.106V155.23Z" fill="#EBEBEB"/>
<path d="M215.382 155.23H220.643V152.611H215.382V155.23Z" fill="#EBEBEB"/>
<path d="M222.106 150.784H227.367V148.164H222.106V150.784Z" fill="#EBEBEB"/>
<path d="M215.382 150.784H220.643V148.164H215.382V150.784Z" fill="#EBEBEB"/>
<path d="M222.106 146.337H227.367V143.718H222.106V146.337Z" fill="#EBEBEB"/>
<path d="M215.382 146.337H220.643V143.718H215.382V146.337Z" fill="#EBEBEB"/>
<path d="M222.106 141.896H227.367V139.277H222.106V141.896Z" fill="#EBEBEB"/>
<path d="M215.382 141.896H220.643V139.277H215.382V141.896Z" fill="#EBEBEB"/>
<path d="M222.106 137.455H227.367V134.836H222.106V137.455Z" fill="#EBEBEB"/>
<path d="M215.382 137.455H220.643V134.836H215.382V137.455Z" fill="#EBEBEB"/>
<path d="M222.106 133.003H227.367V130.384H222.106V133.003Z" fill="#EBEBEB"/>
<path d="M215.382 133.003H220.643V130.384H215.382V133.003Z" fill="#EBEBEB"/>
<path d="M222.106 128.562H227.367V125.943H222.106V128.562Z" fill="#EBEBEB"/>
<path d="M215.382 128.562H220.643V125.943H215.382V128.562Z" fill="#EBEBEB"/>
<path d="M222.106 124.121H227.367V121.502H222.106V124.121Z" fill="#EBEBEB"/>
<path d="M215.382 124.121H220.643V121.502H215.382V124.121Z" fill="#EBEBEB"/>
<path d="M222.106 119.669H227.367V117.05H222.106V119.669Z" fill="#EBEBEB"/>
<path d="M215.382 119.669H220.643V117.05H215.382V119.669Z" fill="#EBEBEB"/>
<path d="M222.106 115.228H227.367V112.609H222.106V115.228Z" fill="#EBEBEB"/>
<path d="M215.382 115.228H220.643V112.609H215.382V115.228Z" fill="#EBEBEB"/>
<path d="M222.106 110.781H227.367V108.162H222.106V110.781Z" fill="#EBEBEB"/>
<path d="M215.382 110.781H220.643V108.162H215.382V110.781Z" fill="#EBEBEB"/>
<path d="M222.106 106.335H227.367V103.715H222.106V106.335Z" fill="#EBEBEB"/>
<path d="M215.382 106.335H220.643V103.715H215.382V106.335Z" fill="#EBEBEB"/>
<path d="M138.921 126.333H114.889V174.585H138.921V126.333Z" fill="#C7C7C7"/>
<path d="M122.924 130.51H118.67V133.465H122.924V130.51Z" fill="#DBDBDB"/>
<path d="M122.924 136.828H118.67V139.783H122.924V136.828Z" fill="#DBDBDB"/>
<path d="M122.924 143.14H118.67V146.095H122.924V143.14Z" fill="#DBDBDB"/>
<path d="M122.924 149.452H118.67V152.407H122.924V149.452Z" fill="#DBDBDB"/>
<path d="M122.924 155.77H118.67V158.725H122.924V155.77Z" fill="#DBDBDB"/>
<path d="M122.924 162.082H118.67V165.037H122.924V162.082Z" fill="#DBDBDB"/>
<path d="M122.924 168.394H118.67V171.349H122.924V168.394Z" fill="#DBDBDB"/>
<path d="M129.043 130.51H124.789V133.465H129.043V130.51Z" fill="#DBDBDB"/>
<path d="M129.043 136.828H124.789V139.783H129.043V136.828Z" fill="#DBDBDB"/>
<path d="M129.043 143.14H124.789V146.095H129.043V143.14Z" fill="#DBDBDB"/>
<path d="M129.043 149.452H124.789V152.407H129.043V149.452Z" fill="#DBDBDB"/>
<path d="M129.043 155.77H124.789V158.725H129.043V155.77Z" fill="#DBDBDB"/>
<path d="M129.043 162.082H124.789V165.037H129.043V162.082Z" fill="#DBDBDB"/>
<path d="M129.043 168.394H124.789V171.349H129.043V168.394Z" fill="#DBDBDB"/>
<path d="M135.146 130.51H130.892V133.465H135.146V130.51Z" fill="#DBDBDB"/>
<path d="M135.146 136.828H130.892V139.783H135.146V136.828Z" fill="#DBDBDB"/>
<path d="M135.146 143.14H130.892V146.095H135.146V143.14Z" fill="#DBDBDB"/>
<path d="M135.146 149.452H130.892V152.407H135.146V149.452Z" fill="#DBDBDB"/>
<path d="M135.146 155.77H130.892V158.725H135.146V155.77Z" fill="#DBDBDB"/>
<path d="M135.146 162.082H130.892V165.037H135.146V162.082Z" fill="#DBDBDB"/>
<path d="M135.146 168.394H130.892V171.349H135.146V168.394Z" fill="#DBDBDB"/>
<path d="M138.921 121.309H122.923V126.339H138.921V121.309Z" fill="#DBDBDB"/>
<path d="M138.921 118.194H128.779V121.309H138.921V118.194Z" fill="#EBEBEB"/>
<path d="M155.783 126.333H138.921V174.585H155.783V126.333Z" fill="#A6A6A6"/>
<path d="M150.599 170.881H154.06V167.926H150.599V170.881Z" fill="#C7C7C7"/>
<path d="M150.599 164.569H154.06V161.614H150.599V164.569Z" fill="#C7C7C7"/>
<path d="M150.599 158.251H154.06V155.296H150.599V158.251Z" fill="#C7C7C7"/>
<path d="M150.599 151.934H154.06V148.979H150.599V151.934Z" fill="#C7C7C7"/>
<path d="M150.599 145.627H154.06V142.672H150.599V145.627Z" fill="#C7C7C7"/>
<path d="M150.599 139.31H154.06V136.354H150.599V139.31Z" fill="#C7C7C7"/>
<path d="M150.599 132.998H154.06V130.043H150.599V132.998Z" fill="#C7C7C7"/>
<path d="M145.618 170.881H149.08V167.926H145.618V170.881Z" fill="#C7C7C7"/>
<path d="M145.618 164.569H149.08V161.614H145.618V164.569Z" fill="#C7C7C7"/>
<path d="M145.618 158.251H149.08V155.296H145.618V158.251Z" fill="#C7C7C7"/>
<path d="M145.618 151.934H149.08V148.979H145.618V151.934Z" fill="#C7C7C7"/>
<path d="M145.618 145.627H149.08V142.672H145.618V145.627Z" fill="#C7C7C7"/>
<path d="M145.618 139.31H149.08V136.354H145.618V139.31Z" fill="#C7C7C7"/>
<path d="M145.618 132.998H149.08V130.043H145.618V132.998Z" fill="#C7C7C7"/>
<path d="M140.649 170.881H144.111V167.926H140.649V170.881Z" fill="#C7C7C7"/>
<path d="M140.649 164.569H144.111V161.614H140.649V164.569Z" fill="#C7C7C7"/>
<path d="M140.649 158.251H144.111V155.296H140.649V158.251Z" fill="#C7C7C7"/>
<path d="M140.649 151.934H144.111V148.979H140.649V151.934Z" fill="#C7C7C7"/>
<path d="M140.649 145.627H144.111V142.672H140.649V145.627Z" fill="#C7C7C7"/>
<path d="M140.649 139.31H144.111V136.354H140.649V139.31Z" fill="#C7C7C7"/>
<path d="M140.649 132.998H144.111V130.043H140.649V132.998Z" fill="#C7C7C7"/>
<path d="M153.229 121.309H138.921V126.339H153.229V121.309Z" fill="#C7C7C7"/>
<path d="M146.675 118.194H138.921V121.309H146.675V118.194Z" fill="#DBDBDB"/>
<path d="M116.056 242.185C173.687 242.185 220.406 238.388 220.406 233.705C220.406 229.021 173.687 225.224 116.056 225.224C58.4245 225.224 11.7052 229.021 11.7052 233.705C11.7052 238.388 58.4245 242.185 116.056 242.185Z" fill="#EBEBEB"/>
<path d="M0 178.585L29.0125 178.453L58.0306 178.404L116.056 178.31L174.081 178.404L203.099 178.448L232.111 178.585L203.099 178.718L174.081 178.767L116.056 178.861L58.0306 178.767L29.0125 178.718L0 178.585Z" fill="#292929"/>
<path d="M230.868 174.585H1.23822V178.586H230.868V174.585Z" fill="#C7C7C7"/>
<path d="M17.3403 174.585C17.6998 175.894 17.6998 177.276 17.3403 178.586C17.1469 177.938 17.0541 177.264 17.0652 176.588C17.0561 175.91 17.1488 175.235 17.3403 174.585Z" fill="#292929"/>
<path d="M35.286 174.585C35.4775 175.235 35.5703 175.91 35.5612 176.588C35.5723 177.264 35.4795 177.938 35.286 178.586C34.9265 177.276 34.9265 175.894 35.286 174.585Z" fill="#292929"/>
<path d="M53.2374 174.585C53.5969 175.894 53.5969 177.276 53.2374 178.586C53.044 177.938 52.9512 177.264 52.9623 176.588C52.9532 175.91 53.0459 175.235 53.2374 174.585Z" fill="#292929"/>
<path d="M71.1828 174.585C71.3743 175.235 71.4671 175.91 71.458 176.588C71.4691 177.264 71.3763 177.938 71.1828 178.586C70.8233 177.276 70.8233 175.894 71.1828 174.585Z" fill="#292929"/>
<path d="M89.1342 174.585C89.4937 175.894 89.4937 177.276 89.1342 178.586C88.9408 177.938 88.848 177.264 88.859 176.588C88.85 175.91 88.9427 175.235 89.1342 174.585Z" fill="#292929"/>
<path d="M107.08 174.585C107.271 175.235 107.364 175.91 107.355 176.588C107.366 177.264 107.273 177.938 107.08 178.586C106.72 177.276 106.72 175.894 107.08 174.585Z" fill="#292929"/>
<path d="M125.031 174.585C125.391 175.894 125.391 177.276 125.031 178.586C124.838 177.938 124.745 177.264 124.756 176.588C124.747 175.91 124.84 175.235 125.031 174.585Z" fill="#292929"/>
<path d="M142.977 174.585C143.169 175.235 143.261 175.91 143.252 176.588C143.263 177.264 143.171 177.938 142.977 178.586C142.618 177.276 142.618 175.894 142.977 174.585Z" fill="#292929"/>
<path d="M160.928 174.585C161.288 175.894 161.288 177.276 160.928 178.586C160.735 177.938 160.642 177.264 160.653 176.588C160.644 175.91 160.737 175.235 160.928 174.585Z" fill="#292929"/>
<path d="M178.874 174.585C179.065 175.235 179.158 175.91 179.149 176.588C179.16 177.264 179.067 177.938 178.874 178.586C178.514 177.276 178.514 175.894 178.874 174.585Z" fill="#292929"/>
<path d="M196.825 174.585C197.185 175.894 197.185 177.276 196.825 178.586C196.632 177.938 196.539 177.264 196.55 176.588C196.541 175.91 196.634 175.235 196.825 174.585Z" fill="#292929"/>
<path d="M214.771 174.585C214.962 175.235 215.055 175.91 215.046 176.588C215.057 177.264 214.964 177.938 214.771 178.586C214.411 177.276 214.411 175.894 214.771 174.585Z" fill="#292929"/>
<path d="M27.1357 174.585C27.1357 174.585 26.6735 172.422 25.7489 172.092C24.8244 171.762 24.2576 172.73 24.2576 172.73C24.2576 172.73 24.043 170.661 22.7277 170.045C21.4125 169.428 20.4329 170.694 20.4329 170.694C20.4329 170.694 19.4258 168.091 17.6263 168.091C15.8268 168.091 14.9243 171.943 14.9243 171.943C14.9243 171.943 13.8622 170.804 12.7725 171.448C11.6829 172.092 11.6719 174.623 11.6719 174.623L27.1357 174.585Z" fill="#37474F"/>
<path d="M180.585 174.585C180.585 174.585 180.123 172.422 179.198 172.092C178.274 171.762 177.713 172.73 177.713 172.73C177.713 172.73 177.492 170.661 176.183 170.045C174.873 169.428 173.888 170.694 173.888 170.694C173.888 170.694 172.881 168.091 171.087 168.091C169.293 168.091 168.379 171.943 168.379 171.943C168.379 171.943 167.323 170.804 166.233 171.448C165.143 172.092 165.132 174.623 165.132 174.623L180.585 174.585Z" fill="#455A64"/>
<path d="M68.0132 174.585H51.7514C51.7514 174.585 52.3017 172.296 53.3638 172.13C53.6932 172.098 54.0246 172.168 54.3124 172.332C54.6002 172.496 54.8302 172.744 54.9707 173.044C54.9707 173.044 54.9212 169.847 56.9354 169.302C58.9495 168.757 60.6335 171.58 60.6335 171.58C60.6335 171.58 61.8992 169.968 63.6162 170.072C65.3331 170.177 65.7789 172.824 65.7789 172.824C65.7789 172.824 67.3198 171.905 68.0132 174.585Z" fill="#37474F"/>
<path d="M12.6846 174.585H4.1272C4.1272 174.585 4.1272 173.314 4.98568 172.973C5.21447 172.874 5.46909 172.852 5.71124 172.911C5.9534 172.969 6.16999 173.105 6.32845 173.297C6.32845 173.297 6.66965 170.953 8.23804 170.953C9.80643 170.953 10.5604 172.973 10.5604 172.973C10.6934 172.78 10.88 172.63 11.0971 172.542C11.3142 172.454 11.5523 172.432 11.7821 172.477C12.6516 172.587 12.6846 174.585 12.6846 174.585Z" fill="#455A64"/>
<path d="M74.727 174.585H66.1696C66.1696 174.585 66.1696 173.314 67.0281 172.973C67.2569 172.874 67.5115 172.852 67.7537 172.911C67.9958 172.969 68.2124 173.105 68.3709 173.297C68.3709 173.297 68.7176 170.953 70.286 170.953C71.8544 170.953 72.6028 172.973 72.6028 172.973C72.7358 172.78 72.9224 172.63 73.1395 172.542C73.3566 172.454 73.5947 172.432 73.8245 172.477C74.694 172.587 74.727 174.585 74.727 174.585Z" fill="#455A64"/>
<path d="M215.497 174.585H206.94C206.94 174.585 206.94 173.314 207.798 172.973C208.027 172.874 208.282 172.852 208.524 172.911C208.766 172.969 208.983 173.105 209.141 173.297C209.141 173.297 209.482 170.953 211.051 170.953C212.619 170.953 213.373 172.973 213.373 172.973C213.505 172.779 213.692 172.629 213.909 172.541C214.126 172.453 214.365 172.431 214.595 172.477C215.464 172.587 215.497 174.585 215.497 174.585Z" fill="#455A64"/>
<path d="M227.984 174.585H213.874C213.874 174.585 213.907 172.483 215.294 171.927C215.671 171.768 216.089 171.737 216.486 171.836C216.883 171.935 217.237 172.16 217.495 172.477C217.495 172.477 218.045 168.625 220.648 168.625C223.251 168.625 224.467 171.943 224.467 171.943C224.686 171.625 224.994 171.378 225.352 171.232C225.71 171.087 226.102 171.049 226.481 171.123C227.929 171.294 227.984 174.585 227.984 174.585Z" fill="#37474F"/>
<g opacity="0.5">
<path opacity="0.5" d="M212.151 78.1642C212.151 78.6749 212 79.1742 211.716 79.5987C211.432 80.0233 211.029 80.3541 210.557 80.5493C210.085 80.7444 209.565 80.7952 209.065 80.6952C208.564 80.5952 208.104 80.3488 207.743 79.9873C207.383 79.6258 207.137 79.1654 207.038 78.6644C206.939 78.1633 206.991 77.6442 207.187 77.1727C207.384 76.7012 207.715 76.2985 208.14 76.0156C208.565 75.7326 209.065 75.5822 209.576 75.5833C209.914 75.5833 210.25 75.6501 210.563 75.7798C210.875 75.9096 211.16 76.0998 211.399 76.3395C211.638 76.5793 211.828 76.8638 211.957 77.177C212.086 77.4901 212.152 77.8256 212.151 78.1642Z" fill="#D2302E"/>
<path opacity="0.5" d="M209.576 82.5395C208.703 82.545 207.848 82.2907 207.119 81.8091C206.391 81.3274 205.823 80.6401 205.486 79.8346C205.149 79.029 205.06 78.1415 205.229 77.285C205.398 76.4284 205.818 75.6414 206.435 75.0241C207.053 74.4067 207.839 73.9869 208.696 73.8179C209.553 73.6489 210.44 73.7384 211.246 74.075C212.051 74.4116 212.738 74.9802 213.22 75.7084C213.702 76.4365 213.956 77.2915 213.951 78.1646C213.943 79.3227 213.48 80.4313 212.661 81.2502C211.842 82.0691 210.734 82.5323 209.576 82.5395ZM209.576 74.3399C208.82 74.3399 208.082 74.5635 207.454 74.9826C206.825 75.4017 206.335 75.9974 206.045 76.6946C205.755 77.3919 205.677 78.1595 205.823 78.9007C205.968 79.6418 206.329 80.3233 206.862 80.8593C207.394 81.3953 208.073 81.7617 208.813 81.9124C209.553 82.063 210.321 81.9912 211.02 81.7059C211.72 81.4207 212.319 80.9347 212.742 80.3094C213.166 79.6841 213.395 78.9473 213.4 78.1921C213.404 77.6875 213.308 77.1872 213.117 76.72C212.927 76.2528 212.645 75.8279 212.29 75.4698C211.934 75.1117 211.511 74.8276 211.046 74.6336C210.58 74.4397 210.08 74.3399 209.576 74.3399Z" fill="#D2302E"/>
<path opacity="0.5" d="M54.3323 53.4829C54.3334 53.9936 54.1829 54.4932 53.9 54.9183C53.6171 55.3435 53.2143 55.6752 52.7428 55.8714C52.2713 56.0676 51.7522 56.1195 51.2512 56.0205C50.7502 55.9215 50.2898 55.6761 49.9282 55.3154C49.5667 54.9547 49.3204 54.4948 49.2203 53.994C49.1203 53.4932 49.1711 52.974 49.3663 52.502C49.5615 52.0301 49.8923 51.6267 50.3168 51.3428C50.7414 51.059 51.2406 50.9075 51.7513 50.9075C52.4349 50.9075 53.0905 51.1786 53.5744 51.6615C54.0583 52.1443 54.3308 52.7994 54.3323 53.4829Z" fill="#D2302E"/>
<path opacity="0.5" d="M51.7511 57.8635C50.8792 57.869 50.0254 57.6154 49.2978 57.135C48.5702 56.6546 48.0016 55.9689 47.6642 55.1649C47.3267 54.361 47.2356 53.4749 47.4024 52.6191C47.5691 51.7633 47.9862 50.9763 48.6008 50.3578C49.2154 49.7394 49.9998 49.3173 50.8546 49.1452C51.7093 48.9731 52.5959 49.0587 53.402 49.3911C54.208 49.7235 54.8972 50.2877 55.3822 51.0123C55.8672 51.7369 56.1261 52.5891 56.1261 53.461C56.1261 54.6239 55.6661 55.7395 54.8464 56.5644C54.0267 57.3892 52.914 57.8563 51.7511 57.8635ZM51.7511 49.6584C50.9869 49.6529 50.2384 49.8749 49.6007 50.2961C48.963 50.7173 48.465 51.3186 48.17 52.0236C47.875 52.7286 47.7964 53.5054 47.9442 54.2552C48.092 55.0051 48.4594 55.694 48.9998 56.2344C49.5402 56.7748 50.2291 57.1422 50.9789 57.29C51.7287 57.4377 52.5055 57.3591 53.2105 57.0641C53.9155 56.7692 54.5169 56.2712 54.9381 55.6335C55.3593 54.9958 55.5813 54.2472 55.5758 53.483C55.5686 52.4709 55.1633 51.5022 54.4476 50.7865C53.7319 50.0708 52.7633 49.6656 51.7511 49.6584Z" fill="#D2302E"/>
<path opacity="0.5" d="M149.129 91.79H115.78V40.2366H71.7715V53.7578H55.851V53.2075H71.2212V39.6863H116.33V91.2397H148.579V76.959H186.325V63.0526H209.851V74.0644H209.3V63.6029H186.875V77.5093H149.129V91.79Z" fill="#D2302E"/>
</g>
<path d="M60.9141 26.6602C60.4573 22.0816 57.2985 17.5195 51.7514 17.5195C46.2042 17.5195 43.0509 22.1036 42.5941 26.6602C41.8952 33.7318 46.661 40.1374 51.7514 45.9817C56.8418 40.1594 61.613 33.7538 60.9141 26.6602ZM51.7514 31.7451C50.7585 31.7451 49.7879 31.4506 48.9625 30.8989C48.137 30.3472 47.4937 29.563 47.114 28.6456C46.7343 27.7282 46.6352 26.7188 46.8293 25.7451C47.0234 24.7714 47.502 23.8771 48.2044 23.1755C48.9069 22.4738 49.8017 21.9962 50.7756 21.8032C51.7495 21.6102 52.7588 21.7103 53.6758 22.091C54.5928 22.4717 55.3763 23.1159 55.9271 23.942C56.4779 24.768 56.7713 25.7389 56.7702 26.7318C56.7731 27.3925 56.6454 28.0472 56.3944 28.6583C56.1434 29.2695 55.7741 29.825 55.3077 30.2929C54.8413 30.7609 54.287 31.132 53.6767 31.385C53.0664 31.638 52.412 31.7679 51.7514 31.7671V31.7451Z" fill="#D2302E"/>
<path d="M233.394 62.5948C232.937 58.0162 229.778 53.4541 224.231 53.4541C218.684 53.4541 215.531 58.0382 215.074 62.5948C214.375 69.6663 219.141 76.072 224.231 81.9163C229.322 76.094 234.093 69.6883 233.394 62.5948ZM224.231 67.6797C223.238 67.6797 222.268 67.3852 221.442 66.8335C220.617 66.2818 219.974 65.4976 219.594 64.5802C219.214 63.6628 219.115 62.6534 219.309 61.6797C219.503 60.706 219.982 59.8117 220.684 59.11C221.387 58.4083 222.282 57.9308 223.255 57.7378C224.229 57.5447 225.239 57.6449 226.156 58.0256C227.073 58.4063 227.856 59.0505 228.407 59.8765C228.958 60.7026 229.251 61.6735 229.25 62.6663C229.253 63.327 229.125 63.9818 228.874 64.5929C228.623 65.2041 228.254 65.7596 227.788 66.2275C227.321 66.6955 226.767 67.0666 226.157 67.3196C225.546 67.5726 224.892 67.7024 224.231 67.7017V67.6797Z" fill="#D2302E"/>
<path d="M95.0306 118.89C97.161 127.018 99.9366 132.325 101.798 134.162C106.257 138.563 115.863 139.54 121.265 141.782C123.023 142.514 127.884 131.362 126.084 130.385C124.756 129.661 109.335 127.709 108.024 127.308C107.349 127.101 102.232 120.437 99.3368 116.689C94.6707 110.683 93.8641 114.451 95.0306 118.89Z" fill="#F7A9A0"/>
<path d="M129.708 143.345C128.881 143.325 128.852 143.759 130.006 144.715C131.16 145.67 136.533 148.438 135.404 150.237C134.275 152.036 126.75 147.999 124.951 146.27C123.151 144.541 120.839 141.116 120.839 141.116C122.465 141.608 126.523 142.423 129.708 143.345Z" fill="#F7A9A0"/>
<path d="M124.785 130.034C132.794 131.275 135.979 132.843 139.487 136.938C139.887 137.38 140.129 137.944 140.174 138.539C141.779 140.342 141.415 141.645 141.415 141.645C142.391 143.784 141.828 145.062 141.828 145.062C141.828 145.062 143.69 147.201 142.581 148.541C141.34 150.047 138.974 146.746 136.562 145.728C131.032 143.391 122.498 141.621 120.843 141.108L124.785 130.034Z" fill="#F7A9A0"/>
<path d="M132.471 139.217C134.099 139.88 135.678 140.654 137.199 141.534C138.803 142.598 140.324 143.782 141.75 145.075C141.759 145.08 141.771 145.082 141.782 145.081C141.793 145.079 141.803 145.074 141.81 145.066C141.818 145.057 141.823 145.047 141.824 145.036C141.825 145.025 141.822 145.014 141.816 145.004C139.307 142.235 136.086 140.208 132.504 139.143C132.422 139.118 132.388 139.18 132.471 139.217Z" fill="#292929"/>
<path d="M133.394 135.672C134.928 136.458 137.609 137.86 141.361 141.691C141.361 141.691 141.398 141.691 141.386 141.691C139.349 138.966 136.595 136.862 133.431 135.614C133.332 135.556 133.294 135.618 133.394 135.672Z" fill="#292929"/>
<path d="M133.927 133.777C136.48 135.217 137.907 136.445 140.153 138.547C140.153 138.547 140.186 138.547 140.174 138.526C137.878 135.871 136.744 135.167 133.969 133.682C133.869 133.633 133.828 133.719 133.927 133.777Z" fill="#292929"/>
<path d="M104.115 122.575L96.739 129.488C96.739 129.488 93.7607 118.765 93.7814 115.373C93.7814 111.547 95.7504 112.391 98.3317 114.96C100.913 117.529 104.115 122.575 104.115 122.575Z" fill="#D2302E"/>
<path opacity="0.1" d="M104.115 122.575L96.739 129.488C96.739 129.488 93.7607 118.765 93.7814 115.373C93.7814 111.547 95.7504 112.391 98.3317 114.96C100.913 117.529 104.115 122.575 104.115 122.575Z" fill="#292929"/>
<path d="M102.605 121.483C101.546 122.236 98.6873 124.941 98.2075 125.384C97.9551 125.62 96.9954 126.592 96.7431 126.824C96.71 126.853 96.7431 126.898 96.7927 126.869C97.2767 126.431 97.8062 126.042 98.2902 125.599C98.7742 125.157 101.786 122.513 102.638 121.52C102.658 121.5 102.63 121.467 102.605 121.483Z" fill="#292929"/>
<path d="M143.202 205.523C142.2 205.85 113.376 204.696 112.297 203.997C112.164 203.918 111.651 198.375 111.651 198.375L114.986 177.075L133.911 177.328L130.258 195.529C130.258 195.529 134.428 197.448 137.865 199.124C139.983 200.15 141.824 201.089 142.246 201.432C143.355 202.317 144.207 205.2 143.202 205.523Z" fill="#F7A9A0"/>
<path d="M143.206 205.523C142.205 205.85 113.372 204.696 112.297 204.001C112.169 203.918 111.647 198.375 111.647 198.375L112.677 191.814L130.833 192.642L130.246 195.513C130.246 195.513 134.411 197.432 137.853 199.103C139.971 200.129 141.812 201.068 142.234 201.411C143.35 202.321 144.203 205.205 143.206 205.523Z" fill="#EBEBEB"/>
<path d="M143.189 205.552C142.167 205.871 113.153 205.196 112.065 204.468C111.652 204.199 111.498 199.963 111.465 194.842V194.685L130.192 194.913V195.227C130.192 195.227 141.183 200.456 142.296 201.382C143.408 202.309 144.211 205.246 143.189 205.552Z" fill="#C7C7C7"/>
<path d="M141.535 205.635C135.185 205.701 112.992 205.105 112.065 204.472C111.652 204.203 111.498 199.968 111.465 194.846V194.689L123.193 194.83L141.535 205.635Z" fill="#A6A6A6"/>
<path d="M142.887 204.427C137.998 204.191 118.258 203.707 113.41 203.848C113.368 203.848 113.368 203.877 113.41 203.881C118.249 204.216 137.989 204.539 142.883 204.506C142.986 204.506 142.991 204.431 142.887 204.427Z" fill="#292929"/>
<path d="M131.747 195.326C129.832 194.913 127.47 195.161 125.956 196.501C125.898 196.551 125.956 196.634 126.035 196.613C127.888 196.063 129.795 195.714 131.723 195.571C131.752 195.569 131.78 195.557 131.802 195.537C131.823 195.516 131.837 195.489 131.84 195.459C131.843 195.43 131.835 195.4 131.818 195.376C131.801 195.351 131.776 195.334 131.747 195.326Z" fill="#292929"/>
<path d="M133.117 196.195C131.201 195.781 128.839 196.034 127.325 197.37C127.267 197.419 127.325 197.502 127.404 197.486C129.261 196.938 131.173 196.591 133.104 196.451C133.138 196.453 133.171 196.441 133.197 196.418C133.222 196.395 133.237 196.363 133.239 196.329C133.24 196.295 133.228 196.262 133.205 196.237C133.183 196.212 133.151 196.197 133.117 196.195Z" fill="#292929"/>
<path d="M134.486 197.064C132.57 196.65 130.208 196.902 128.694 198.238C128.636 198.292 128.694 198.371 128.773 198.354C130.626 197.803 132.533 197.453 134.461 197.308C134.49 197.306 134.519 197.294 134.54 197.274C134.562 197.253 134.575 197.226 134.578 197.196C134.581 197.167 134.573 197.137 134.556 197.113C134.539 197.089 134.514 197.071 134.486 197.064Z" fill="#292929"/>
<path d="M131.847 192.774L110.721 191.814C110.721 191.814 118.022 162.167 117.244 161.203C116.417 160.169 85.8307 167.822 79.7168 160.235C73.4539 152.463 76.5936 141.273 76.5936 141.273H97.4547C97.4547 141.273 97.041 144.073 97.3223 145.41C97.3223 145.41 126.692 140.917 133.079 144.301C134.32 144.967 138.871 148.706 138.945 152.252C139.346 167.909 131.847 192.774 131.847 192.774Z" fill="#455A64"/>
<path d="M132.058 188.948C129.551 188.633 127.04 188.443 124.521 188.253C122.001 188.063 119.482 187.914 116.963 187.819C115.54 187.761 114.117 187.773 112.694 187.723C112.687 187.726 112.68 187.731 112.676 187.737C112.671 187.743 112.669 187.751 112.669 187.759C112.669 187.766 112.671 187.774 112.676 187.78C112.68 187.786 112.687 187.791 112.694 187.794C113.96 187.885 115.221 188.046 116.487 188.145L120.235 188.418C122.754 188.584 125.273 188.724 127.793 188.878C129.212 188.964 130.63 189.01 132.053 189.043C132.064 189.04 132.073 189.035 132.08 189.026C132.087 189.018 132.091 189.008 132.091 188.997C132.091 188.986 132.088 188.976 132.082 188.967C132.076 188.958 132.068 188.951 132.058 188.948Z" fill="#292929"/>
<path d="M120.5 159.098C116.442 159.23 112.404 159.582 108.367 159.979C104.33 160.376 100.267 160.806 96.197 161.071C94.1783 161.199 92.1514 161.282 90.1244 161.294C88.4409 161.367 86.7558 161.191 85.1233 160.773C83.5024 160.299 82.1171 159.237 81.239 157.795C80.3562 156.333 79.7779 154.708 79.5388 153.017C79.0052 149.596 79.5388 146.1 80.1634 142.725C80.242 142.311 80.3206 141.898 80.3951 141.451C80.3951 141.414 80.3413 141.397 80.3289 141.451C79.5016 144.855 78.728 148.359 78.9762 151.875C79.0777 153.601 79.4985 155.292 80.2172 156.864C80.8655 158.391 81.9805 159.674 83.4024 160.529C84.8544 161.356 86.5711 161.6 88.2381 161.683C90.1824 161.782 92.1514 161.683 94.0956 161.596C98.2571 161.394 102.402 160.963 106.539 160.533C110.675 160.103 114.791 159.681 118.948 159.474C119.408 159.449 119.867 159.433 120.326 159.416C119.697 163.139 114.373 185.303 114.076 187.057C114.047 187.231 114.212 187.285 114.258 187.107C115.168 183.653 120.334 161.46 120.678 159.292C120.683 159.267 120.682 159.241 120.676 159.216C120.669 159.191 120.656 159.168 120.639 159.149C120.622 159.13 120.6 159.115 120.576 159.106C120.551 159.097 120.525 159.095 120.5 159.098Z" fill="#292929"/>
<path d="M136.786 206.388H91.6386V211.381H136.786V206.388Z" fill="#D2302E"/>
<path d="M51.9641 162.585H54.5247L71.0712 181.514H68.5107L51.9641 162.585Z" fill="#A6A6A6"/>
<path d="M84.2133 161.083H48.63V162.581H84.2133V161.083Z" fill="#A6A6A6"/>
<path d="M61.619 162.585H64.1796L80.7261 181.514H78.1656L61.619 162.585Z" fill="#A6A6A6"/>
<path d="M78.0827 197.482C90.9393 197.482 98.3894 206.413 98.3894 216.924C98.3894 227.435 91.4895 236.163 78.9514 236.163C65.0771 236.163 58.4503 225.127 58.4503 216.829C58.4503 208.531 65.0689 197.482 78.0827 197.482Z" fill="#37474F"/>
<path d="M76.1054 197.482C88.3292 197.482 95.4069 206.413 95.4069 216.924C95.4069 227.435 88.8504 236.163 76.9245 236.163C63.7328 236.163 57.4409 225.11 57.4409 216.812C57.4409 208.514 63.7328 197.482 76.1054 197.482Z" fill="#292929"/>
<path d="M76.2295 205.031C83.6754 205.031 87.9899 210.475 87.9899 216.878C87.9899 223.282 83.994 228.597 76.73 228.597C68.6884 228.597 64.8496 221.871 64.8496 216.812C64.8496 211.753 68.6884 205.031 76.2295 205.031Z" fill="#C7C7C7"/>
<path d="M114.477 173.915V172.223L71.2116 173.617V177.423C71.2116 177.423 58.6818 191.26 57.416 205.643L100.801 206.562L107.771 206.388H116.33V197.693C116.33 197.693 109.86 192.977 110.994 183.343C111.37 180.145 114.477 173.915 114.477 173.915Z" fill="#D2302E"/>
<path d="M96.7597 204.547C96.3088 205.374 89.7274 206.562 77.2513 206.897C66.0204 207.199 57.6313 206.95 56.9818 206.226C56.3324 205.503 57.987 192.7 65.5902 185.767C73.1933 178.834 83.9568 177.837 91.0553 181.973C97.2974 185.601 101.955 194.822 96.7597 204.547Z" fill="#D2302E"/>
<path opacity="0.1" d="M98.8777 192.427C98.2107 189.395 96.6722 186.624 94.4515 184.455C92.2253 182.225 89.4454 180.627 86.3975 179.826C82.9975 178.978 79.4367 179.016 76.0559 179.938C74.3639 180.382 72.7278 181.016 71.1788 181.829C69.5434 182.707 68.002 183.751 66.5789 184.943C66.1983 185.258 65.8136 185.572 65.4371 185.895C65.4041 185.92 65.4371 185.965 65.4868 185.94C66.9187 184.681 68.4689 183.563 70.1157 182.602C71.6184 181.744 73.2127 181.057 74.8687 180.555C78.1517 179.528 81.6383 179.332 85.0158 179.984C88.0684 180.597 90.8976 182.027 93.2022 184.12C95.4229 186.12 97.0562 188.687 97.9262 191.546C98.9604 195.029 98.6212 198.863 97.5912 202.301C97.4547 202.764 97.3058 203.219 97.1527 203.674C97.1527 203.724 97.2106 203.74 97.2272 203.695C98.6171 200.125 99.6554 196.278 98.8777 192.427Z" fill="#292929"/>
<path d="M68.8042 208.216C61.2714 208.216 57.2837 207.985 55.2609 207.182L56.1999 204.82C58.5661 205.759 65.9748 205.743 77.8965 205.606C86.7034 205.503 93.2021 204.671 97.256 203.124L98.1619 205.498C93.7771 207.153 87.1585 208.03 77.9255 208.138C74.4218 208.187 71.402 208.216 68.8042 208.216Z" fill="#DBDBDB"/>
<path d="M115.188 173.336C115.188 173.336 115.478 163.871 115.188 163.499C114.899 163.127 71.1002 162.337 69.7888 162.453C68.4775 162.568 68.3452 173.621 68.4444 174.138C68.5437 174.656 114.047 173.435 115.188 173.336Z" fill="#37474F"/>
<path d="M119.292 163.69C119.164 163.541 113.612 163.384 113.306 163.375C113 163.367 112.893 173.456 113.058 173.448C113.223 173.44 119.089 173.522 119.284 173.307C119.478 173.092 119.569 164.012 119.292 163.69Z" fill="#455A64"/>
<path d="M88.6147 162.461C88.4578 162.624 88.3553 162.832 88.321 163.056C88.2691 163.293 88.2318 163.532 88.2094 163.772C88.1556 164.252 88.1266 164.74 88.1018 165.224C88.0604 166.2 88.0356 167.181 88.0191 168.165C88.0025 169.15 87.9777 170.126 88.0191 171.098C88.0227 171.58 88.0559 172.06 88.1184 172.538C88.1432 172.768 88.1974 172.995 88.2797 173.212C88.3099 173.309 88.3634 173.398 88.4355 173.47C88.5075 173.542 88.596 173.595 88.6933 173.626C88.5842 173.622 88.4782 173.588 88.388 173.526C88.2978 173.465 88.2272 173.379 88.1845 173.278C88.0688 173.062 87.9786 172.833 87.9157 172.596C87.7986 172.111 87.7225 171.617 87.6881 171.119C87.6118 170.128 87.5869 169.134 87.6137 168.14C87.6385 167.152 87.6799 166.159 87.7916 165.17C87.8453 164.676 87.924 164.184 88.0273 163.698C88.0851 163.457 88.1555 163.219 88.2383 162.986C88.3045 162.783 88.4203 162.531 88.6147 162.461Z" fill="#455A64"/>
<path d="M50.2764 161.063H91.6386V135.349H50.2764V161.063Z" fill="#37474F"/>
<path d="M50.2765 161.063H80.1595V135.349H50.2765V161.063Z" fill="#292929"/>
<path d="M66.8269 135.345H63.6127V161.059H66.8269V135.345Z" fill="#D2302E"/>
<path d="M80.1636 132.967H49.4367V135.345H80.1636V132.967Z" fill="#37474F"/>
<path d="M92.5652 132.967H80.1595V135.345H92.5652V132.967Z" fill="#292929"/>
<path d="M67.096 132.967H63.3399V135.345H67.096V132.967Z" fill="#D2302E"/>
<path d="M54.6571 133.074H84.8503V114.302H54.6571V133.074Z" fill="#37474F"/>
<path d="M54.6569 133.074H76.4694V114.302H54.6569V133.074Z" fill="#292929"/>
<path d="M66.736 114.306H64.3905V133.078H66.736V114.306Z" fill="#D2302E"/>
<path d="M76.4695 112.569H54.0406V114.306H76.4695V112.569Z" fill="#37474F"/>
<path d="M85.5244 112.569H76.4694V114.306H85.5244V112.569Z" fill="#292929"/>
<path d="M66.9345 112.569H64.192V114.306H66.9345V112.569Z" fill="#D2302E"/>
<path d="M172.514 197.324C185.374 197.324 192.82 206.255 192.82 216.767C192.82 227.278 185.921 235.994 173.378 235.994C159.5 235.994 152.873 224.957 152.873 216.663C152.873 208.369 159.5 197.324 172.514 197.324Z" fill="#37474F"/>
<path d="M170.536 197.324C182.76 197.324 189.842 206.255 189.842 216.767C189.842 227.278 183.281 235.994 171.36 235.994C158.168 235.994 151.868 224.957 151.868 216.663C151.868 208.369 158.168 197.324 170.536 197.324Z" fill="#292929"/>
<path d="M170.661 204.874C178.106 204.874 182.425 210.317 182.425 216.721C182.425 223.124 178.429 228.44 171.161 228.44C163.124 228.44 159.285 221.714 159.285 216.659C159.285 211.604 163.124 204.874 170.661 204.874Z" fill="#C7C7C7"/>
<path d="M151.711 153.414H146.651L143.185 148.326H149.113L151.711 153.414Z" fill="#D2302E"/>
<path d="M143.185 148.326L145.216 151.304L146.651 153.414H151.711L150.341 150.733L149.109 148.326H143.185Z" fill="#D2302E"/>
<path opacity="0.1" d="M143.185 148.326L145.216 151.304L150.341 150.733L149.109 148.326H143.185Z" fill="#292929"/>
<path d="M164.005 191.384L159.078 192.518L154.561 188.331L160.336 187.008L164.005 191.384Z" fill="#D2302E"/>
<path d="M154.561 188.331L157.204 190.784L159.074 192.518L164.009 191.384L162.073 189.08L160.336 187.008L154.561 188.331Z" fill="#D2302E"/>
<path opacity="0.1" d="M154.561 188.331L157.204 190.784L162.073 189.08L160.336 187.008L154.561 188.331Z" fill="#292929"/>
<path d="M191.704 199.806L186.918 202.321C186.918 202.321 173.056 199.806 164.166 201.709C155.276 203.612 152.877 208.361 152.877 208.361H148.385C148.385 208.361 152.24 194.664 158.78 189.692C165.32 184.72 175.831 185.833 181.643 188.964C187.455 192.096 191.704 199.806 191.704 199.806Z" fill="#D2302E"/>
<path opacity="0.1" d="M186.413 201.374C185.486 200.406 184.481 199.515 183.41 198.71C182.348 197.885 181.225 197.141 180.051 196.485C177.775 195.22 175.278 194.4 172.696 194.069C167.641 193.448 162.354 194.921 158.631 198.805C156.538 201.006 155.049 203.707 153.634 206.433C153.613 206.475 153.671 206.508 153.692 206.466C154.891 204.069 156.404 201.844 158.193 199.848C159.916 197.966 162.061 196.52 164.451 195.628C169.221 193.879 174.379 194.549 178.963 196.662C180.275 197.257 181.542 197.949 182.752 198.731C183.99 199.564 185.184 200.46 186.33 201.415C186.337 201.422 186.347 201.426 186.357 201.428C186.367 201.429 186.377 201.428 186.386 201.423C186.395 201.419 186.402 201.412 186.407 201.403C186.412 201.394 186.414 201.384 186.413 201.374Z" fill="#292929"/>
<path d="M133.816 150.675C133.741 150.849 123.751 152.686 123.751 152.686C123.751 152.686 122.097 151.569 123.118 150.154L133.141 147.991C133.527 148.307 133.8 148.738 133.922 149.222C134.043 149.705 134.006 150.215 133.816 150.675Z" fill="#292929"/>
<path d="M154.784 137.761V149.612C154.784 149.612 148.385 149.054 146.681 148.996C144.976 148.938 137.402 149.919 137.402 149.919L136.815 147.263C136.815 147.263 142.656 145.224 145.138 143.631C147.62 142.038 150.478 138.994 152.013 138.319C152.881 137.923 153.83 137.731 154.784 137.761Z" fill="#D2302E"/>
<path d="M137.427 146.928C137.807 147.319 138.094 147.791 138.266 148.309C138.438 148.827 138.491 149.377 138.42 149.918C138.42 149.918 133.65 150.791 133.592 150.791C133.632 150.23 133.496 149.671 133.203 149.19C132.91 148.71 132.475 148.333 131.958 148.111L137.427 146.928Z" fill="#DBDBDB"/>
<path d="M154.846 149.613C156.578 149.613 157.982 146.96 157.982 143.689C157.982 140.417 156.578 137.765 154.846 137.765C153.114 137.765 151.711 140.417 151.711 143.689C151.711 146.96 153.114 149.613 154.846 149.613Z" fill="#DBDBDB"/>
<path d="M155.041 148.975C156.523 148.975 157.725 146.609 157.725 143.689C157.725 140.769 156.523 138.402 155.041 138.402C153.558 138.402 152.356 140.769 152.356 143.689C152.356 146.609 153.558 148.975 155.041 148.975Z" fill="white"/>
<path d="M155.856 153.431C156.898 154.957 161.072 175.715 161.891 176.757C162.71 177.799 164.278 177.874 164.278 177.874L167.037 184.732C167.037 184.732 160.182 186.896 156.377 190.023C151.458 194.065 146.912 207.463 146.912 207.463C146.168 207.984 136.926 211.786 134.391 211.935C134.391 211.935 146.176 198.996 147.136 181.088C147.508 174.151 143.239 164.38 142.962 159.54C142.656 154.345 144.227 153.431 146.987 153.431H155.856Z" fill="#D2302E"/>
<path d="M133.824 213.412L131.979 211.666C142.32 200.721 146.134 183.475 145.832 178.767C145.675 176.356 144.902 173.659 144.079 170.8C143.202 167.752 142.209 164.298 141.787 160.546C141.394 157.063 141.787 154.812 142.974 153.468C144.161 152.123 145.791 152.128 146.875 152.132H156.72V154.672H146.871C145.923 154.672 145.278 154.705 144.869 155.164C144.459 155.623 143.925 156.818 144.314 160.264C144.728 163.801 145.634 167.003 146.523 170.097C147.384 173.092 148.178 175.917 148.368 178.602C148.691 183.628 144.724 201.924 133.824 213.412Z" fill="#DBDBDB"/>
<path d="M161.941 182.42C162.52 184.555 164.344 185.911 166.015 185.456C167.686 185.001 168.576 182.904 167.992 180.774C167.409 178.643 165.585 177.278 163.914 177.733C162.242 178.188 161.357 180.29 161.941 182.42Z" fill="#DBDBDB"/>
<path d="M162.561 182.251C163.078 184.153 164.658 185.378 166.09 184.989C167.521 184.6 168.257 182.743 167.744 180.852C167.231 178.962 165.647 177.725 164.22 178.114C162.793 178.503 162.044 180.348 162.561 182.251Z" fill="white"/>
<path opacity="0.1" d="M154.623 182.077C154.164 179.93 153.667 177.791 153.237 175.64C152.807 173.489 152.41 171.334 152.075 169.171C151.748 167.156 151.396 165.121 151.268 163.081C151.14 160.951 151.268 158.8 152.302 156.877C152.304 156.873 152.306 156.869 152.306 156.864C152.307 156.86 152.307 156.855 152.305 156.851C152.304 156.847 152.302 156.843 152.3 156.84C152.297 156.836 152.294 156.833 152.29 156.831C152.286 156.829 152.282 156.827 152.277 156.827C152.273 156.826 152.269 156.827 152.264 156.828C152.26 156.829 152.256 156.831 152.253 156.834C152.249 156.836 152.246 156.84 152.244 156.843C151.181 158.395 150.834 160.26 150.776 162.109C150.781 164.148 150.961 166.182 151.314 168.19C151.917 172.599 152.745 176.975 153.795 181.299C154.395 183.744 155.169 186.147 155.996 188.522C155.996 188.529 155.999 188.537 156.005 188.542C156.01 188.548 156.017 188.551 156.025 188.551C156.033 188.551 156.04 188.548 156.046 188.542C156.051 188.537 156.054 188.529 156.054 188.522C155.56 186.362 155.083 184.214 154.623 182.077Z" fill="#292929"/>
<path opacity="0.1" d="M116.33 197.693V206.38H108.917V199.802C108.917 199.802 104.78 197.713 103.953 190.114C103.209 183.231 108.702 174.044 109.744 172.376L114.464 172.223V173.915C114.464 173.915 111.358 180.145 110.981 183.343C109.86 192.977 116.33 197.693 116.33 197.693Z" fill="#292929"/>
<path d="M134.974 208.41C133.973 208.733 105.145 207.583 104.065 206.884C103.937 206.805 103.424 201.258 103.424 201.258L106.758 179.959L125.683 180.211L122.03 198.412C122.03 198.412 126.196 200.328 129.638 202.003C131.756 203.033 133.596 203.972 134.018 204.311C135.123 205.205 135.975 208.088 134.974 208.41Z" fill="#F7A9A0"/>
<path d="M134.978 208.411C133.973 208.733 105.144 207.583 104.069 206.884C103.937 206.806 103.419 201.262 103.419 201.262L104.45 194.698L122.605 195.525L122.03 198.387C122.03 198.387 126.196 200.307 129.637 201.978C131.751 203.008 133.596 203.947 134.018 204.286C135.123 205.209 135.975 208.088 134.978 208.411Z" fill="#EBEBEB"/>
<path d="M134.957 208.448C133.94 208.766 104.921 208.088 103.833 207.36C103.42 207.091 103.271 202.859 103.238 197.738V197.577L121.96 197.804V198.123C121.96 198.123 132.951 203.347 134.064 204.274C135.176 205.2 135.979 208.129 134.957 208.448Z" fill="#C7C7C7"/>
<path d="M134.655 207.31C129.77 207.079 110.03 206.595 105.182 206.735C105.14 206.735 105.14 206.764 105.182 206.764C110.022 207.103 129.762 207.426 134.655 207.393C134.759 207.389 134.759 207.314 134.655 207.31Z" fill="#292929"/>
<path d="M123.519 198.21C121.604 197.796 119.242 198.048 117.728 199.384C117.666 199.438 117.728 199.517 117.807 199.5C119.66 198.949 121.567 198.598 123.495 198.454C123.524 198.452 123.552 198.44 123.574 198.42C123.595 198.399 123.609 198.372 123.612 198.342C123.615 198.313 123.607 198.283 123.59 198.259C123.573 198.234 123.548 198.217 123.519 198.21Z" fill="#292929"/>
<path d="M124.889 199.082C122.973 198.669 120.611 198.917 119.097 200.253C119.04 200.307 119.097 200.39 119.176 200.369C121.03 199.817 122.939 199.467 124.868 199.322C124.884 199.324 124.9 199.322 124.915 199.317C124.93 199.312 124.944 199.305 124.956 199.295C124.968 199.284 124.978 199.272 124.985 199.258C124.993 199.244 124.997 199.229 124.998 199.213C125 199.197 124.998 199.181 124.993 199.166C124.988 199.151 124.981 199.137 124.971 199.125C124.96 199.113 124.948 199.103 124.934 199.096C124.92 199.088 124.904 199.084 124.889 199.082Z" fill="#292929"/>
<path d="M126.258 199.951C124.343 199.538 121.981 199.786 120.467 201.126C120.409 201.176 120.467 201.258 120.545 201.238C122.399 200.69 124.306 200.34 126.233 200.195C126.263 200.194 126.291 200.182 126.312 200.161C126.334 200.141 126.347 200.113 126.35 200.084C126.353 200.054 126.346 200.025 126.329 200.001C126.312 199.976 126.287 199.959 126.258 199.951Z" fill="#292929"/>
<path d="M123.627 195.661L102.501 194.698C102.501 194.698 109.807 165.05 109.029 164.086C108.202 163.048 80.3455 170.705 74.2274 163.118C67.9645 155.346 74.2274 142.336 74.2274 142.336H95.6427C95.6427 142.336 95.6427 144.719 94.1866 148.285C94.1866 148.285 118.469 143.788 124.868 147.172C126.13 147.842 130.659 151.581 130.734 155.127C131.106 170.804 123.627 195.661 123.627 195.661Z" fill="#455A64"/>
<path d="M123.83 191.835C121.323 191.521 118.808 191.326 116.289 191.14C113.769 190.954 111.254 190.801 108.731 190.702C107.312 190.648 105.889 190.66 104.466 190.607C104.456 190.607 104.447 190.61 104.44 190.617C104.433 190.624 104.429 190.634 104.429 190.644C104.429 190.654 104.433 190.663 104.44 190.67C104.447 190.677 104.456 190.681 104.466 190.681C105.732 190.772 106.994 190.929 108.259 191.029C109.525 191.128 110.741 191.219 112.007 191.302C114.522 191.471 117.041 191.608 119.561 191.765C120.984 191.852 122.402 191.897 123.825 191.93C123.836 191.928 123.845 191.922 123.852 191.914C123.859 191.905 123.863 191.895 123.863 191.884C123.864 191.874 123.861 191.863 123.855 191.854C123.848 191.845 123.84 191.839 123.83 191.835Z" fill="#292929"/>
<path d="M83.1833 144.127C83.1553 144.215 83.1193 144.299 83.0758 144.38C83.0711 144.386 83.0685 144.393 83.0685 144.4C83.0685 144.408 83.0711 144.415 83.0758 144.421C82.8276 145.195 82.7242 146.014 82.4842 146.791C82.2564 147.617 81.7509 148.339 81.053 148.835C79.5886 149.852 77.8305 150.312 76.1263 150.734C76.116 150.737 76.107 150.743 76.1006 150.751C76.0942 150.76 76.0908 150.77 76.0908 150.781C76.0908 150.792 76.0942 150.802 76.1006 150.811C76.107 150.819 76.116 150.826 76.1263 150.829C77.1087 150.834 78.0859 150.685 79.0219 150.386C79.9013 150.143 80.7305 149.745 81.4708 149.211C82.1661 148.685 82.662 147.938 82.8772 147.093C82.9813 146.644 83.0628 146.19 83.1213 145.732C83.217 145.206 83.2737 144.674 83.2909 144.14C83.2848 144.132 83.2772 144.125 83.2684 144.12C83.2596 144.115 83.2499 144.112 83.2398 144.11C83.2297 144.109 83.2195 144.11 83.2098 144.113C83.2001 144.116 83.1911 144.121 83.1833 144.127Z" fill="#292929"/>
<path d="M97.6324 147.226C96.4675 147.562 95.3329 147.995 94.2403 148.52L94.1865 148.545C94.209 148.478 94.2256 148.409 94.2362 148.338C94.2362 148.256 94.261 148.177 94.2776 148.094C94.2941 148.012 94.2776 147.925 94.3024 147.838V147.705C94.4431 147.696 94.5805 147.658 94.7058 147.593C94.8311 147.529 94.9416 147.439 95.0304 147.329C95.2589 147.012 95.413 146.647 95.4813 146.262C95.6096 145.782 95.7295 145.294 95.8329 144.806C95.9363 144.317 96.048 143.718 96.1349 143.151C96.24 142.615 96.3022 142.071 96.3211 141.525C96.3211 141.506 96.3132 141.487 96.2992 141.473C96.2853 141.459 96.2663 141.451 96.2466 141.451C96.2268 141.451 96.2079 141.459 96.1939 141.473C96.18 141.487 96.1721 141.506 96.1721 141.525C96.0439 142.026 95.986 142.543 95.8908 143.048C95.7957 143.552 95.6881 144.061 95.5723 144.566C95.4565 145.07 95.3324 145.575 95.1917 146.071C95.0511 146.568 94.9436 147.159 94.4306 147.312C93.3716 147.614 93.8473 145.244 93.8928 144.773C94.0004 143.697 94.0666 142.597 94.2569 141.529C94.2569 141.488 94.1948 141.467 94.1865 141.529C93.9549 142.51 93.6943 143.474 93.5206 144.466C93.4337 144.955 93.3716 145.447 93.3179 145.935C93.232 146.358 93.2664 146.796 93.4171 147.201C93.4828 147.337 93.5808 147.456 93.7026 147.546C93.8244 147.636 93.9664 147.695 94.1162 147.718L94.0831 147.829C94.0583 147.908 94.0335 147.987 94.0128 148.065C93.9921 148.144 93.9756 148.227 93.959 148.305C93.9226 148.399 93.9098 148.499 93.9218 148.599C93.931 148.627 93.9502 148.65 93.9756 148.665C93.5247 148.86 93.0697 149.054 92.6229 149.265C92.0613 149.486 91.5177 149.75 90.9972 150.055C90.9352 150.084 90.9972 150.167 91.0427 150.154C91.6251 149.991 92.1948 149.785 92.747 149.538C93.3137 149.323 93.8722 149.091 94.4347 148.855C95.5491 148.446 96.6271 147.944 97.6572 147.354C97.6742 147.35 97.6892 147.341 97.6989 147.326C97.7086 147.312 97.7122 147.294 97.7089 147.277C97.7056 147.26 97.6957 147.245 97.6813 147.236C97.667 147.226 97.6494 147.222 97.6324 147.226Z" fill="#292929"/>
<path d="M130.105 152.434C129.372 150.279 127.889 148.46 125.927 147.308C123.913 146.196 121.563 145.898 119.308 145.828C116.686 145.749 114.047 145.885 111.428 146.051C108.64 146.225 105.852 146.489 103.08 146.878C100.309 147.267 97.587 147.743 94.861 148.33C94.2074 148.471 93.5579 148.645 92.9085 148.827C92.8589 148.827 92.8671 148.934 92.9085 148.926C95.618 148.545 98.3151 148.099 101.025 147.726C103.734 147.354 106.473 147.06 109.211 146.853C111.949 146.647 114.659 146.531 117.385 146.489C119.619 146.456 121.935 146.489 124.057 147.209C125.107 147.544 126.078 148.086 126.916 148.802C127.738 149.537 128.412 150.423 128.901 151.412C130.018 153.609 130.122 156.128 130.233 158.56C130.556 165.778 125.364 188.716 124.442 192.402C124.44 192.434 124.449 192.466 124.467 192.492C124.486 192.518 124.513 192.536 124.545 192.544C124.576 192.552 124.609 192.549 124.637 192.535C124.666 192.521 124.689 192.497 124.703 192.468C125.741 188.307 130.908 166.639 130.908 160.128C130.912 157.53 131.007 154.883 130.105 152.434Z" fill="#292929"/>
<path d="M112.131 161.588C108.346 161.72 104.582 162.072 100.818 162.469C97.0532 162.866 93.2599 163.296 89.4708 163.561C87.5845 163.689 85.694 163.772 83.8036 163.785C82.2318 163.858 80.6583 163.682 79.1416 163.263C77.6012 162.766 76.3064 161.703 75.5179 160.289C74.6903 158.808 74.1526 157.182 73.9336 155.499C73.4372 152.078 73.9336 148.582 74.5168 145.207C74.5913 144.793 74.6616 144.38 74.7361 143.937C74.7361 143.896 74.6823 143.879 74.674 143.937C73.8839 147.341 73.1766 150.845 73.4331 154.361C73.527 156.08 73.9175 157.769 74.5872 159.354C75.171 160.855 76.2095 162.135 77.5573 163.015C78.9452 163.758 80.4922 164.154 82.0662 164.169C83.8879 164.238 85.712 164.209 87.5307 164.082C91.4108 163.88 95.2745 163.449 99.1339 163.019C102.993 162.589 106.828 162.167 110.692 161.96C111.105 161.94 111.548 161.919 111.974 161.907C111.391 165.609 106.427 187.789 106.15 189.543C106.121 189.717 106.278 189.771 106.319 189.597C107.147 186.139 111.986 163.95 112.305 161.778C112.311 161.754 112.31 161.728 112.304 161.704C112.297 161.679 112.285 161.657 112.268 161.638C112.251 161.619 112.229 161.605 112.206 161.596C112.182 161.588 112.156 161.585 112.131 161.588Z" fill="#292929"/>
<path d="M72.9989 144.98C73.0568 145.062 101.356 147.238 101.653 146.973C102.067 146.597 99.2665 117.603 96.739 113.351C96.1971 112.445 94.1247 111.969 92.3087 111.986C91.8359 111.983 91.3638 112.024 90.8981 112.106H90.8526C90.4767 112.17 90.1145 112.297 89.7812 112.482C84.3457 115.874 78.5461 129.269 77.0859 133.323C74.666 140.007 72.7879 144.682 72.9989 144.98Z" fill="#D2302E"/>
<path d="M95.4359 117.049C94.0294 117.049 91.655 114.778 91.1834 112.648C91.1503 112.499 91.7336 111.229 92.3624 109.648C92.7429 108.685 93.1442 107.609 93.4379 106.6C93.4958 106.389 99.3243 109.979 99.3243 109.979C98.5962 111.138 98.0127 112.381 97.5869 113.682C97.5486 113.817 97.5223 113.955 97.5083 114.095C97.51 114.119 97.51 114.142 97.5083 114.166C97.3967 115.005 96.9375 117.07 95.4359 117.049Z" fill="#F7A9A0"/>
<path d="M97.5084 114.108C97.51 114.131 97.51 114.155 97.5084 114.178C97.2852 114.146 97.0652 114.094 96.8507 114.025C93.1277 112.859 93.5165 107.903 93.6737 106.666C94.7534 107.154 99.3368 109.975 99.3368 109.975C98.6093 111.135 98.0245 112.378 97.5953 113.678C97.5551 113.819 97.526 113.962 97.5084 114.108Z" fill="#292929"/>
<path d="M93.9549 98.8479C92.9332 101.073 93.2476 107.948 94.6912 109.653C96.7885 112.135 100.677 112.883 102.907 110.261C105.066 107.717 104.499 98.7776 102.845 97.1684C100.4 94.8023 95.4689 95.5675 93.9549 98.8479Z" fill="#F7A9A0"/>
<path d="M99.9448 103.746C99.9448 103.746 99.9117 103.77 99.9117 103.791C99.9448 104.25 99.9117 104.788 99.4981 104.958C99.4981 104.958 99.4981 104.987 99.4981 104.982C100.007 104.891 100.048 104.18 99.9448 103.746Z" fill="#292929"/>
<path d="M99.5106 103.282C98.766 103.253 98.7701 104.751 99.4609 104.775C100.152 104.8 100.139 103.303 99.5106 103.282Z" fill="#292929"/>
<path d="M102.625 103.82C102.625 103.82 102.663 103.841 102.658 103.861C102.658 104.32 102.708 104.854 103.126 105.007C103.126 105.007 103.126 105.036 103.126 105.032C102.613 104.962 102.53 104.254 102.625 103.82Z" fill="#292929"/>
<path d="M103.039 103.336C103.779 103.278 103.842 104.772 103.151 104.821C102.46 104.871 102.414 103.377 103.039 103.336Z" fill="#292929"/>
<path d="M98.9232 102.6C99.1185 102.541 99.3104 102.472 99.4982 102.393C99.7122 102.352 99.906 102.24 100.048 102.074C100.084 102.014 100.098 101.943 100.089 101.874C100.08 101.804 100.048 101.739 99.9987 101.69C99.886 101.607 99.7533 101.556 99.6144 101.543C99.4754 101.529 99.3353 101.552 99.2086 101.611C98.9328 101.689 98.6965 101.867 98.5467 102.112C98.5166 102.169 98.5036 102.234 98.5092 102.299C98.5149 102.363 98.5389 102.425 98.5785 102.476C98.6182 102.528 98.6717 102.567 98.7328 102.589C98.7939 102.61 98.8599 102.614 98.9232 102.6Z" fill="#292929"/>
<path d="M103.614 102.579C103.413 102.54 103.214 102.489 103.018 102.426C102.802 102.404 102.599 102.309 102.443 102.157C102.401 102.102 102.379 102.034 102.379 101.965C102.379 101.895 102.401 101.828 102.443 101.772C102.548 101.68 102.676 101.617 102.814 101.591C102.951 101.565 103.094 101.576 103.225 101.623C103.506 101.676 103.757 101.833 103.928 102.062C103.963 102.115 103.982 102.177 103.983 102.24C103.984 102.303 103.967 102.366 103.935 102.42C103.902 102.474 103.854 102.518 103.797 102.546C103.741 102.574 103.677 102.585 103.614 102.579Z" fill="#292929"/>
<path d="M99.5228 108.043C99.6345 108.151 99.7462 108.3 99.9365 108.316C100.108 108.311 100.278 108.27 100.433 108.196C100.433 108.196 100.462 108.196 100.454 108.221C100.387 108.312 100.298 108.384 100.195 108.428C100.091 108.473 99.9777 108.488 99.8661 108.474C99.7709 108.449 99.6851 108.397 99.6202 108.323C99.5552 108.249 99.5141 108.157 99.5021 108.06C99.4732 108.039 99.5063 108.027 99.5228 108.043Z" fill="#292929"/>
<path d="M101.417 107.2C101.223 107.456 100.965 107.657 100.669 107.783C100.507 107.846 100.329 107.857 100.16 107.816C99.7918 107.721 99.7794 107.402 99.8455 107.088C99.885 106.935 99.9405 106.787 100.011 106.645C100.408 106.976 100.901 107.17 101.417 107.2Z" fill="#292929"/>
<path d="M100.669 107.783C100.507 107.846 100.329 107.857 100.16 107.816C99.7918 107.721 99.7794 107.402 99.8455 107.088C100.041 107.094 100.228 107.166 100.378 107.292C100.527 107.418 100.63 107.591 100.669 107.783Z" fill="#FF9BBC"/>
<path d="M103.833 99.4393C103.581 98.8519 103.287 98.2604 102.932 98.1404C102.576 98.0204 102.348 98.8891 101.542 98.9429C100.458 99.0174 99.9325 98.0204 98.4143 97.9129C96.2302 97.764 95.2705 99.5675 95.2209 102.678C95.1754 105.442 93.5042 105.702 93.5042 105.702C93.5042 105.702 92.4907 99.6089 94.2074 97.5902C95.9241 95.5716 99.8663 94.6946 102.514 96.6057C103.478 97.3048 103.833 99.4393 103.833 99.4393Z" fill="#292929"/>
<path d="M94.8981 104.618C94.8981 104.618 93.6281 102.273 92.5816 102.699C91.535 103.125 92.3127 106.422 93.4089 106.972C93.5462 107.054 93.6989 107.108 93.8576 107.13C94.0163 107.152 94.1779 107.142 94.3325 107.1C94.4871 107.058 94.6316 106.985 94.7572 106.885C94.8828 106.786 94.987 106.662 95.0635 106.521L94.8981 104.618Z" fill="#F7A9A0"/>
<path d="M92.8298 103.63V103.659C93.6034 104.072 93.9426 104.9 94.1535 105.698C94.1158 105.612 94.0597 105.534 93.9891 105.471C93.9185 105.408 93.8351 105.361 93.7446 105.334C93.6542 105.306 93.5588 105.299 93.4652 105.312C93.3715 105.325 93.2817 105.358 93.2021 105.409C93.1773 105.409 93.2021 105.458 93.2021 105.454C93.3501 105.426 93.5032 105.443 93.6408 105.505C93.7784 105.566 93.8938 105.668 93.9715 105.797C94.0969 106.017 94.1995 106.248 94.2776 106.488C94.3066 106.563 94.4431 106.542 94.4224 106.455V106.435C94.563 105.4 93.926 103.862 92.8298 103.63Z" fill="#292929"/>
<path d="M103.573 97.6233C102.931 97.4703 99.3781 97.5778 97.7813 98.2645C96.1846 98.9512 93.3468 101.247 93.2021 101.367C93.0573 101.487 92.3251 95.6295 97.0781 94.5622C102.253 93.3957 103.573 97.6233 103.573 97.6233Z" fill="#D2302E"/>
<path d="M93.4752 101.127C93.4752 101.127 96.6149 96.9903 98.3605 96.0388C100.106 95.0874 104.015 94.5579 106.435 95.6252C108.317 96.4525 103.717 98.8766 103.717 98.8766C103.674 98.6781 103.585 98.4925 103.457 98.3345C103.329 98.1765 103.166 98.0505 102.981 97.9665C101.806 97.4991 99.5726 97.859 98.2985 98.285C96.6935 98.8269 93.4752 101.127 93.4752 101.127Z" fill="#D2302E"/>
<path opacity="0.2" d="M93.4752 101.148C93.4752 101.148 96.6149 96.9864 98.3605 96.0392C100.106 95.0919 104.015 94.5582 106.435 95.6255C108.317 96.4528 103.717 98.8769 103.717 98.8769C103.674 98.6784 103.585 98.4928 103.457 98.3348C103.329 98.1768 103.166 98.0508 102.981 97.9668C101.806 97.4994 99.5726 97.8593 98.2985 98.2853C96.6935 98.8272 93.4752 101.148 93.4752 101.148Z" fill="#292929"/>
<path d="M87.99 120.218C87.7252 128.375 90.7367 143.652 92.9539 144.69C100.11 148.033 112.152 148.244 116.276 148.281C118.055 148.281 120.785 135.631 119.023 134.919C117.852 134.448 100.197 134.444 99.8869 133.815C99.5767 133.186 95.3697 124.102 93.5537 119.072C91.1421 112.383 88.143 115.428 87.99 120.218Z" fill="#F7A9A0"/>
<path d="M117.128 134.75C117.128 134.75 122.535 135.08 126.055 135.461C128.024 135.672 131.362 136.338 132.732 137.153C134.8 138.394 142.593 144.797 141.079 146.725C139.706 148.467 133.7 142.1 133.7 142.1C133.7 142.1 140.318 147.987 138.291 149.786C136.264 151.586 130.432 143.482 130.432 143.482C130.432 143.482 137.108 149.687 134.713 151.209C132.905 152.355 127.209 145.319 127.209 145.319C127.209 145.319 132.914 150.696 131.102 151.937C129.1 153.331 123.437 147.164 123.437 147.164C118.295 149.596 114.853 148.649 112.483 147.685C111.9 147.47 117.128 134.75 117.128 134.75Z" fill="#F7A9A0"/>
<path d="M131.536 139.916C132.339 140.578 133.158 141.244 133.898 141.984C134.639 142.725 135.358 143.478 136.029 144.276C136.925 145.303 137.702 146.429 138.345 147.631C137.05 145.563 134.436 142.915 133.691 142.183C132.947 141.451 132.248 140.681 131.507 139.949C131.487 139.924 131.516 139.9 131.536 139.916Z" fill="#292929"/>
<path d="M128.843 142.547C129.832 143.437 130.846 144.289 131.797 145.224C132.748 146.159 133.559 147.122 134.44 148.119C134.506 148.194 134.44 148.206 134.37 148.119C133.452 147.164 132.529 146.349 131.603 145.402C130.676 144.454 129.778 143.47 128.819 142.56C128.802 142.556 128.827 142.535 128.843 142.547Z" fill="#292929"/>
<path d="M126.109 144.388C127.66 145.719 129.07 147.206 130.316 148.826C130.378 148.905 130.295 148.913 130.225 148.826C128.856 147.325 127.793 146.138 126.063 144.438C126.051 144.417 126.109 144.363 126.109 144.388Z" fill="#292929"/>
<path d="M132.049 136.499C130.764 135.95 129.4 135.608 128.008 135.486C125.004 135.118 121.985 134.878 118.965 134.659C115.945 134.439 112.88 134.245 109.835 134.133C108.123 134.067 106.41 134.016 104.698 133.98C102.985 133.947 102.629 134.009 100.909 134.03C100.863 134.03 100.867 134.092 100.909 134.096C103.908 134.253 105.562 134.377 108.561 134.535C111.56 134.692 114.551 134.87 117.542 135.076C120.533 135.283 123.474 135.49 126.427 135.821C127.856 135.918 129.273 136.146 130.659 136.504C132.018 137.003 133.278 137.736 134.382 138.671C135.648 139.668 140.393 144.231 140.827 144.822C140.881 144.893 140.902 144.872 140.873 144.781C140.529 143.544 134.825 137.794 132.049 136.499Z" fill="#292929"/>
<path d="M96.5321 125.483L87.7335 130.472C87.7335 130.472 87.3612 119.353 88.1761 116.052C89.0944 112.329 90.7904 113.62 92.7016 116.714C94.6127 119.808 96.5321 125.483 96.5321 125.483Z" fill="#D2302E"/>
<path opacity="0.1" d="M96.5321 125.483L87.7335 130.472C87.7335 130.472 87.3612 119.353 88.1761 116.052C89.0944 112.329 90.7904 113.62 92.7016 116.714C94.6127 119.808 96.5321 125.483 96.5321 125.483Z" fill="#292929"/>
<path d="M95.3201 124.061C94.1163 124.545 90.6995 126.505 90.1328 126.824C89.8349 126.989 88.6684 127.713 88.3706 127.879C88.3333 127.899 88.3706 127.953 88.4078 127.932C88.9828 127.618 89.5867 127.362 90.1659 127.051C90.745 126.741 94.3025 124.871 95.3449 124.102C95.3489 124.098 95.3514 124.093 95.3521 124.087C95.3528 124.082 95.3516 124.076 95.3488 124.072C95.3459 124.067 95.3415 124.063 95.3363 124.061C95.3311 124.059 95.3254 124.059 95.3201 124.061Z" fill="#292929"/>
<path d="M95.1464 121.368C95.0099 120.851 94.8692 120.338 94.712 119.825C94.7989 120.205 94.8982 120.586 94.9974 120.966C94.6789 120.247 94.3521 119.535 93.9964 118.844H93.9757C94.3604 119.965 94.803 121.066 95.2167 122.178C95.6304 123.291 96.044 124.354 96.4577 125.442C96.2715 125.587 96.0895 125.728 95.8992 125.856C95.8916 125.861 95.8862 125.869 95.8842 125.877C95.8823 125.886 95.884 125.896 95.8889 125.903C95.8938 125.911 95.9016 125.916 95.9105 125.918C95.9195 125.92 95.9288 125.919 95.9365 125.914C96.164 125.798 96.3915 125.682 96.6273 125.579C96.6546 125.568 96.6769 125.548 96.69 125.522C96.703 125.496 96.7057 125.466 96.6976 125.438C96.2343 124.085 95.7214 122.712 95.1464 121.368Z" fill="#292929"/>
</svg>
