<svg width="11" height="11" viewBox="0 0 11 11" fill="none" xmlns="http://www.w3.org/2000/svg">
<path fill-rule="evenodd" clip-rule="evenodd" d="M10.5 3.1666C10.3827 3.28385 10.3241 3.34247 10.268 3.3847C9.91187 3.65272 9.42138 3.65272 9.06527 3.3847C9.00917 3.34247 8.95054 3.28385 8.83329 3.1666L7.83329 2.1666C7.71604 2.04935 7.65742 1.99072 7.61519 1.93462C7.34717 1.57851 7.34717 1.08801 7.61519 0.731909C7.65742 0.675807 7.71604 0.617181 7.83329 0.49993C7.95054 0.382679 8.00917 0.324053 8.06527 0.281828C8.42138 0.0138046 8.91187 0.0138046 9.26798 0.281828C9.32408 0.324053 9.38271 0.382679 9.49996 0.499931L10.5 1.49993C10.6172 1.61718 10.6758 1.67581 10.7181 1.73191C10.9861 2.08801 10.9861 2.57851 10.7181 2.93462C10.6758 2.99072 10.6172 3.04935 10.5 3.1666ZM2.55224 10.3333C1.72015 10.3333 1.30411 10.3333 1.02581 10.101C0.9798 10.0626 0.937337 10.0201 0.898933 9.97408C0.666626 9.69578 0.666626 9.27973 0.666626 8.44765C0.666626 8.08598 0.666626 7.90515 0.726495 7.74C0.736702 7.71184 0.748169 7.68416 0.760862 7.65703C0.835305 7.49792 0.963174 7.37005 1.21891 7.11431L4.99996 3.33326C5.58834 2.74489 5.88252 2.4507 6.24358 2.41818C6.30327 2.4128 6.36332 2.4128 6.42301 2.41818C6.78406 2.4507 7.07825 2.74489 7.66663 3.33326C8.255 3.92164 8.54919 4.21583 8.58171 4.57688C8.58709 4.63657 8.58709 4.69662 8.58171 4.75631C8.54919 5.11737 8.255 5.41155 7.66663 5.99993L3.88558 9.78098C3.62984 10.0367 3.50197 10.1646 3.34286 10.239C3.31573 10.2517 3.28805 10.2632 3.25989 10.2734C3.09474 10.3333 2.91391 10.3333 2.55224 10.3333Z" fill="white"/>
</svg>
