<svg width="24" height="24" viewBox="0 0 24 24" fill="none" xmlns="http://www.w3.org/2000/svg">
<path fill-rule="evenodd" clip-rule="evenodd" d="M17.8549 2.64591C17.3127 1.79478 16.1832 1.54437 15.332 2.0866C14.8409 2.39948 14.0566 3.20393 13.4936 4.10171C13.2166 4.54339 13.0275 4.95454 12.9451 5.28781C12.9113 5.42459 12.9001 5.52707 12.8998 5.6023L12.8998 5.61C12.9005 5.72032 12.9248 5.76957 12.9326 5.78179C12.9457 5.80241 13.0346 5.91031 13.3856 5.97922C13.7224 6.04535 14.175 6.04772 14.6924 5.98336C15.7439 5.85254 16.8045 5.48169 17.2956 5.16881C18.1467 4.62658 18.3972 3.49704 17.8549 2.64591ZM18.2627 6.68692C18.1261 6.77399 17.9722 6.85911 17.8048 6.94111H23C23.5523 6.94111 24 7.38883 24 7.94111V10.1957C24 10.7479 23.5523 11.1957 23 11.1957H22.9091V11.2775H12.9V6.94111H11.1V11.2775H1.09091V11.1957H1C0.447715 11.1957 0 10.7479 0 10.1957V7.94111C0 7.38883 0.447716 6.94111 1 6.94111H6.19522C6.02778 6.85911 5.87393 6.77399 5.73725 6.68692C4.0477 5.61055 3.55061 3.36833 4.62698 1.67877C5.70334 -0.0107819 7.94556 -0.507871 9.63512 0.568495C10.4021 1.0571 11.342 2.06192 12 3.09578C12.658 2.06192 13.5979 1.0571 14.3649 0.568495C16.0544 -0.507871 18.2967 -0.0107819 19.373 1.67877C20.4494 3.36833 19.9523 5.61055 18.2627 6.68692ZM1.09091 13.0775V21.3047C1.09091 22.4093 1.98634 23.3047 3.09091 23.3047H11.1V13.0775H1.09091ZM12.9 23.3047H20.9091C22.0137 23.3047 22.9091 22.4093 22.9091 21.3048V13.0775H12.9V23.3047ZM11.1002 5.6023L11.1002 5.60999C11.0995 5.72032 11.0752 5.76957 11.0674 5.78179C11.0543 5.80241 10.9654 5.91031 10.6144 5.97922C10.2776 6.04535 9.825 6.04772 9.30765 5.98336C8.25606 5.85254 7.19551 5.48169 6.70439 5.16881C5.85326 4.62658 5.60285 3.49704 6.14508 2.64591C6.68731 1.79478 7.81685 1.54437 8.66798 2.0866C9.1591 2.39948 9.94341 3.20393 10.5064 4.10171C10.7834 4.54339 10.9725 4.95454 11.0549 5.28781C11.0887 5.4246 11.0999 5.52707 11.1002 5.6023Z" fill="white"/>
</svg>
