<svg width="24" height="24" viewBox="0 0 24 24" fill="none" xmlns="http://www.w3.org/2000/svg">
<path fill-rule="evenodd" clip-rule="evenodd" d="M10.3212 16.9351C6.66835 16.9351 3.70715 13.9739 3.70715 10.3211C3.70715 6.6683 6.66835 3.70711 10.3212 3.70711C13.974 3.70711 16.9352 6.6683 16.9352 10.3211C16.9352 11.8496 16.4167 13.257 15.5461 14.377L20 18.8309L18.8308 20.0001L14.3768 15.5461C13.2569 16.4167 11.8496 16.9351 10.3212 16.9351ZM15.2817 10.3211C15.2817 13.0607 13.0608 15.2816 10.3212 15.2816C7.58156 15.2816 5.36066 13.0607 5.36066 10.3211C5.36066 7.58151 7.58156 5.36061 10.3212 5.36061C13.0608 5.36061 15.2817 7.58151 15.2817 10.3211Z" fill="#858585"/>
</svg>
