<svg width="127" height="130" viewBox="0 0 127 130" fill="none" xmlns="http://www.w3.org/2000/svg">
<path fill-rule="evenodd" clip-rule="evenodd" d="M62.6499 130H117.539C120.187 129.759 125.05 127.256 123.317 119.167C123.504 119.354 123.205 118.083 122.685 115.87C121.201 109.555 117.914 95.5715 118.983 85.9445L126.928 28.889C126.928 26.4816 125.772 21.6667 121.15 21.6667H25.0943H7.03876C3.90913 22.1482 -1.77235 25.1334 0.538758 33.2223C1.26098 33.2223 12.0943 103.278 7.03876 110.5L3.42765 122.778C2.70542 125.185 3.42765 130 12.0943 130H62.6499ZM41.8899 68.9328C42.2078 83.8449 52.1988 96.0378 59.7136 102.5C62.1786 104.62 65.7643 104.613 68.2655 102.536C82.364 90.8292 86.0484 75.5922 86.0484 68.9328C85.1525 51.1791 72.2533 46.2223 64.2542 46.2223C41.6597 48.6045 41.8807 68.1165 41.8897 68.9118L41.8899 68.9328ZM75.2385 69.5207C75.2385 75.5565 70.3595 80.4499 64.3415 80.4499C58.3232 80.4499 53.4444 75.5565 53.4444 69.5207C53.4444 63.4849 58.3232 58.5915 64.3415 58.5915C70.3595 58.5915 75.2385 63.4849 75.2385 69.5207Z" fill="white"/>
<path d="M104.801 48.283C107.117 48.4301 109.13 46.6605 109.061 44.3349C108.919 39.5441 108.045 34.7971 106.465 30.2698C104.421 24.4171 101.239 19.0546 97.1121 14.5104C92.9856 9.96626 88.001 6.33581 82.4642 3.841C76.9273 1.34621 70.954 0.0395428 64.9096 0.000883679C58.8651 -0.0377755 52.8764 1.19239 47.3097 3.61617C41.7431 6.03997 36.7155 9.6064 32.5342 14.0974C28.353 18.5885 25.1061 23.9098 22.9919 29.7359C21.3563 34.2435 20.4253 38.98 20.2256 43.7696C20.1286 46.093 22.119 47.8866 24.4346 47.7691C26.7422 47.6521 28.4957 45.6796 28.6392 43.3668C28.8639 39.744 29.6046 36.1669 30.8439 32.7518C32.5593 28.0242 35.1941 23.7063 38.5868 20.0621C41.9797 16.4179 46.0593 13.5239 50.5762 11.5572C55.0932 9.59047 59.9526 8.59223 64.8574 8.62363C69.7622 8.65498 74.6091 9.71529 79.1022 11.7397C83.5952 13.764 87.6391 16.7099 90.988 20.3973C94.3362 24.0846 96.9189 28.4359 98.5769 33.185C99.775 36.6165 100.472 40.2036 100.653 43.8299C100.768 46.1434 102.496 48.1365 104.801 48.283Z" fill="#FFCE47"/>
</svg>
