<svg width="24" height="24" viewBox="0 0 24 24" fill="none" xmlns="http://www.w3.org/2000/svg">
<path d="M17.5602 21.0001C17.4003 21.0007 17.2426 20.963 17.1002 20.8901L12.0002 18.2201L6.90024 20.8901C6.73464 20.9772 6.54792 21.0161 6.36132 21.0023C6.17472 20.9885 5.99572 20.9227 5.84467 20.8123C5.69363 20.7019 5.57659 20.5513 5.50686 20.3777C5.43713 20.204 5.41752 20.0143 5.45025 19.8301L6.45024 14.2001L2.33025 10.2002C2.20171 10.0719 2.11052 9.91103 2.06648 9.73485C2.02243 9.55868 2.0272 9.37384 2.08025 9.20016C2.13821 9.02244 2.24483 8.86452 2.388 8.74432C2.53117 8.62413 2.70517 8.54647 2.89025 8.52017L8.59024 7.69017L11.1002 2.5602C11.1821 2.39113 11.31 2.24854 11.4691 2.14878C11.6283 2.04901 11.8124 1.99609 12.0002 1.99609C12.1881 1.99609 12.3722 2.04901 12.5313 2.14878C12.6905 2.24854 12.8183 2.39113 12.9002 2.5602L15.4402 7.68017L21.1402 8.51017C21.3253 8.53647 21.4993 8.61413 21.6425 8.73432C21.7856 8.85452 21.8923 9.01244 21.9502 9.19016C22.0033 9.36384 22.008 9.54868 21.964 9.72485C21.92 9.90103 21.8288 10.0619 21.7002 10.1902L17.5802 14.1901L18.5802 19.8201C18.6159 20.0076 18.5972 20.2014 18.5264 20.3785C18.4555 20.5557 18.3354 20.709 18.1802 20.8201C17.9991 20.947 17.7811 21.0103 17.5602 21.0001Z" fill="#D2302E"/>
</svg>
