<svg width="18" height="15" viewBox="0 0 18 15" fill="none" xmlns="http://www.w3.org/2000/svg">
<path d="M0.311724 1.19729L0.515658 1.65381C1.13068 1.37907 2.60353 0.785757 4.22315 0.576025C5.85573 0.364616 7.51354 0.556569 8.64555 1.69497L9.00033 2.05175L9.35488 1.69474C10.4863 0.555484 12.1439 0.363494 13.7765 0.575171C15.3945 0.784933 16.8661 1.37768 17.4825 1.65288C17.4877 1.65539 17.4922 1.65934 17.4953 1.66429L17.9177 1.3966L17.4953 1.66429C17.4986 1.66938 17.5002 1.67531 17.5002 1.68135L17.5001 1.68135V1.68892V13.714C17.5001 13.7352 17.4917 13.7573 17.4613 13.7767C17.4288 13.7974 17.3905 13.801 17.3567 13.7874L17.1687 14.2507L17.3573 13.7876C16.1982 13.3156 14.6244 12.8593 13.0511 12.7994C11.6317 12.7454 10.152 13.0136 9.0001 13.9525C7.84821 13.0136 6.36849 12.7454 4.94905 12.7996C3.37569 12.8596 1.80185 13.3162 0.642708 13.7888L0.642315 13.789C0.609205 13.8025 0.571547 13.799 0.539207 13.7784C0.508728 13.759 0.500099 13.7365 0.500099 13.7152V1.69117H0.500193L0.500006 1.6815C0.499889 1.67544 0.50155 1.66948 0.504783 1.66436C0.508016 1.65923 0.51268 1.65517 0.518199 1.65267L0.311724 1.19729ZM0.311724 1.19729C0.2172 1.24015 0.137308 1.30977 0.0819239 1.39754L17.6885 1.19729C16.4279 0.634157 11.6377 -1.2481 9.03792 1.30481L9.0001 1.34242L8.96224 1.30482C6.36135 -1.24586 1.57233 0.634159 0.311724 1.19729Z" fill="black" stroke="black"/>
</svg>
