<svg width="146" height="102" viewBox="0 0 146 102" fill="none" xmlns="http://www.w3.org/2000/svg">
<path d="M10.9575 56.4377L0.641602 86.1445L44.7151 101.449L55.031 71.7426L10.9575 56.4377Z" fill="#EBEBEB"/>
<path d="M55.0278 71.7356C54.8539 71.8375 54.6709 71.9228 54.481 71.9903L52.8809 72.6373L46.9614 74.953L27.3306 82.4669L27.1675 82.527L27.0759 82.3811L26.8497 82.0261L15.5373 63.9754L12.1481 58.4795L11.2465 56.9739C11.1349 56.8026 11.0391 56.6215 10.9602 56.4329C11.0954 56.5858 11.2152 56.7517 11.318 56.9281L12.2884 58.3908L15.7892 63.8266L27.2104 81.8114C27.2848 81.9345 27.3621 82.0547 27.4337 82.1664L27.1789 82.0805L46.8555 74.6868L52.8237 72.4855L54.4524 71.913C54.638 71.8352 54.8307 71.7758 55.0278 71.7356Z" fill="#E0E0E0"/>
<path d="M0.641192 86.1537C0.58108 86.0536 5.30986 83.1338 11.2008 79.6302C17.0917 76.1265 21.9179 73.37 21.978 73.4702C22.0381 73.5704 17.3093 76.4901 11.4155 79.9937C5.52169 83.4974 0.701303 86.2396 0.641192 86.1537Z" fill="#E0E0E0"/>
<path d="M36.7567 78.1704C36.8655 78.1332 38.7375 83.3228 40.9359 89.7376C43.1342 96.1523 44.826 101.405 44.7143 101.442C44.6027 101.479 42.7335 96.2897 40.5351 89.875C38.3368 83.4602 36.6451 78.2076 36.7567 78.1704Z" fill="#E0E0E0"/>
<path d="M141.017 48.7057L97.4058 56.0977L102.388 85.4938L146 78.1018L141.017 48.7057Z" fill="#E0E0E0"/>
<path d="M141.013 48.7185C140.915 48.8823 140.802 49.0366 140.676 49.1794L139.642 50.4474L135.778 55.0732C132.46 58.9862 127.92 64.3418 122.897 70.2728L122.791 70.3988L122.648 70.3186L122.299 70.1269L104.66 60.2857L99.3388 57.263L97.9075 56.4242C97.7348 56.3353 97.5718 56.2289 97.4209 56.1065C97.6032 56.1733 97.7794 56.2557 97.9476 56.3527L99.4218 57.1284L104.806 60.0367L122.502 69.769L122.851 69.9608L122.602 70.0066L135.58 54.8842L139.539 50.3415C139.994 49.8349 140.355 49.4284 140.63 49.1192C140.747 48.9757 140.875 48.8417 141.013 48.7185Z" fill="#EBEBEB"/>
<path d="M102.384 85.504C102.29 85.4468 104.886 80.8611 108.184 75.2622C111.481 69.6632 114.235 65.1691 114.329 65.2264C114.424 65.2836 111.828 69.8664 108.53 75.4683C105.232 81.0701 102.479 85.5584 102.384 85.504Z" fill="#EBEBEB"/>
<path d="M128.765 62.3954C128.84 62.3153 132.773 65.7645 137.516 70.104C142.259 74.4435 146.072 78.0273 145.994 78.1189C145.917 78.2105 142.004 74.7441 137.244 70.4103C132.483 66.0765 128.679 62.4841 128.765 62.3954Z" fill="#EBEBEB"/>
<path d="M97.4241 1.97924L89.5674 21.9553L119.205 33.612L127.062 13.636L97.4241 1.97924Z" fill="#EBEBEB"/>
<path d="M127.053 13.9023C126.933 13.9694 126.805 14.0223 126.673 14.0598L125.565 14.4605L121.463 15.8774L107.863 20.4574L107.752 20.4946L107.694 20.3915L107.551 20.1454L100.341 7.51906C99.4391 5.91894 98.7063 4.61366 98.1824 3.67763L97.61 2.62711C97.5372 2.50717 97.4759 2.38066 97.4268 2.24927C97.5155 2.35726 97.5941 2.4732 97.6615 2.59563C97.8161 2.85611 98.0221 3.19674 98.2826 3.62039L100.521 7.41887C102.399 10.662 104.972 15.0989 107.812 20.0137L107.955 20.2627L107.786 20.1969L121.408 15.6971L125.53 14.3546L126.655 14.0197C126.785 13.9701 126.918 13.9308 127.053 13.9023Z" fill="#E0E0E0"/>
<path d="M89.5609 22.2266C89.5208 22.1579 92.827 20.2945 96.9432 18.0675C101.059 15.8405 104.426 14.0944 104.463 14.1631C104.5 14.2318 101.2 16.0953 97.0806 18.3137C92.9615 20.5321 89.5981 22.2982 89.5609 22.2266Z" fill="#E0E0E0"/>
<path d="M114.412 17.7867C114.49 17.7638 115.623 21.3505 116.943 25.8016C118.262 30.2527 119.276 33.868 119.198 33.8909C119.121 33.9138 117.988 30.33 116.668 25.876C115.348 21.4221 114.335 17.8096 114.412 17.7867Z" fill="#E0E0E0"/>
<path d="M39.7247 50.0581L107.242 49.5686L109.122 95.471L39.2095 94.8241L39.7247 50.0581Z" fill="#D2302E"/>
<path d="M39.7222 50.0579L71.6787 24.2013C72.3353 23.6707 73.1547 23.3826 73.9989 23.3858C74.8431 23.3889 75.6604 23.683 76.313 24.2185L107.242 49.5684" fill="#D2302E"/>
<g opacity="0.3">
<path opacity="0.3" d="M39.7222 50.0579L71.6787 24.2013C72.3353 23.6707 73.1547 23.3826 73.9989 23.3858C74.8431 23.3889 75.6604 23.683 76.313 24.2185L107.242 49.5684" fill="black"/>
</g>
<path d="M39.2099 94.8241C39.1269 94.744 44.5312 88.8416 51.2838 81.6425C58.0363 74.4434 63.5752 68.6698 63.6611 68.7471C63.7469 68.8244 58.3397 74.7268 51.5872 81.9287C44.8347 89.1307 39.2958 94.9014 39.2099 94.8241Z" fill="#263238"/>
<path d="M109.122 95.4709C109.037 95.5482 103.772 89.766 97.3663 82.5583C90.9601 75.3507 85.8363 69.4426 85.9165 69.3653C85.9966 69.288 91.2664 75.0701 97.6726 82.2807C104.079 89.4912 109.214 95.3936 109.122 95.4709Z" fill="#263238"/>
<g opacity="0.5">
<path opacity="0.5" d="M107.242 49.5686L73.3361 76.6532L39.7251 50.0581" fill="black"/>
</g>
<path d="M43.1226 52.5655L43.0195 31.4806L102.138 30.7793L102.805 52.9662L73.333 76.2981L43.1226 52.5655Z" fill="#FAFAFA"/>
<path d="M43.1229 52.5655C43.1229 52.5655 43.3147 52.7086 43.6783 52.992L45.2812 54.24L51.3926 59.0118L73.3792 76.2495H73.3047L102.768 52.909L102.739 52.9691C102.613 48.7384 102.479 44.2959 102.342 39.7789C102.253 36.7361 102.161 33.7305 102.072 30.7822L102.147 30.8537L43.0285 31.5264L43.0743 31.4806C43.0972 38.1129 43.1172 43.3827 43.1287 46.9952C43.1287 48.8014 43.1287 50.1925 43.1287 51.1343V52.202C43.1287 52.4424 43.1287 52.5655 43.1287 52.5655C43.1287 52.5655 43.1287 52.4453 43.1287 52.2077C43.1287 51.9701 43.1287 51.6123 43.1287 51.1457C43.1287 50.204 43.1086 48.8157 43.0943 47.0123C43.0714 43.3942 43.0371 38.1215 42.9941 31.4806V31.432H43.0399L102.161 30.7078H102.233V30.7822C102.321 33.7277 102.41 36.7332 102.502 39.776C102.639 44.2959 102.771 48.7355 102.9 52.9691V53.0063L102.871 53.0292L73.3877 76.3497L73.3505 76.3783L73.3133 76.3497L51.3411 59.0547L45.2669 54.2601L43.664 53.0006C43.3033 52.7144 43.1229 52.5655 43.1229 52.5655Z" fill="#263238"/>
<path d="M92.7952 41.399C92.7952 41.4391 83.7526 41.5278 72.6034 41.5937C61.4541 41.6595 52.4087 41.6853 52.4087 41.6423C52.4087 41.5994 61.4483 41.5135 72.6034 41.4448C83.7584 41.3761 92.7952 41.3561 92.7952 41.399Z" fill="#263238"/>
<path d="M92.7952 47.353C92.7952 47.3959 83.7526 47.4847 72.6034 47.5505C61.4541 47.6163 52.4087 47.6392 52.4087 47.5992C52.4087 47.5591 61.4483 47.4704 72.6034 47.4017C83.7584 47.333 92.7952 47.3129 92.7952 47.353Z" fill="#263238"/>
<path d="M92.7952 54.2201C92.7952 54.2601 83.7526 54.3489 72.6034 54.4176C61.4541 54.4863 52.4087 54.5063 52.4087 54.4634C52.4087 54.4204 61.4483 54.3346 72.6034 54.2687C83.7584 54.2029 92.7952 54.1771 92.7952 54.2201Z" fill="#263238"/>
<path d="M92.7948 61.0842C92.7948 61.1271 84.1702 61.2101 73.5304 61.276C62.8906 61.3418 54.266 61.359 54.2632 61.3189C54.2603 61.2788 62.8878 61.1929 73.5304 61.1271C84.173 61.0613 92.7948 61.0441 92.7948 61.0842Z" fill="#263238"/>
<path d="M85.2324 67.1095C85.1548 67.1227 85.0762 67.1284 84.9976 67.1267L84.3164 67.1467L81.8203 67.1868L73.5793 67.3042C70.3619 67.3586 67.445 67.3757 65.3354 67.3786H62.8393H62.1581C62.0796 67.38 62.0011 67.3752 61.9233 67.3643C62.0009 67.3512 62.0794 67.3454 62.1581 67.3471L62.8393 67.3299L65.3354 67.287L73.5764 67.1696C76.7938 67.1153 79.7107 67.0981 81.8174 67.0952H84.3164H84.9976C85.0761 67.095 85.1545 67.0998 85.2324 67.1095Z" fill="#263238"/>
<path d="M77.6211 72.9035C77.6211 72.9436 75.6946 72.9779 73.3274 72.9779C70.9601 72.9779 69.0337 72.9436 69.0337 72.9035C69.0337 72.8634 70.963 72.8291 73.3274 72.8291C75.6918 72.8291 77.6211 72.8606 77.6211 72.9035Z" fill="#263238"/>
<path d="M97.5212 68.2261C101.466 68.2261 104.663 65.0285 104.663 61.0842C104.663 57.1399 101.466 53.9424 97.5212 53.9424C93.5769 53.9424 90.3794 57.1399 90.3794 61.0842C90.3794 65.0285 93.5769 68.2261 97.5212 68.2261Z" fill="#263238"/>
<path d="M95.6633 68.2261C99.6077 68.2261 102.805 65.0285 102.805 61.0842C102.805 57.1399 99.6077 53.9424 95.6633 53.9424C91.719 53.9424 88.5215 57.1399 88.5215 61.0842C88.5215 65.0285 91.719 68.2261 95.6633 68.2261Z" fill="#455A64"/>
<path d="M96.5707 57.7607V63.6975H95.4744V58.6738H94.2178V57.7493L96.5707 57.7607Z" fill="#EBEBEB"/>
</svg>
