<svg width="16" height="16" viewBox="0 0 16 16" fill="none" xmlns="http://www.w3.org/2000/svg">
<path d="M7.99992 1.33331C4.32392 1.33331 1.33325 4.32398 1.33325 7.99998C1.33325 11.676 4.32392 14.6666 7.99992 14.6666C11.6759 14.6666 14.6666 11.676 14.6666 7.99998C14.6666 4.32398 11.6759 1.33331 7.99992 1.33331ZM13.2873 7.33331H11.4446C11.3623 5.87414 10.9541 4.45196 10.2499 3.17131C11.0661 3.55268 11.7725 4.13424 12.3035 4.86192C12.8346 5.5896 13.173 6.43975 13.2873 7.33331ZM8.35325 2.68465C9.04325 3.59398 9.97125 5.20465 10.1046 7.33331H6.01992C6.11259 5.60265 6.68259 3.98131 7.65392 2.68398C7.76859 2.67731 7.88325 2.66665 7.99992 2.66665C8.11925 2.66665 8.23592 2.67731 8.35325 2.68465ZM5.79192 3.15131C5.13592 4.41198 4.75725 5.84131 4.68659 7.33331H2.71259C2.82776 6.43187 3.17101 5.57471 3.70985 4.84292C4.24869 4.11113 4.96531 3.52891 5.79192 3.15131ZM2.71259 8.66665H4.69525C4.78592 10.2526 5.13859 11.652 5.73259 12.82C4.92071 12.4373 4.2184 11.8561 3.69056 11.1302C3.16271 10.4042 2.82636 9.55696 2.71259 8.66665ZM7.63325 13.3153C6.69925 12.1833 6.14792 10.5973 6.02725 8.66665H10.1026C9.96392 10.5153 9.35792 12.1306 8.36725 13.3146C8.24592 13.3226 8.12459 13.3333 7.99992 13.3333C7.87592 13.3333 7.75525 13.3226 7.63325 13.3153ZM10.3073 12.8006C10.9439 11.6046 11.3326 10.2 11.4346 8.66665H13.2866C13.1741 9.5495 12.8426 10.3902 12.3222 11.1122C11.8018 11.8342 11.1092 12.4147 10.3073 12.8006Z" fill="#D2302E"/>
</svg>
